<?xml version="1.0" encoding="UTF-8" standalone="no"?>
<!DOCTYPE svg PUBLIC "-//W3C//DTD SVG 1.1//EN"
 "http://www.w3.org/Graphics/SVG/1.1/DTD/svg11.dtd">
<!-- Generated by graphviz version 2.43.0 (0)
 -->
<!-- Title: create_graph Pages: 1 -->
<svg width="742pt" height="308pt"
 viewBox="0.00 0.00 742.00 308.00" xmlns="http://www.w3.org/2000/svg" xmlns:xlink="http://www.w3.org/1999/xlink">
<g id="graph0" class="graph" transform="scale(1 1) rotate(0) translate(4 304)">
<title>create_graph</title>
<polygon fill="white" stroke="transparent" points="-4,4 -4,-304 738,-304 738,4 -4,4"/>
<!-- 0 -->
<g id="node1" class="node">
<title>0</title>
<ellipse fill="none" stroke="black" cx="27" cy="-229" rx="27" ry="18"/>
<text text-anchor="middle" x="27" y="-225.3" font-family="Helvetica,Arial,sans-serif" font-size="14.00">0</text>
</g>
<!-- 3 -->
<g id="node2" class="node">
<title>3</title>
<ellipse fill="none" stroke="black" cx="125" cy="-280" rx="27" ry="18"/>
<text text-anchor="middle" x="125" y="-276.3" font-family="Helvetica,Arial,sans-serif" font-size="14.00">3</text>
</g>
<!-- 0&#45;&gt;3 -->
<g id="edge1" class="edge">
<title>0&#45;&gt;3</title>
<path fill="none" stroke="black" d="M48.83,-240.07C62.04,-247.08 79.34,-256.28 94.02,-264.07"/>
<polygon fill="black" stroke="black" points="92.74,-267.35 103.21,-268.96 96.02,-261.17 92.74,-267.35"/>
<text text-anchor="middle" x="76" y="-259.8" font-family="Helvetica,Arial,sans-serif" font-size="14.00">2</text>
</g>
<!-- 2 -->
<g id="node3" class="node">
<title>2</title>
<ellipse fill="none" stroke="black" cx="197" cy="-101" rx="27" ry="18"/>
<text text-anchor="middle" x="197" y="-97.3" font-family="Helvetica,Arial,sans-serif" font-size="14.00">2</text>
</g>
<!-- 0&#45;&gt;2 -->
<g id="edge2" class="edge">
<title>0&#45;&gt;2</title>
<path fill="none" stroke="black" d="M45.35,-215.78C75.02,-193.17 135.68,-146.96 170.29,-120.59"/>
<polygon fill="black" stroke="black" points="172.66,-123.18 178.5,-114.34 168.42,-117.61 172.66,-123.18"/>
<text text-anchor="middle" x="76" y="-198.8" font-family="Helvetica,Arial,sans-serif" font-size="14.00">2</text>
</g>
<!-- 1 -->
<g id="node4" class="node">
<title>1</title>
<ellipse fill="none" stroke="black" cx="269" cy="-237" rx="27" ry="18"/>
<text text-anchor="middle" x="269" y="-233.3" font-family="Helvetica,Arial,sans-serif" font-size="14.00">1</text>
</g>
<!-- 0&#45;&gt;1 -->
<g id="edge3" class="edge">
<title>0&#45;&gt;1</title>
<path fill="none" stroke="black" d="M54.14,-229.87C97.15,-231.31 182.93,-234.16 231.77,-235.79"/>
<polygon fill="black" stroke="black" points="231.78,-239.29 241.89,-236.13 232.01,-232.3 231.78,-239.29"/>
<text text-anchor="middle" x="125" y="-236.8" font-family="Helvetica,Arial,sans-serif" font-size="14.00">4</text>
</g>
<!-- 6 -->
<g id="node6" class="node">
<title>6</title>
<ellipse fill="none" stroke="black" cx="609" cy="-239" rx="27" ry="18"/>
<text text-anchor="middle" x="609" y="-235.3" font-family="Helvetica,Arial,sans-serif" font-size="14.00">6</text>
</g>
<!-- 3&#45;&gt;6 -->
<g id="edge10" class="edge">
<title>3&#45;&gt;6</title>
<path fill="none" stroke="black" d="M152.16,-281.47C180.65,-282.95 227.54,-285 268,-285 268,-285 268,-285 512,-285 538.01,-285 564.43,-271.1 582.95,-258.58"/>
<polygon fill="black" stroke="black" points="584.98,-261.43 591.12,-252.8 580.94,-255.72 584.98,-261.43"/>
<text text-anchor="middle" x="367" y="-288.8" font-family="Helvetica,Arial,sans-serif" font-size="14.00">2</text>
</g>
<!-- 8 -->
<g id="node10" class="node">
<title>8</title>
<ellipse fill="none" stroke="black" cx="269" cy="-183" rx="27" ry="18"/>
<text text-anchor="middle" x="269" y="-179.3" font-family="Helvetica,Arial,sans-serif" font-size="14.00">8</text>
</g>
<!-- 3&#45;&gt;8 -->
<g id="edge11" class="edge">
<title>3&#45;&gt;8</title>
<path fill="none" stroke="black" d="M144.56,-267.32C169.12,-250.54 212.59,-220.85 240.84,-201.56"/>
<polygon fill="black" stroke="black" points="243.15,-204.21 249.43,-195.68 239.2,-198.43 243.15,-204.21"/>
<text text-anchor="middle" x="197" y="-251.8" font-family="Helvetica,Arial,sans-serif" font-size="14.00">2</text>
</g>
<!-- 5 -->
<g id="node7" class="node">
<title>5</title>
<ellipse fill="none" stroke="black" cx="367" cy="-71" rx="27" ry="18"/>
<text text-anchor="middle" x="367" y="-67.3" font-family="Helvetica,Arial,sans-serif" font-size="14.00">5</text>
</g>
<!-- 2&#45;&gt;5 -->
<g id="edge8" class="edge">
<title>2&#45;&gt;5</title>
<path fill="none" stroke="black" d="M223.15,-96.51C251.73,-91.41 298.57,-83.04 330.78,-77.29"/>
<polygon fill="black" stroke="black" points="331.45,-80.73 340.68,-75.52 330.22,-73.83 331.45,-80.73"/>
<text text-anchor="middle" x="269" y="-96.8" font-family="Helvetica,Arial,sans-serif" font-size="14.00">2</text>
</g>
<!-- 4 -->
<g id="node5" class="node">
<title>4</title>
<ellipse fill="none" stroke="black" cx="439" cy="-132" rx="27" ry="18"/>
<text text-anchor="middle" x="439" y="-128.3" font-family="Helvetica,Arial,sans-serif" font-size="14.00">4</text>
</g>
<!-- 1&#45;&gt;4 -->
<g id="edge4" class="edge">
<title>1&#45;&gt;4</title>
<path fill="none" stroke="black" d="M285.67,-222.73C289.37,-218.85 293.09,-214.47 296,-210 307.53,-192.3 298.19,-180.01 314,-166 338.12,-144.63 374.46,-136.55 401.57,-133.57"/>
<polygon fill="black" stroke="black" points="402.19,-137.03 411.83,-132.63 401.55,-130.05 402.19,-137.03"/>
<text text-anchor="middle" x="318" y="-169.8" font-family="Helvetica,Arial,sans-serif" font-size="14.00">2</text>
</g>
<!-- 1&#45;&gt;6 -->
<g id="edge5" class="edge">
<title>1&#45;&gt;6</title>
<path fill="none" stroke="black" d="M296.24,-237.16C356.02,-237.51 502.44,-238.38 571.2,-238.78"/>
<polygon fill="black" stroke="black" points="571.52,-242.28 581.54,-238.84 571.56,-235.28 571.52,-242.28"/>
<text text-anchor="middle" x="439" y="-241.8" font-family="Helvetica,Arial,sans-serif" font-size="14.00">2</text>
</g>
<!-- 1&#45;&gt;5 -->
<g id="edge6" class="edge">
<title>1&#45;&gt;5</title>
<path fill="none" stroke="black" d="M286.38,-223.14C290.07,-219.25 293.6,-214.77 296,-210 317.69,-166.93 287.05,-142.99 314,-103 319.12,-95.4 326.71,-89.28 334.53,-84.51"/>
<polygon fill="black" stroke="black" points="336.23,-87.57 343.32,-79.7 332.87,-81.43 336.23,-87.57"/>
<text text-anchor="middle" x="318" y="-106.8" font-family="Helvetica,Arial,sans-serif" font-size="14.00">2</text>
</g>
<!-- 10 -->
<g id="node8" class="node">
<title>10</title>
<ellipse fill="none" stroke="black" cx="609" cy="-88" rx="27" ry="18"/>
<text text-anchor="middle" x="609" y="-84.3" font-family="Helvetica,Arial,sans-serif" font-size="14.00">10</text>
</g>
<!-- 4&#45;&gt;10 -->
<g id="edge7" class="edge">
<title>4&#45;&gt;10</title>
<path fill="none" stroke="black" d="M464.43,-125.6C493.17,-118.07 541.08,-105.53 573.58,-97.02"/>
<polygon fill="black" stroke="black" points="574.75,-100.33 583.54,-94.41 572.98,-93.55 574.75,-100.33"/>
<text text-anchor="middle" x="511" y="-124.8" font-family="Helvetica,Arial,sans-serif" font-size="14.00">2</text>
</g>
<!-- 5&#45;&gt;10 -->
<g id="edge18" class="edge">
<title>5&#45;&gt;10</title>
<path fill="none" stroke="black" d="M394.14,-72.85C437.15,-75.9 522.93,-81.97 571.77,-85.43"/>
<polygon fill="black" stroke="black" points="571.67,-88.94 581.89,-86.15 572.16,-81.95 571.67,-88.94"/>
<text text-anchor="middle" x="511" y="-86.8" font-family="Helvetica,Arial,sans-serif" font-size="14.00">1</text>
</g>
<!-- 7 -->
<g id="node13" class="node">
<title>7</title>
<ellipse fill="none" stroke="black" cx="511" cy="-18" rx="27" ry="18"/>
<text text-anchor="middle" x="511" y="-14.3" font-family="Helvetica,Arial,sans-serif" font-size="14.00">7</text>
</g>
<!-- 5&#45;&gt;7 -->
<g id="edge19" class="edge">
<title>5&#45;&gt;7</title>
<path fill="none" stroke="black" d="M385.69,-57.92C393.45,-52.68 402.86,-46.95 412,-43 431.99,-34.35 455.61,-28.22 474.66,-24.19"/>
<polygon fill="black" stroke="black" points="475.6,-27.57 484.71,-22.16 474.22,-20.71 475.6,-27.57"/>
<text text-anchor="middle" x="439" y="-46.8" font-family="Helvetica,Arial,sans-serif" font-size="14.00">1</text>
</g>
<!-- 12 -->
<g id="node9" class="node">
<title>12</title>
<ellipse fill="none" stroke="black" cx="707" cy="-50" rx="27" ry="18"/>
<text text-anchor="middle" x="707" y="-46.3" font-family="Helvetica,Arial,sans-serif" font-size="14.00">12</text>
</g>
<!-- 10&#45;&gt;12 -->
<g id="edge14" class="edge">
<title>10&#45;&gt;12</title>
<path fill="none" stroke="black" d="M632.75,-78.99C645.06,-74.12 660.48,-68.02 673.99,-62.67"/>
<polygon fill="black" stroke="black" points="675.4,-65.88 683.41,-58.94 672.83,-59.37 675.4,-65.88"/>
<text text-anchor="middle" x="658" y="-74.8" font-family="Helvetica,Arial,sans-serif" font-size="14.00">4</text>
</g>
<!-- 9 -->
<g id="node12" class="node">
<title>9</title>
<ellipse fill="none" stroke="black" cx="511" cy="-177" rx="27" ry="18"/>
<text text-anchor="middle" x="511" y="-173.3" font-family="Helvetica,Arial,sans-serif" font-size="14.00">9</text>
</g>
<!-- 10&#45;&gt;9 -->
<g id="edge15" class="edge">
<title>10&#45;&gt;9</title>
<path fill="none" stroke="black" d="M591.42,-102.3C581.11,-111.27 567.65,-123.17 556,-134 548.76,-140.73 541.01,-148.21 534.06,-155.02"/>
<polygon fill="black" stroke="black" points="531.56,-152.57 526.89,-162.09 536.47,-157.56 531.56,-152.57"/>
<text text-anchor="middle" x="560" y="-137.8" font-family="Helvetica,Arial,sans-serif" font-size="14.00">2</text>
</g>
<!-- 12&#45;&gt;10 -->
<g id="edge9" class="edge">
<title>12&#45;&gt;10</title>
<path fill="none" stroke="black" d="M680.23,-47.11C671.65,-47.03 662.2,-47.92 654,-51 645.54,-54.18 637.56,-59.74 630.77,-65.6"/>
<polygon fill="black" stroke="black" points="628.32,-63.1 623.41,-72.49 633.1,-68.21 628.32,-63.1"/>
<text text-anchor="middle" x="658" y="-54.8" font-family="Helvetica,Arial,sans-serif" font-size="14.00">2</text>
</g>
<!-- 11 -->
<g id="node11" class="node">
<title>11</title>
<ellipse fill="none" stroke="black" cx="367" cy="-186" rx="27" ry="18"/>
<text text-anchor="middle" x="367" y="-182.3" font-family="Helvetica,Arial,sans-serif" font-size="14.00">11</text>
</g>
<!-- 8&#45;&gt;11 -->
<g id="edge12" class="edge">
<title>8&#45;&gt;11</title>
<path fill="none" stroke="black" d="M295.98,-183.81C306.44,-184.14 318.68,-184.52 329.97,-184.87"/>
<polygon fill="black" stroke="black" points="329.9,-188.37 340,-185.19 330.11,-181.38 329.9,-188.37"/>
<text text-anchor="middle" x="318" y="-188.8" font-family="Helvetica,Arial,sans-serif" font-size="14.00">2</text>
</g>
<!-- 11&#45;&gt;9 -->
<g id="edge13" class="edge">
<title>11&#45;&gt;9</title>
<path fill="none" stroke="black" d="M394.04,-184.35C416.32,-182.94 448.63,-180.89 473.49,-179.31"/>
<polygon fill="black" stroke="black" points="473.88,-182.8 483.64,-178.67 473.44,-175.81 473.88,-182.8"/>
<text text-anchor="middle" x="439" y="-187.8" font-family="Helvetica,Arial,sans-serif" font-size="14.00">2</text>
</g>
<!-- 9&#45;&gt;6 -->
<g id="edge16" class="edge">
<title>9&#45;&gt;6</title>
<path fill="none" stroke="black" d="M531.31,-189.15C541.13,-195.35 553.23,-203.03 564,-210 569.44,-213.52 575.25,-217.32 580.79,-220.96"/>
<polygon fill="black" stroke="black" points="578.93,-223.93 589.2,-226.51 582.78,-218.08 578.93,-223.93"/>
<text text-anchor="middle" x="560" y="-213.8" font-family="Helvetica,Arial,sans-serif" font-size="14.00">2</text>
</g>
<!-- 9&#45;&gt;10 -->
<g id="edge17" class="edge">
<title>9&#45;&gt;10</title>
<path fill="none" stroke="black" d="M534.4,-167.7C544.14,-162.99 555.29,-156.64 564,-149 575.5,-138.91 585.69,-125.29 593.36,-113.47"/>
<polygon fill="black" stroke="black" points="596.4,-115.21 598.71,-104.88 590.45,-111.51 596.4,-115.21"/>
<text text-anchor="middle" x="560" y="-158.8" font-family="Helvetica,Arial,sans-serif" font-size="14.00">2</text>
</g>
<!-- 7&#45;&gt;10 -->
<g id="edge21" class="edge">
<title>7&#45;&gt;10</title>
<path fill="none" stroke="black" d="M534.71,-26.85C544.19,-31.06 555.05,-36.58 564,-43 572.61,-49.17 581,-57.13 588.12,-64.62"/>
<polygon fill="black" stroke="black" points="585.95,-67.44 595.28,-72.47 591.12,-62.73 585.95,-67.44"/>
<text text-anchor="middle" x="560" y="-46.8" font-family="Helvetica,Arial,sans-serif" font-size="14.00">1</text>
</g>
<!-- 7&#45;&gt;12 -->
<g id="edge20" class="edge">
<title>7&#45;&gt;12</title>
<path fill="none" stroke="black" d="M537.36,-22.18C571.35,-27.79 631.84,-37.77 670.38,-44.12"/>
<polygon fill="black" stroke="black" points="670.2,-47.64 680.63,-45.82 671.33,-40.73 670.2,-47.64"/>
<text text-anchor="middle" x="609" y="-42.8" font-family="Helvetica,Arial,sans-serif" font-size="14.00">2</text>
</g>
</g>
</svg>
