<?xml version="1.0" encoding="UTF-8" standalone="no"?>
<!DOCTYPE svg PUBLIC "-//W3C//DTD SVG 1.1//EN"
 "http://www.w3.org/Graphics/SVG/1.1/DTD/svg11.dtd">
<!-- Generated by graphviz version 2.43.0 (0)
 -->
<!-- Title: create_graph Pages: 1 -->
<svg width="419pt" height="148pt"
 viewBox="0.00 0.00 419.00 148.00" xmlns="http://www.w3.org/2000/svg" xmlns:xlink="http://www.w3.org/1999/xlink">
<g id="graph0" class="graph" transform="scale(1 1) rotate(0) translate(4 144)">
<title>create_graph</title>
<polygon fill="white" stroke="transparent" points="-4,4 -4,-144 415,-144 415,4 -4,4"/>
<!-- 4 -->
<g id="node1" class="node">
<title>4</title>
<ellipse fill="none" stroke="black" cx="27" cy="-102" rx="27" ry="18"/>
<text text-anchor="middle" x="27" y="-98.3" font-family="Helvetica,Arial,sans-serif" font-size="14.00">4</text>
</g>
<!-- 1 -->
<g id="node2" class="node">
<title>1</title>
<ellipse fill="none" stroke="black" cx="151" cy="-52" rx="27" ry="18"/>
<text text-anchor="middle" x="151" y="-48.3" font-family="Helvetica,Arial,sans-serif" font-size="14.00">1</text>
</g>
<!-- 4&#45;&gt;1 -->
<g id="edge1" class="edge">
<title>4&#45;&gt;1</title>
<path fill="none" stroke="black" d="M45.66,-88.49C53.41,-83.06 62.82,-77.13 72,-73 85.45,-66.95 101.02,-62.32 114.69,-58.97"/>
<polygon fill="black" stroke="black" points="115.75,-62.32 124.71,-56.66 114.18,-55.5 115.75,-62.32"/>
<text text-anchor="middle" x="89" y="-76.8" font-family="Helvetica,Arial,sans-serif" font-size="14.00">0/5</text>
</g>
<!-- 5 -->
<g id="node3" class="node">
<title>5</title>
<ellipse fill="none" stroke="black" cx="384" cy="-114" rx="27" ry="18"/>
<text text-anchor="middle" x="384" y="-110.3" font-family="Helvetica,Arial,sans-serif" font-size="14.00">5</text>
</g>
<!-- 4&#45;&gt;5 -->
<g id="edge2" class="edge">
<title>4&#45;&gt;5</title>
<path fill="none" stroke="black" d="M50.98,-110.7C57.66,-112.85 65.04,-114.86 72,-116 170.57,-132.12 289.08,-123.9 347.24,-118.1"/>
<polygon fill="black" stroke="black" points="347.79,-121.56 357.38,-117.05 347.07,-114.6 347.79,-121.56"/>
<text text-anchor="middle" x="213" y="-128.8" font-family="Helvetica,Arial,sans-serif" font-size="14.00">7/10</text>
</g>
<!-- 2 -->
<g id="node4" class="node">
<title>2</title>
<ellipse fill="none" stroke="black" cx="275" cy="-52" rx="27" ry="18"/>
<text text-anchor="middle" x="275" y="-48.3" font-family="Helvetica,Arial,sans-serif" font-size="14.00">2</text>
</g>
<!-- 1&#45;&gt;2 -->
<g id="edge8" class="edge">
<title>1&#45;&gt;2</title>
<path fill="none" stroke="black" d="M178.17,-52C195.54,-52 218.57,-52 237.7,-52"/>
<polygon fill="black" stroke="black" points="237.87,-55.5 247.87,-52 237.87,-48.5 237.87,-55.5"/>
<text text-anchor="middle" x="213" y="-55.8" font-family="Helvetica,Arial,sans-serif" font-size="14.00">10/12</text>
</g>
<!-- 2&#45;&gt;5 -->
<g id="edge4" class="edge">
<title>2&#45;&gt;5</title>
<path fill="none" stroke="black" d="M295.88,-63.52C312.21,-72.98 335.59,-86.53 354.01,-97.2"/>
<polygon fill="black" stroke="black" points="352.46,-100.35 362.87,-102.33 355.97,-94.29 352.46,-100.35"/>
<text text-anchor="middle" x="329.5" y="-89.8" font-family="Helvetica,Arial,sans-serif" font-size="14.00">7/7</text>
</g>
<!-- 3 -->
<g id="node5" class="node">
<title>3</title>
<ellipse fill="none" stroke="black" cx="384" cy="-34" rx="27" ry="18"/>
<text text-anchor="middle" x="384" y="-30.3" font-family="Helvetica,Arial,sans-serif" font-size="14.00">3</text>
</g>
<!-- 2&#45;&gt;3 -->
<g id="edge3" class="edge">
<title>2&#45;&gt;3</title>
<path fill="none" stroke="black" d="M297.48,-41.96C304.5,-39.15 312.44,-36.47 320,-35 328.64,-33.32 338.08,-32.59 346.96,-32.39"/>
<polygon fill="black" stroke="black" points="347.05,-35.89 357.04,-32.37 347.03,-28.89 347.05,-35.89"/>
<text text-anchor="middle" x="329.5" y="-38.8" font-family="Helvetica,Arial,sans-serif" font-size="14.00">3/3</text>
</g>
<!-- 3&#45;&gt;4 -->
<g id="edge5" class="edge">
<title>3&#45;&gt;4</title>
<path fill="none" stroke="black" d="M374.35,-50.95C366.87,-63.62 354.77,-80.07 339,-88 315.02,-100.06 140.98,-101.83 64.21,-102.02"/>
<polygon fill="black" stroke="black" points="64.05,-98.52 54.05,-102.04 64.06,-105.52 64.05,-98.52"/>
<text text-anchor="middle" x="213" y="-103.8" font-family="Helvetica,Arial,sans-serif" font-size="14.00">7/10</text>
</g>
<!-- 0 -->
<g id="node6" class="node">
<title>0</title>
<ellipse fill="none" stroke="black" cx="27" cy="-18" rx="27" ry="18"/>
<text text-anchor="middle" x="27" y="-14.3" font-family="Helvetica,Arial,sans-serif" font-size="14.00">0</text>
</g>
<!-- 0&#45;&gt;1 -->
<g id="edge7" class="edge">
<title>0&#45;&gt;1</title>
<path fill="none" stroke="black" d="M53.19,-22.47C68.59,-25.45 88.61,-29.78 106,-35 110.06,-36.22 114.27,-37.64 118.42,-39.13"/>
<polygon fill="black" stroke="black" points="117.26,-42.43 127.85,-42.68 119.72,-35.88 117.26,-42.43"/>
<text text-anchor="middle" x="89" y="-38.8" font-family="Helvetica,Arial,sans-serif" font-size="14.00">10/15</text>
</g>
<!-- 0&#45;&gt;3 -->
<g id="edge6" class="edge">
<title>0&#45;&gt;3</title>
<path fill="none" stroke="black" d="M54.09,-18.19C102.82,-18.64 211,-20.15 302,-25 318.48,-25.88 322.6,-26.22 339,-28 341.71,-28.29 344.51,-28.62 347.32,-28.97"/>
<polygon fill="black" stroke="black" points="347.07,-32.46 357.44,-30.27 347.97,-25.52 347.07,-32.46"/>
<text text-anchor="middle" x="213" y="-24.8" font-family="Helvetica,Arial,sans-serif" font-size="14.00">4/4</text>
</g>
</g>
</svg>
