<?xml version="1.0" encoding="UTF-8" standalone="no"?>
<!DOCTYPE svg PUBLIC "-//W3C//DTD SVG 1.1//EN"
 "http://www.w3.org/Graphics/SVG/1.1/DTD/svg11.dtd">
<!-- Generated by graphviz version 2.43.0 (0)
 -->
<!-- Title: create_graph Pages: 1 -->
<svg width="364pt" height="194pt"
 viewBox="0.00 0.00 364.00 194.18" xmlns="http://www.w3.org/2000/svg" xmlns:xlink="http://www.w3.org/1999/xlink">
<g id="graph0" class="graph" transform="scale(1 1) rotate(0) translate(4 190.18)">
<title>create_graph</title>
<polygon fill="white" stroke="transparent" points="-4,4 -4,-190.18 360,-190.18 360,4 -4,4"/>
<!-- 1 -->
<g id="node1" class="node">
<title>1</title>
<ellipse fill="none" stroke="black" cx="223" cy="-101.18" rx="27" ry="18"/>
<text text-anchor="middle" x="223" y="-97.48" font-family="Helvetica,Arial,sans-serif" font-size="14.00">1</text>
</g>
<!-- 2 -->
<g id="node2" class="node">
<title>2</title>
<ellipse fill="none" stroke="black" cx="329" cy="-35.18" rx="27" ry="18"/>
<text text-anchor="middle" x="329" y="-31.48" font-family="Helvetica,Arial,sans-serif" font-size="14.00">2</text>
</g>
<!-- 1&#45;&gt;2 -->
<g id="edge1" class="edge">
<title>1&#45;&gt;2</title>
<path fill="none" stroke="black" d="M235.93,-85.2C244.02,-75.34 255.49,-63.1 268,-55.18 275.75,-50.27 284.83,-46.44 293.55,-43.5"/>
<polygon fill="black" stroke="black" points="294.62,-46.83 303.15,-40.55 292.57,-40.14 294.62,-46.83"/>
<text text-anchor="middle" x="276" y="-58.98" font-family="Helvetica,Arial,sans-serif" font-size="14.00">2</text>
</g>
<!-- 0 -->
<g id="node3" class="node">
<title>0</title>
<ellipse fill="none" stroke="black" cx="329" cy="-168.18" rx="27" ry="18"/>
<text text-anchor="middle" x="329" y="-164.48" font-family="Helvetica,Arial,sans-serif" font-size="14.00">0</text>
</g>
<!-- 1&#45;&gt;0 -->
<g id="edge2" class="edge">
<title>1&#45;&gt;0</title>
<path fill="none" stroke="black" d="M236.44,-117.11C244.57,-126.63 255.89,-138.35 268,-146.18 275.85,-151.26 285.04,-155.38 293.83,-158.62"/>
<polygon fill="black" stroke="black" points="292.9,-162 303.49,-161.91 295.15,-155.37 292.9,-162"/>
<text text-anchor="middle" x="276" y="-157.98" font-family="Helvetica,Arial,sans-serif" font-size="14.00">10</text>
</g>
<!-- 2&#45;&gt;1 -->
<g id="edge9" class="edge">
<title>2&#45;&gt;1</title>
<path fill="none" stroke="black" d="M311.86,-49.27C303.77,-56 293.67,-63.92 284,-70.18 274.85,-76.1 264.42,-81.82 254.86,-86.69"/>
<polygon fill="black" stroke="black" points="253.07,-83.67 245.67,-91.25 256.18,-89.94 253.07,-83.67"/>
<text text-anchor="middle" x="276" y="-82.98" font-family="Helvetica,Arial,sans-serif" font-size="14.00">10</text>
</g>
<!-- 0&#45;&gt;1 -->
<g id="edge3" class="edge">
<title>0&#45;&gt;1</title>
<path fill="none" stroke="black" d="M314,-152.77C305.84,-144.43 295.01,-134.38 284,-127.18 275.7,-121.75 266.07,-116.99 256.99,-113.09"/>
<polygon fill="black" stroke="black" points="258.03,-109.73 247.45,-109.19 255.38,-116.21 258.03,-109.73"/>
<text text-anchor="middle" x="276" y="-130.98" font-family="Helvetica,Arial,sans-serif" font-size="14.00">5</text>
</g>
<!-- 4 -->
<g id="node4" class="node">
<title>4</title>
<ellipse fill="none" stroke="black" cx="125" cy="-63.18" rx="27" ry="18"/>
<text text-anchor="middle" x="125" y="-59.48" font-family="Helvetica,Arial,sans-serif" font-size="14.00">4</text>
</g>
<!-- 4&#45;&gt;1 -->
<g id="edge6" class="edge">
<title>4&#45;&gt;1</title>
<path fill="none" stroke="black" d="M148.75,-72.19C161.06,-77.06 176.48,-83.16 189.99,-88.51"/>
<polygon fill="black" stroke="black" points="188.83,-91.81 199.41,-92.24 191.4,-85.3 188.83,-91.81"/>
<text text-anchor="middle" x="174" y="-86.98" font-family="Helvetica,Arial,sans-serif" font-size="14.00">5</text>
</g>
<!-- 3 -->
<g id="node5" class="node">
<title>3</title>
<ellipse fill="none" stroke="black" cx="27" cy="-63.18" rx="27" ry="18"/>
<text text-anchor="middle" x="27" y="-59.48" font-family="Helvetica,Arial,sans-serif" font-size="14.00">3</text>
</g>
<!-- 4&#45;&gt;3 -->
<g id="edge4" class="edge">
<title>4&#45;&gt;3</title>
<path fill="none" stroke="black" d="M97.8,-63.18C87.54,-63.18 75.59,-63.18 64.51,-63.18"/>
<polygon fill="black" stroke="black" points="64.23,-59.68 54.23,-63.18 64.23,-66.68 64.23,-59.68"/>
<text text-anchor="middle" x="76" y="-66.98" font-family="Helvetica,Arial,sans-serif" font-size="14.00">7</text>
</g>
<!-- 5 -->
<g id="node6" class="node">
<title>5</title>
<ellipse fill="none" stroke="black" cx="223" cy="-29.18" rx="27" ry="18"/>
<text text-anchor="middle" x="223" y="-25.48" font-family="Helvetica,Arial,sans-serif" font-size="14.00">5</text>
</g>
<!-- 4&#45;&gt;5 -->
<g id="edge5" class="edge">
<title>4&#45;&gt;5</title>
<path fill="none" stroke="black" d="M139.38,-47.58C147.34,-39.52 158.18,-30.49 170,-26.18 175.31,-24.24 181.13,-23.43 186.89,-23.31"/>
<polygon fill="black" stroke="black" points="186.93,-26.82 197.07,-23.75 187.23,-19.82 186.93,-26.82"/>
<text text-anchor="middle" x="174" y="-29.98" font-family="Helvetica,Arial,sans-serif" font-size="14.00">3</text>
</g>
<!-- 3&#45;&gt;2 -->
<g id="edge12" class="edge">
<title>3&#45;&gt;2</title>
<path fill="none" stroke="black" d="M47.87,-51.73C86.32,-30.93 173.8,9.84 250,-2.18 266.88,-4.84 284.5,-11.89 298.72,-18.78"/>
<polygon fill="black" stroke="black" points="297.46,-22.07 307.96,-23.48 300.63,-15.83 297.46,-22.07"/>
<text text-anchor="middle" x="174" y="-9.98" font-family="Helvetica,Arial,sans-serif" font-size="14.00">3</text>
</g>
<!-- 3&#45;&gt;0 -->
<g id="edge10" class="edge">
<title>3&#45;&gt;0</title>
<path fill="none" stroke="black" d="M47.21,-75.51C86.65,-100 180.45,-154.07 268,-173.18 275.97,-174.92 284.66,-175.13 292.88,-174.59"/>
<polygon fill="black" stroke="black" points="293.38,-178.06 302.97,-173.56 292.66,-171.1 293.38,-178.06"/>
<text text-anchor="middle" x="174" y="-145.98" font-family="Helvetica,Arial,sans-serif" font-size="14.00">4</text>
</g>
<!-- 3&#45;&gt;4 -->
<g id="edge11" class="edge">
<title>3&#45;&gt;4</title>
<path fill="none" stroke="black" d="M46.87,-50.81C56.57,-45.87 68.7,-41.85 80,-44.18 84.52,-45.11 89.15,-46.54 93.63,-48.19"/>
<polygon fill="black" stroke="black" points="92.51,-51.52 103.09,-52.09 95.17,-45.04 92.51,-51.52"/>
<text text-anchor="middle" x="76" y="-47.98" font-family="Helvetica,Arial,sans-serif" font-size="14.00">3</text>
</g>
<!-- 5&#45;&gt;2 -->
<g id="edge7" class="edge">
<title>5&#45;&gt;2</title>
<path fill="none" stroke="black" d="M246.79,-20.37C257.99,-17.12 271.7,-14.76 284,-17.18 288.49,-18.06 293.11,-19.41 297.58,-20.98"/>
<polygon fill="black" stroke="black" points="296.44,-24.29 307.03,-24.67 298.99,-17.77 296.44,-24.29"/>
<text text-anchor="middle" x="276" y="-20.98" font-family="Helvetica,Arial,sans-serif" font-size="14.00">7</text>
</g>
<!-- 5&#45;&gt;4 -->
<g id="edge8" class="edge">
<title>5&#45;&gt;4</title>
<path fill="none" stroke="black" d="M198.64,-37.45C186.68,-41.69 171.93,-46.91 158.84,-51.55"/>
<polygon fill="black" stroke="black" points="157.5,-48.31 149.24,-54.95 159.83,-54.91 157.5,-48.31"/>
<text text-anchor="middle" x="174" y="-51.98" font-family="Helvetica,Arial,sans-serif" font-size="14.00">7</text>
</g>
</g>
</svg>
