<?xml version="1.0" encoding="UTF-8" standalone="no"?>
<!DOCTYPE svg PUBLIC "-//W3C//DTD SVG 1.1//EN"
 "http://www.w3.org/Graphics/SVG/1.1/DTD/svg11.dtd">
<!-- Generated by graphviz version 2.43.0 (0)
 -->
<!-- Title: create_graph Pages: 1 -->
<svg width="372pt" height="242pt"
 viewBox="0.00 0.00 372.00 242.00" xmlns="http://www.w3.org/2000/svg" xmlns:xlink="http://www.w3.org/1999/xlink">
<g id="graph0" class="graph" transform="scale(1 1) rotate(0) translate(4 238)">
<title>create_graph</title>
<polygon fill="white" stroke="transparent" points="-4,4 -4,-238 368,-238 368,4 -4,4"/>
<!-- 4 -->
<g id="node1" class="node">
<title>4</title>
<ellipse fill="none" stroke="black" cx="27" cy="-107" rx="27" ry="18"/>
<text text-anchor="middle" x="27" y="-103.3" font-family="Helvetica,Arial,sans-serif" font-size="14.00">4</text>
</g>
<!-- 5 -->
<g id="node2" class="node">
<title>5</title>
<ellipse fill="none" stroke="black" cx="239" cy="-178" rx="27" ry="18"/>
<text text-anchor="middle" x="239" y="-174.3" font-family="Helvetica,Arial,sans-serif" font-size="14.00">5</text>
</g>
<!-- 4&#45;&gt;5 -->
<g id="edge1" class="edge">
<title>4&#45;&gt;5</title>
<path fill="none" stroke="black" d="M49.83,-116.71C56.88,-119.77 64.74,-123.1 72,-126 118.62,-144.62 129.8,-150.98 178,-165 185.92,-167.3 194.53,-169.4 202.69,-171.21"/>
<polygon fill="black" stroke="black" points="202.19,-174.68 212.7,-173.33 203.64,-167.83 202.19,-174.68"/>
<text text-anchor="middle" x="133" y="-162.8" font-family="Helvetica,Arial,sans-serif" font-size="14.00">14</text>
</g>
<!-- 1 -->
<g id="node3" class="node">
<title>1</title>
<ellipse fill="none" stroke="black" cx="133" cy="-107" rx="27" ry="18"/>
<text text-anchor="middle" x="133" y="-103.3" font-family="Helvetica,Arial,sans-serif" font-size="14.00">1</text>
</g>
<!-- 4&#45;&gt;1 -->
<g id="edge2" class="edge">
<title>4&#45;&gt;1</title>
<path fill="none" stroke="black" d="M54.24,-107C66.81,-107 82.05,-107 95.71,-107"/>
<polygon fill="black" stroke="black" points="95.76,-110.5 105.76,-107 95.76,-103.5 95.76,-110.5"/>
<text text-anchor="middle" x="80" y="-110.8" font-family="Helvetica,Arial,sans-serif" font-size="14.00">1</text>
</g>
<!-- 3 -->
<g id="node4" class="node">
<title>3</title>
<ellipse fill="none" stroke="black" cx="337" cy="-92" rx="27" ry="18"/>
<text text-anchor="middle" x="337" y="-88.3" font-family="Helvetica,Arial,sans-serif" font-size="14.00">3</text>
</g>
<!-- 4&#45;&gt;3 -->
<g id="edge3" class="edge">
<title>4&#45;&gt;3</title>
<path fill="none" stroke="black" d="M41,-122.7C55.28,-138.93 79.72,-163.85 106,-178 169.5,-212.19 202.99,-240.09 266,-205 298.54,-186.88 317.87,-146.7 327.72,-119.47"/>
<polygon fill="black" stroke="black" points="331.12,-120.34 331.03,-109.75 324.49,-118.08 331.12,-120.34"/>
<text text-anchor="middle" x="186" y="-222.8" font-family="Helvetica,Arial,sans-serif" font-size="14.00">5</text>
</g>
<!-- 2 -->
<g id="node5" class="node">
<title>2</title>
<ellipse fill="none" stroke="black" cx="133" cy="-18" rx="27" ry="18"/>
<text text-anchor="middle" x="133" y="-14.3" font-family="Helvetica,Arial,sans-serif" font-size="14.00">2</text>
</g>
<!-- 4&#45;&gt;2 -->
<g id="edge4" class="edge">
<title>4&#45;&gt;2</title>
<path fill="none" stroke="black" d="M33.26,-89.38C39.52,-71.55 51.77,-44.58 72,-30 78.92,-25.01 87.41,-21.97 95.8,-20.15"/>
<polygon fill="black" stroke="black" points="96.57,-23.57 105.87,-18.48 95.43,-16.66 96.57,-23.57"/>
<text text-anchor="middle" x="80" y="-33.8" font-family="Helvetica,Arial,sans-serif" font-size="14.00">10</text>
</g>
<!-- 1&#45;&gt;5 -->
<g id="edge8" class="edge">
<title>1&#45;&gt;5</title>
<path fill="none" stroke="black" d="M152.59,-119.69C168.86,-130.8 192.69,-147.07 211.05,-159.6"/>
<polygon fill="black" stroke="black" points="209.34,-162.67 219.57,-165.42 213.28,-156.89 209.34,-162.67"/>
<text text-anchor="middle" x="186" y="-149.8" font-family="Helvetica,Arial,sans-serif" font-size="14.00">21</text>
</g>
<!-- 0 -->
<g id="node6" class="node">
<title>0</title>
<ellipse fill="none" stroke="black" cx="239" cy="-54" rx="27" ry="18"/>
<text text-anchor="middle" x="239" y="-50.3" font-family="Helvetica,Arial,sans-serif" font-size="14.00">0</text>
</g>
<!-- 1&#45;&gt;0 -->
<g id="edge9" class="edge">
<title>1&#45;&gt;0</title>
<path fill="none" stroke="black" d="M155.05,-96.27C170.27,-88.52 191.06,-77.92 208.02,-69.28"/>
<polygon fill="black" stroke="black" points="209.66,-72.37 216.99,-64.71 206.49,-66.13 209.66,-72.37"/>
<text text-anchor="middle" x="186" y="-86.8" font-family="Helvetica,Arial,sans-serif" font-size="14.00">1</text>
</g>
<!-- 3&#45;&gt;1 -->
<g id="edge10" class="edge">
<title>3&#45;&gt;1</title>
<path fill="none" stroke="black" d="M310.11,-93.92C274.55,-96.56 210.46,-101.32 170.18,-104.31"/>
<polygon fill="black" stroke="black" points="169.71,-100.84 159.99,-105.07 170.23,-107.82 169.71,-100.84"/>
<text text-anchor="middle" x="239" y="-103.8" font-family="Helvetica,Arial,sans-serif" font-size="14.00">11</text>
</g>
<!-- 3&#45;&gt;0 -->
<g id="edge11" class="edge">
<title>3&#45;&gt;0</title>
<path fill="none" stroke="black" d="M313.41,-83.06C301.13,-78.2 285.72,-72.1 272.19,-66.74"/>
<polygon fill="black" stroke="black" points="273.34,-63.43 262.75,-63.01 270.76,-69.94 273.34,-63.43"/>
<text text-anchor="middle" x="288" y="-77.8" font-family="Helvetica,Arial,sans-serif" font-size="14.00">7</text>
</g>
<!-- 2&#45;&gt;4 -->
<g id="edge6" class="edge">
<title>2&#45;&gt;4</title>
<path fill="none" stroke="black" d="M115.52,-32.1C98.44,-46.72 71.55,-69.73 52.09,-86.39"/>
<polygon fill="black" stroke="black" points="49.57,-83.93 44.25,-93.09 54.12,-89.25 49.57,-83.93"/>
<text text-anchor="middle" x="80" y="-70.8" font-family="Helvetica,Arial,sans-serif" font-size="14.00">2</text>
</g>
<!-- 2&#45;&gt;3 -->
<g id="edge5" class="edge">
<title>2&#45;&gt;3</title>
<path fill="none" stroke="black" d="M157.71,-10.54C185.18,-3.3 231.13,4.41 266,-12 290.25,-23.41 309.52,-47.62 321.65,-66.44"/>
<polygon fill="black" stroke="black" points="318.79,-68.48 327.02,-75.16 324.76,-64.81 318.79,-68.48"/>
<text text-anchor="middle" x="239" y="-15.8" font-family="Helvetica,Arial,sans-serif" font-size="14.00">2</text>
</g>
<!-- 2&#45;&gt;0 -->
<g id="edge7" class="edge">
<title>2&#45;&gt;0</title>
<path fill="none" stroke="black" d="M159.19,-13.61C170.18,-12.7 183.04,-13 194,-17 202.49,-20.1 210.48,-25.63 217.26,-31.49"/>
<polygon fill="black" stroke="black" points="214.94,-34.11 224.62,-38.4 219.73,-29 214.94,-34.11"/>
<text text-anchor="middle" x="186" y="-20.8" font-family="Helvetica,Arial,sans-serif" font-size="14.00">8</text>
</g>
<!-- 0&#45;&gt;1 -->
<g id="edge12" class="edge">
<title>0&#45;&gt;1</title>
<path fill="none" stroke="black" d="M212.09,-51.52C201.08,-51.5 188.42,-52.93 178,-58 166.98,-63.36 157.47,-72.82 150.15,-82.01"/>
<polygon fill="black" stroke="black" points="147.19,-80.13 144.05,-90.25 152.81,-84.29 147.19,-80.13"/>
<text text-anchor="middle" x="186" y="-61.8" font-family="Helvetica,Arial,sans-serif" font-size="14.00">6</text>
</g>
<!-- 0&#45;&gt;3 -->
<g id="edge13" class="edge">
<title>0&#45;&gt;3</title>
<path fill="none" stroke="black" d="M265.01,-49.05C273.8,-48.33 283.57,-48.74 292,-52 301.19,-55.55 309.65,-62.02 316.64,-68.73"/>
<polygon fill="black" stroke="black" points="314.16,-71.2 323.61,-75.99 319.2,-66.35 314.16,-71.2"/>
<text text-anchor="middle" x="288" y="-55.8" font-family="Helvetica,Arial,sans-serif" font-size="14.00">3</text>
</g>
</g>
</svg>
