<?xml version="1.0" encoding="UTF-8" standalone="no"?>
<!DOCTYPE svg PUBLIC "-//W3C//DTD SVG 1.1//EN"
 "http://www.w3.org/Graphics/SVG/1.1/DTD/svg11.dtd">
<!-- Generated by graphviz version 2.43.0 (0)
 -->
<!-- Title: create_graph Pages: 1 -->
<svg width="698pt" height="289pt"
 viewBox="0.00 0.00 698.00 289.00" xmlns="http://www.w3.org/2000/svg" xmlns:xlink="http://www.w3.org/1999/xlink">
<g id="graph0" class="graph" transform="scale(1 1) rotate(0) translate(4 285)">
<title>create_graph</title>
<polygon fill="white" stroke="transparent" points="-4,4 -4,-285 694,-285 694,4 -4,4"/>
<!-- 4 -->
<g id="node1" class="node">
<title>4</title>
<ellipse fill="none" stroke="black" cx="239" cy="-68" rx="27" ry="18"/>
<text text-anchor="middle" x="239" y="-64.3" font-family="Helvetica,Arial,sans-serif" font-size="14.00">4</text>
</g>
<!-- 2 -->
<g id="node2" class="node">
<title>2</title>
<ellipse fill="none" stroke="black" cx="345" cy="-185" rx="27" ry="18"/>
<text text-anchor="middle" x="345" y="-181.3" font-family="Helvetica,Arial,sans-serif" font-size="14.00">2</text>
</g>
<!-- 4&#45;&gt;2 -->
<g id="edge1" class="edge">
<title>4&#45;&gt;2</title>
<path fill="none" stroke="black" d="M262.57,-77.03C274.78,-82.78 289.48,-91.18 300,-102 315.4,-117.84 326.82,-140.14 334.16,-157.64"/>
<polygon fill="black" stroke="black" points="331.06,-159.31 338.01,-167.31 337.56,-156.72 331.06,-159.31"/>
<text text-anchor="middle" x="292" y="-105.8" font-family="Helvetica,Arial,sans-serif" font-size="14.00">2</text>
</g>
<!-- 7 -->
<g id="node3" class="node">
<title>7</title>
<ellipse fill="none" stroke="black" cx="663" cy="-94" rx="27" ry="18"/>
<text text-anchor="middle" x="663" y="-90.3" font-family="Helvetica,Arial,sans-serif" font-size="14.00">7</text>
</g>
<!-- 4&#45;&gt;7 -->
<g id="edge2" class="edge">
<title>4&#45;&gt;7</title>
<path fill="none" stroke="black" d="M253,-52.23C271.11,-32.14 306.03,0 344,0 344,0 344,0 558,0 598.89,0 630.9,-40.49 648.08,-68.32"/>
<polygon fill="black" stroke="black" points="645.22,-70.37 653.33,-77.19 651.25,-66.81 645.22,-70.37"/>
<text text-anchor="middle" x="451" y="-3.8" font-family="Helvetica,Arial,sans-serif" font-size="14.00">7</text>
</g>
<!-- 5 -->
<g id="node4" class="node">
<title>5</title>
<ellipse fill="none" stroke="black" cx="557" cy="-129" rx="27" ry="18"/>
<text text-anchor="middle" x="557" y="-125.3" font-family="Helvetica,Arial,sans-serif" font-size="14.00">5</text>
</g>
<!-- 4&#45;&gt;5 -->
<g id="edge3" class="edge">
<title>4&#45;&gt;5</title>
<path fill="none" stroke="black" d="M265.87,-71.24C292.54,-74.7 335.29,-80.55 372,-87 419.39,-95.32 431.13,-98.13 478,-109 492.32,-112.32 508.05,-116.29 521.6,-119.81"/>
<polygon fill="black" stroke="black" points="520.92,-123.25 531.48,-122.4 522.69,-116.48 520.92,-123.25"/>
<text text-anchor="middle" x="398" y="-96.8" font-family="Helvetica,Arial,sans-serif" font-size="14.00">1</text>
</g>
<!-- 3 -->
<g id="node8" class="node">
<title>3</title>
<ellipse fill="none" stroke="black" cx="451" cy="-136" rx="27" ry="18"/>
<text text-anchor="middle" x="451" y="-132.3" font-family="Helvetica,Arial,sans-serif" font-size="14.00">3</text>
</g>
<!-- 2&#45;&gt;3 -->
<g id="edge16" class="edge">
<title>2&#45;&gt;3</title>
<path fill="none" stroke="black" d="M367.55,-174.85C382.47,-167.82 402.55,-158.35 419.17,-150.53"/>
<polygon fill="black" stroke="black" points="420.92,-153.57 428.48,-146.14 417.94,-147.24 420.92,-153.57"/>
<text text-anchor="middle" x="398" y="-166.8" font-family="Helvetica,Arial,sans-serif" font-size="14.00">26</text>
</g>
<!-- 5&#45;&gt;7 -->
<g id="edge12" class="edge">
<title>5&#45;&gt;7</title>
<path fill="none" stroke="black" d="M581.34,-121.15C595.29,-116.45 613.25,-110.41 628.67,-105.22"/>
<polygon fill="black" stroke="black" points="630.02,-108.46 638.38,-101.95 627.78,-101.82 630.02,-108.46"/>
<text text-anchor="middle" x="610" y="-116.8" font-family="Helvetica,Arial,sans-serif" font-size="14.00">7</text>
</g>
<!-- 0 -->
<g id="node5" class="node">
<title>0</title>
<ellipse fill="none" stroke="black" cx="27" cy="-228" rx="27" ry="18"/>
<text text-anchor="middle" x="27" y="-224.3" font-family="Helvetica,Arial,sans-serif" font-size="14.00">0</text>
</g>
<!-- 0&#45;&gt;2 -->
<g id="edge6" class="edge">
<title>0&#45;&gt;2</title>
<path fill="none" stroke="black" d="M53.94,-225.12C102.39,-219.63 209.9,-206.98 300,-193 302.88,-192.55 305.86,-192.07 308.84,-191.56"/>
<polygon fill="black" stroke="black" points="309.66,-194.97 318.91,-189.79 308.45,-188.07 309.66,-194.97"/>
<text text-anchor="middle" x="186" y="-212.8" font-family="Helvetica,Arial,sans-serif" font-size="14.00">1</text>
</g>
<!-- 6 -->
<g id="node6" class="node">
<title>6</title>
<ellipse fill="none" stroke="black" cx="557" cy="-183" rx="27" ry="18"/>
<text text-anchor="middle" x="557" y="-179.3" font-family="Helvetica,Arial,sans-serif" font-size="14.00">6</text>
</g>
<!-- 0&#45;&gt;6 -->
<g id="edge4" class="edge">
<title>0&#45;&gt;6</title>
<path fill="none" stroke="black" d="M47.55,-239.82C67.9,-250.97 101.05,-266 132,-266 132,-266 132,-266 452,-266 489.82,-266 521.79,-232.06 539.94,-207.59"/>
<polygon fill="black" stroke="black" points="542.82,-209.58 545.77,-199.4 537.12,-205.52 542.82,-209.58"/>
<text text-anchor="middle" x="292" y="-269.8" font-family="Helvetica,Arial,sans-serif" font-size="14.00">2</text>
</g>
<!-- 1 -->
<g id="node7" class="node">
<title>1</title>
<ellipse fill="none" stroke="black" cx="133" cy="-161" rx="27" ry="18"/>
<text text-anchor="middle" x="133" y="-157.3" font-family="Helvetica,Arial,sans-serif" font-size="14.00">1</text>
</g>
<!-- 0&#45;&gt;1 -->
<g id="edge5" class="edge">
<title>0&#45;&gt;1</title>
<path fill="none" stroke="black" d="M46.79,-215.51C54.57,-210.36 63.7,-204.36 72,-199 82.49,-192.22 94.08,-184.85 104.25,-178.43"/>
<polygon fill="black" stroke="black" points="106.17,-181.36 112.76,-173.06 102.43,-175.44 106.17,-181.36"/>
<text text-anchor="middle" x="80" y="-202.8" font-family="Helvetica,Arial,sans-serif" font-size="14.00">38</text>
</g>
<!-- 6&#45;&gt;7 -->
<g id="edge11" class="edge">
<title>6&#45;&gt;7</title>
<path fill="none" stroke="black" d="M574.33,-169.18C586.41,-158.94 603.26,-144.63 618,-132 624.47,-126.46 631.45,-120.44 637.91,-114.87"/>
<polygon fill="black" stroke="black" points="640.45,-117.29 645.73,-108.11 635.87,-112 640.45,-117.29"/>
<text text-anchor="middle" x="610" y="-147.8" font-family="Helvetica,Arial,sans-serif" font-size="14.00">27</text>
</g>
<!-- 1&#45;&gt;4 -->
<g id="edge15" class="edge">
<title>1&#45;&gt;4</title>
<path fill="none" stroke="black" d="M146.16,-144.92C154.52,-134.39 166.2,-120.66 178,-110 187.8,-101.14 199.53,-92.56 210.01,-85.48"/>
<polygon fill="black" stroke="black" points="212.02,-88.34 218.45,-79.92 208.17,-82.5 212.02,-88.34"/>
<text text-anchor="middle" x="186" y="-113.8" font-family="Helvetica,Arial,sans-serif" font-size="14.00">13</text>
</g>
<!-- 1&#45;&gt;2 -->
<g id="edge13" class="edge">
<title>1&#45;&gt;2</title>
<path fill="none" stroke="black" d="M159.75,-163.94C196.91,-168.19 265.72,-176.05 307.92,-180.88"/>
<polygon fill="black" stroke="black" points="307.71,-184.37 318.04,-182.03 308.5,-177.42 307.71,-184.37"/>
<text text-anchor="middle" x="239" y="-178.8" font-family="Helvetica,Arial,sans-serif" font-size="14.00">8</text>
</g>
<!-- 1&#45;&gt;3 -->
<g id="edge14" class="edge">
<title>1&#45;&gt;3</title>
<path fill="none" stroke="black" d="M159.86,-158.95C215.99,-154.51 349.12,-143.98 413.67,-138.87"/>
<polygon fill="black" stroke="black" points="414.09,-142.35 423.78,-138.07 413.54,-135.37 414.09,-142.35"/>
<text text-anchor="middle" x="292" y="-152.8" font-family="Helvetica,Arial,sans-serif" font-size="14.00">10</text>
</g>
<!-- 3&#45;&gt;4 -->
<g id="edge9" class="edge">
<title>3&#45;&gt;4</title>
<path fill="none" stroke="black" d="M426.69,-127.99C397.25,-117.92 345.01,-100.25 300,-86 291.5,-83.31 282.3,-80.5 273.71,-77.92"/>
<polygon fill="black" stroke="black" points="274.58,-74.52 263.99,-75.02 272.57,-81.23 274.58,-74.52"/>
<text text-anchor="middle" x="345" y="-112.8" font-family="Helvetica,Arial,sans-serif" font-size="14.00">20</text>
</g>
<!-- 3&#45;&gt;7 -->
<g id="edge8" class="edge">
<title>3&#45;&gt;7</title>
<path fill="none" stroke="black" d="M468.3,-121.88C483.22,-109.95 506.49,-93.77 530,-87 561.93,-77.8 599.96,-81.25 626.98,-85.98"/>
<polygon fill="black" stroke="black" points="626.64,-89.48 637.12,-87.9 627.95,-82.6 626.64,-89.48"/>
<text text-anchor="middle" x="557" y="-90.8" font-family="Helvetica,Arial,sans-serif" font-size="14.00">1</text>
</g>
<!-- 3&#45;&gt;5 -->
<g id="edge10" class="edge">
<title>3&#45;&gt;5</title>
<path fill="none" stroke="black" d="M477.98,-134.25C490.63,-133.4 506.06,-132.36 519.85,-131.43"/>
<polygon fill="black" stroke="black" points="520.25,-134.91 530,-130.75 519.78,-127.93 520.25,-134.91"/>
<text text-anchor="middle" x="504" y="-135.8" font-family="Helvetica,Arial,sans-serif" font-size="14.00">8</text>
</g>
<!-- 3&#45;&gt;6 -->
<g id="edge7" class="edge">
<title>3&#45;&gt;6</title>
<path fill="none" stroke="black" d="M473.8,-145.85C488.64,-152.56 508.5,-161.53 524.98,-168.98"/>
<polygon fill="black" stroke="black" points="523.67,-172.23 534.23,-173.16 526.56,-165.85 523.67,-172.23"/>
<text text-anchor="middle" x="504" y="-165.8" font-family="Helvetica,Arial,sans-serif" font-size="14.00">24</text>
</g>
</g>
</svg>
