<?xml version="1.0" encoding="UTF-8" standalone="no"?>
<!DOCTYPE svg PUBLIC "-//W3C//DTD SVG 1.1//EN"
 "http://www.w3.org/Graphics/SVG/1.1/DTD/svg11.dtd">
<!-- Generated by graphviz version 2.43.0 (0)
 -->
<!-- Title: create_graph Pages: 1 -->
<svg width="1186pt" height="211pt"
 viewBox="0.00 0.00 1186.00 210.90" xmlns="http://www.w3.org/2000/svg" xmlns:xlink="http://www.w3.org/1999/xlink">
<g id="graph0" class="graph" transform="scale(1 1) rotate(0) translate(4 206.9)">
<title>create_graph</title>
<polygon fill="white" stroke="transparent" points="-4,4 -4,-206.9 1182,-206.9 1182,4 -4,4"/>
<!-- 7 -->
<g id="node1" class="node">
<title>7</title>
<ellipse fill="none" stroke="black" cx="27" cy="-100.9" rx="27" ry="18"/>
<text text-anchor="middle" x="27" y="-97.2" font-family="Helvetica,Arial,sans-serif" font-size="14.00">7</text>
</g>
<!-- 12 -->
<g id="node2" class="node">
<title>12</title>
<ellipse fill="none" stroke="black" cx="125" cy="-135.9" rx="27" ry="18"/>
<text text-anchor="middle" x="125" y="-132.2" font-family="Helvetica,Arial,sans-serif" font-size="14.00">12</text>
</g>
<!-- 7&#45;&gt;12 -->
<g id="edge1" class="edge">
<title>7&#45;&gt;12</title>
<path fill="none" stroke="black" d="M51.36,-108.78C60.34,-111.87 70.67,-115.48 80,-118.9 83.78,-120.28 87.74,-121.76 91.66,-123.25"/>
<polygon fill="black" stroke="black" points="90.63,-126.6 101.22,-126.92 93.14,-120.07 90.63,-126.6"/>
<text text-anchor="middle" x="76" y="-122.7" font-family="Helvetica,Arial,sans-serif" font-size="14.00">1</text>
</g>
<!-- 5 -->
<g id="node3" class="node">
<title>5</title>
<ellipse fill="none" stroke="black" cx="321" cy="-38.9" rx="27" ry="18"/>
<text text-anchor="middle" x="321" y="-35.2" font-family="Helvetica,Arial,sans-serif" font-size="14.00">5</text>
</g>
<!-- 7&#45;&gt;5 -->
<g id="edge2" class="edge">
<title>7&#45;&gt;5</title>
<path fill="none" stroke="black" d="M52.13,-94C58.57,-92.25 65.53,-90.43 72,-88.9 147.26,-71.07 236.31,-54.11 284.58,-45.26"/>
<polygon fill="black" stroke="black" points="285.32,-48.68 294.53,-43.45 284.06,-41.8 285.32,-48.68"/>
<text text-anchor="middle" x="174" y="-70.7" font-family="Helvetica,Arial,sans-serif" font-size="14.00">1</text>
</g>
<!-- 10 -->
<g id="node4" class="node">
<title>10</title>
<ellipse fill="none" stroke="black" cx="223" cy="-113.9" rx="27" ry="18"/>
<text text-anchor="middle" x="223" y="-110.2" font-family="Helvetica,Arial,sans-serif" font-size="14.00">10</text>
</g>
<!-- 7&#45;&gt;10 -->
<g id="edge3" class="edge">
<title>7&#45;&gt;10</title>
<path fill="none" stroke="black" d="M53.29,-96.59C78.44,-92.99 118.05,-89.14 152,-93.9 164.39,-95.63 177.67,-99.02 189.29,-102.51"/>
<polygon fill="black" stroke="black" points="188.43,-105.91 199.02,-105.58 190.53,-99.23 188.43,-105.91"/>
<text text-anchor="middle" x="125" y="-97.7" font-family="Helvetica,Arial,sans-serif" font-size="14.00">1</text>
</g>
<!-- 12&#45;&gt;7 -->
<g id="edge16" class="edge">
<title>12&#45;&gt;7</title>
<path fill="none" stroke="black" d="M98.03,-137.93C89.53,-137.8 80.17,-136.8 72,-133.9 64.58,-131.26 57.37,-126.9 51.01,-122.19"/>
<polygon fill="black" stroke="black" points="52.91,-119.23 42.92,-115.7 48.52,-124.69 52.91,-119.23"/>
<text text-anchor="middle" x="76" y="-138.7" font-family="Helvetica,Arial,sans-serif" font-size="14.00">1</text>
</g>
<!-- 12&#45;&gt;10 -->
<g id="edge17" class="edge">
<title>12&#45;&gt;10</title>
<path fill="none" stroke="black" d="M150.72,-130.23C161.92,-127.66 175.35,-124.59 187.51,-121.8"/>
<polygon fill="black" stroke="black" points="188.4,-125.19 197.36,-119.54 186.83,-118.36 188.4,-125.19"/>
<text text-anchor="middle" x="174" y="-128.7" font-family="Helvetica,Arial,sans-serif" font-size="14.00">6</text>
</g>
<!-- 2 -->
<g id="node11" class="node">
<title>2</title>
<ellipse fill="none" stroke="black" cx="465" cy="-38.9" rx="27" ry="18"/>
<text text-anchor="middle" x="465" y="-35.2" font-family="Helvetica,Arial,sans-serif" font-size="14.00">2</text>
</g>
<!-- 5&#45;&gt;2 -->
<g id="edge14" class="edge">
<title>5&#45;&gt;2</title>
<path fill="none" stroke="black" d="M348.04,-38.9C370.32,-38.9 402.63,-38.9 427.49,-38.9"/>
<polygon fill="black" stroke="black" points="427.64,-42.4 437.64,-38.9 427.64,-35.4 427.64,-42.4"/>
<text text-anchor="middle" x="393" y="-42.7" font-family="Helvetica,Arial,sans-serif" font-size="14.00">2</text>
</g>
<!-- 10&#45;&gt;5 -->
<g id="edge20" class="edge">
<title>10&#45;&gt;5</title>
<path fill="none" stroke="black" d="M239,-99.26C247.29,-91.43 257.93,-81.8 268,-73.9 275.67,-67.88 284.34,-61.79 292.37,-56.41"/>
<polygon fill="black" stroke="black" points="294.33,-59.31 300.76,-50.89 290.48,-53.46 294.33,-59.31"/>
<text text-anchor="middle" x="272" y="-77.7" font-family="Helvetica,Arial,sans-serif" font-size="14.00">1</text>
</g>
<!-- 9 -->
<g id="node5" class="node">
<title>9</title>
<ellipse fill="none" stroke="black" cx="1151" cy="-106.9" rx="27" ry="18"/>
<text text-anchor="middle" x="1151" y="-103.2" font-family="Helvetica,Arial,sans-serif" font-size="14.00">9</text>
</g>
<!-- 10&#45;&gt;9 -->
<g id="edge18" class="edge">
<title>10&#45;&gt;9</title>
<path fill="none" stroke="black" d="M234.87,-130.32C250.76,-152.12 282.54,-187.9 320,-187.9 320,-187.9 320,-187.9 1054,-187.9 1089,-187.9 1117.85,-156.06 1134.5,-132.3"/>
<polygon fill="black" stroke="black" points="1137.62,-133.94 1140.27,-123.68 1131.8,-130.04 1137.62,-133.94"/>
<text text-anchor="middle" x="710" y="-191.7" font-family="Helvetica,Arial,sans-serif" font-size="14.00">3</text>
</g>
<!-- 4 -->
<g id="node12" class="node">
<title>4</title>
<ellipse fill="none" stroke="black" cx="393" cy="-109.9" rx="27" ry="18"/>
<text text-anchor="middle" x="393" y="-106.2" font-family="Helvetica,Arial,sans-serif" font-size="14.00">4</text>
</g>
<!-- 10&#45;&gt;4 -->
<g id="edge19" class="edge">
<title>10&#45;&gt;4</title>
<path fill="none" stroke="black" d="M250.25,-113.27C278.61,-112.6 323.98,-111.52 355.73,-110.76"/>
<polygon fill="black" stroke="black" points="356.02,-114.25 365.93,-110.52 355.85,-107.26 356.02,-114.25"/>
<text text-anchor="middle" x="272" y="-115.7" font-family="Helvetica,Arial,sans-serif" font-size="14.00">2</text>
</g>
<!-- 9&#45;&gt;10 -->
<g id="edge4" class="edge">
<title>9&#45;&gt;10</title>
<path fill="none" stroke="black" d="M1132.3,-120.27C1113.79,-132.89 1083.4,-149.9 1054,-149.9 320,-149.9 320,-149.9 320,-149.9 296.2,-149.9 271.08,-140.08 252.5,-130.7"/>
<polygon fill="black" stroke="black" points="253.9,-127.48 243.43,-125.88 250.62,-133.66 253.9,-127.48"/>
<text text-anchor="middle" x="710" y="-153.7" font-family="Helvetica,Arial,sans-serif" font-size="14.00">1</text>
</g>
<!-- 6 -->
<g id="node6" class="node">
<title>6</title>
<ellipse fill="none" stroke="black" cx="759" cy="-76.9" rx="27" ry="18"/>
<text text-anchor="middle" x="759" y="-73.2" font-family="Helvetica,Arial,sans-serif" font-size="14.00">6</text>
</g>
<!-- 9&#45;&gt;6 -->
<g id="edge5" class="edge">
<title>9&#45;&gt;6</title>
<path fill="none" stroke="black" d="M1123.92,-106.9C1104.62,-106.9 1077.67,-106.9 1054,-106.9 856,-106.9 856,-106.9 856,-106.9 833.35,-106.9 809.01,-99.2 790.51,-91.6"/>
<polygon fill="black" stroke="black" points="791.71,-88.3 781.14,-87.56 788.94,-94.73 791.71,-88.3"/>
<text text-anchor="middle" x="955" y="-110.7" font-family="Helvetica,Arial,sans-serif" font-size="14.00">2</text>
</g>
<!-- 11 -->
<g id="node7" class="node">
<title>11</title>
<ellipse fill="none" stroke="black" cx="1053" cy="-45.9" rx="27" ry="18"/>
<text text-anchor="middle" x="1053" y="-42.2" font-family="Helvetica,Arial,sans-serif" font-size="14.00">11</text>
</g>
<!-- 9&#45;&gt;11 -->
<g id="edge6" class="edge">
<title>9&#45;&gt;11</title>
<path fill="none" stroke="black" d="M1131.24,-94.35C1123.47,-89.2 1114.33,-83.2 1106,-77.9 1098.42,-73.07 1090.15,-67.92 1082.49,-63.21"/>
<polygon fill="black" stroke="black" points="1084.2,-60.15 1073.84,-57.91 1080.54,-66.12 1084.2,-60.15"/>
<text text-anchor="middle" x="1102" y="-81.7" font-family="Helvetica,Arial,sans-serif" font-size="14.00">1</text>
</g>
<!-- 3 -->
<g id="node9" class="node">
<title>3</title>
<ellipse fill="none" stroke="black" cx="857" cy="-38.9" rx="27" ry="18"/>
<text text-anchor="middle" x="857" y="-35.2" font-family="Helvetica,Arial,sans-serif" font-size="14.00">3</text>
</g>
<!-- 6&#45;&gt;3 -->
<g id="edge22" class="edge">
<title>6&#45;&gt;3</title>
<path fill="none" stroke="black" d="M782.75,-67.89C795.06,-63.02 810.48,-56.91 823.99,-51.57"/>
<polygon fill="black" stroke="black" points="825.4,-54.77 833.41,-47.84 822.83,-48.26 825.4,-54.77"/>
<text text-anchor="middle" x="808" y="-62.7" font-family="Helvetica,Arial,sans-serif" font-size="14.00">1</text>
</g>
<!-- 1 -->
<g id="node13" class="node">
<title>1</title>
<ellipse fill="none" stroke="black" cx="661" cy="-63.9" rx="27" ry="18"/>
<text text-anchor="middle" x="661" y="-60.2" font-family="Helvetica,Arial,sans-serif" font-size="14.00">1</text>
</g>
<!-- 6&#45;&gt;1 -->
<g id="edge23" class="edge">
<title>6&#45;&gt;1</title>
<path fill="none" stroke="black" d="M734.53,-68.61C727.97,-66.67 720.78,-64.88 714,-63.9 708.88,-63.16 703.45,-62.75 698.1,-62.56"/>
<polygon fill="black" stroke="black" points="698.07,-59.06 688.03,-62.44 697.98,-66.06 698.07,-59.06"/>
<text text-anchor="middle" x="710" y="-67.7" font-family="Helvetica,Arial,sans-serif" font-size="14.00">1</text>
</g>
<!-- 11&#45;&gt;9 -->
<g id="edge7" class="edge">
<title>11&#45;&gt;9</title>
<path fill="none" stroke="black" d="M1080.07,-46.24C1088.77,-47.28 1098.21,-49.48 1106,-53.9 1117.71,-60.53 1127.62,-71.56 1135.06,-81.86"/>
<polygon fill="black" stroke="black" points="1132.21,-83.89 1140.71,-90.21 1138.01,-79.97 1132.21,-83.89"/>
<text text-anchor="middle" x="1102" y="-57.7" font-family="Helvetica,Arial,sans-serif" font-size="14.00">1</text>
</g>
<!-- 8 -->
<g id="node8" class="node">
<title>8</title>
<ellipse fill="none" stroke="black" cx="955" cy="-45.9" rx="27" ry="18"/>
<text text-anchor="middle" x="955" y="-42.2" font-family="Helvetica,Arial,sans-serif" font-size="14.00">8</text>
</g>
<!-- 11&#45;&gt;8 -->
<g id="edge8" class="edge">
<title>11&#45;&gt;8</title>
<path fill="none" stroke="black" d="M1029.03,-37.12C1022.35,-34.97 1014.97,-32.98 1008,-31.9 1001.33,-30.86 994.29,-31.52 987.61,-33.01"/>
<polygon fill="black" stroke="black" points="986.18,-29.77 977.53,-35.89 988.11,-36.5 986.18,-29.77"/>
<text text-anchor="middle" x="1004" y="-35.7" font-family="Helvetica,Arial,sans-serif" font-size="14.00">1</text>
</g>
<!-- 8&#45;&gt;11 -->
<g id="edge9" class="edge">
<title>8&#45;&gt;11</title>
<path fill="none" stroke="black" d="M982.06,-46.59C987.96,-46.71 994.19,-46.83 1000,-46.9 1004.99,-46.95 1010.24,-46.94 1015.41,-46.88"/>
<polygon fill="black" stroke="black" points="1015.87,-50.37 1025.81,-46.71 1015.76,-43.37 1015.87,-50.37"/>
<text text-anchor="middle" x="1004" y="-51.7" font-family="Helvetica,Arial,sans-serif" font-size="14.00">1</text>
</g>
<!-- 8&#45;&gt;3 -->
<g id="edge10" class="edge">
<title>8&#45;&gt;3</title>
<path fill="none" stroke="black" d="M928.46,-41.9C922.42,-41.1 916,-40.36 910,-39.9 905.03,-39.51 899.78,-39.24 894.61,-39.06"/>
<polygon fill="black" stroke="black" points="894.3,-35.56 884.22,-38.81 894.13,-42.55 894.3,-35.56"/>
<text text-anchor="middle" x="906" y="-43.7" font-family="Helvetica,Arial,sans-serif" font-size="14.00">1</text>
</g>
<!-- 3&#45;&gt;6 -->
<g id="edge13" class="edge">
<title>3&#45;&gt;6</title>
<path fill="none" stroke="black" d="M830.23,-36.01C821.65,-35.93 812.2,-36.82 804,-39.9 795.54,-43.07 787.56,-48.63 780.77,-54.49"/>
<polygon fill="black" stroke="black" points="778.32,-52 773.41,-61.38 783.1,-57.11 778.32,-52"/>
<text text-anchor="middle" x="808" y="-43.7" font-family="Helvetica,Arial,sans-serif" font-size="14.00">1</text>
</g>
<!-- 3&#45;&gt;8 -->
<g id="edge11" class="edge">
<title>3&#45;&gt;8</title>
<path fill="none" stroke="black" d="M879.97,-48.58C886.88,-51.17 894.64,-53.6 902,-54.9 907.95,-55.94 914.29,-55.85 920.42,-55.14"/>
<polygon fill="black" stroke="black" points="921.16,-58.57 930.44,-53.45 920,-51.67 921.16,-58.57"/>
<text text-anchor="middle" x="906" y="-58.7" font-family="Helvetica,Arial,sans-serif" font-size="14.00">1</text>
</g>
<!-- 0 -->
<g id="node10" class="node">
<title>0</title>
<ellipse fill="none" stroke="black" cx="563" cy="-38.9" rx="27" ry="18"/>
<text text-anchor="middle" x="563" y="-35.2" font-family="Helvetica,Arial,sans-serif" font-size="14.00">0</text>
</g>
<!-- 3&#45;&gt;0 -->
<g id="edge12" class="edge">
<title>3&#45;&gt;0</title>
<path fill="none" stroke="black" d="M830.45,-35.5C824.41,-34.83 817.99,-34.23 812,-33.9 808.45,-33.69 807.56,-33.89 804,-33.9 716.89,-34.12 695.01,-30.73 608,-34.9 605.45,-35.02 602.82,-35.18 600.18,-35.36"/>
<polygon fill="black" stroke="black" points="599.73,-31.88 590.03,-36.16 600.28,-38.86 599.73,-31.88"/>
<text text-anchor="middle" x="710" y="-37.7" font-family="Helvetica,Arial,sans-serif" font-size="14.00">2</text>
</g>
<!-- 0&#45;&gt;1 -->
<g id="edge27" class="edge">
<title>0&#45;&gt;1</title>
<path fill="none" stroke="black" d="M586.59,-47.98C593.39,-50.48 600.93,-53.01 608,-54.9 613.18,-56.27 618.71,-57.49 624.15,-58.55"/>
<polygon fill="black" stroke="black" points="623.95,-62.07 634.41,-60.39 625.19,-55.18 623.95,-62.07"/>
<text text-anchor="middle" x="612" y="-59.7" font-family="Helvetica,Arial,sans-serif" font-size="14.00">1</text>
</g>
<!-- 2&#45;&gt;0 -->
<g id="edge15" class="edge">
<title>2&#45;&gt;0</title>
<path fill="none" stroke="black" d="M492.23,-38.9C502.5,-38.9 514.45,-38.9 525.53,-38.9"/>
<polygon fill="black" stroke="black" points="525.8,-42.4 535.8,-38.9 525.8,-35.4 525.8,-42.4"/>
<text text-anchor="middle" x="514" y="-42.7" font-family="Helvetica,Arial,sans-serif" font-size="14.00">2</text>
</g>
<!-- 4&#45;&gt;1 -->
<g id="edge21" class="edge">
<title>4&#45;&gt;1</title>
<path fill="none" stroke="black" d="M419.77,-106.59C461.29,-101.09 545.46,-89.24 616,-74.9 619.06,-74.27 622.24,-73.58 625.41,-72.85"/>
<polygon fill="black" stroke="black" points="626.51,-76.18 635.42,-70.45 624.88,-69.38 626.51,-76.18"/>
<text text-anchor="middle" x="514" y="-96.7" font-family="Helvetica,Arial,sans-serif" font-size="14.00">2</text>
</g>
<!-- 1&#45;&gt;5 -->
<g id="edge24" class="edge">
<title>1&#45;&gt;5</title>
<path fill="none" stroke="black" d="M645.8,-48.95C632.7,-36.32 611.99,-19.17 590,-11.9 508.42,15.09 405.88,-10.57 354.5,-27.21"/>
<polygon fill="black" stroke="black" points="353.31,-23.92 344.92,-30.4 355.52,-30.56 353.31,-23.92"/>
<text text-anchor="middle" x="514" y="-4.7" font-family="Helvetica,Arial,sans-serif" font-size="14.00">2</text>
</g>
<!-- 1&#45;&gt;6 -->
<g id="edge25" class="edge">
<title>1&#45;&gt;6</title>
<path fill="none" stroke="black" d="M684.47,-73.14C691.27,-75.5 698.83,-77.71 706,-78.9 711.16,-79.75 716.64,-80.12 722.04,-80.17"/>
<polygon fill="black" stroke="black" points="722.3,-83.67 732.21,-79.94 722.14,-76.67 722.3,-83.67"/>
<text text-anchor="middle" x="710" y="-82.7" font-family="Helvetica,Arial,sans-serif" font-size="14.00">1</text>
</g>
<!-- 1&#45;&gt;0 -->
<g id="edge26" class="edge">
<title>1&#45;&gt;0</title>
<path fill="none" stroke="black" d="M641.57,-51.27C633.99,-46.78 624.92,-42.26 616,-39.9 610.95,-38.56 605.52,-37.77 600.15,-37.36"/>
<polygon fill="black" stroke="black" points="600.12,-33.85 589.99,-36.98 599.85,-40.85 600.12,-33.85"/>
<text text-anchor="middle" x="612" y="-43.7" font-family="Helvetica,Arial,sans-serif" font-size="14.00">3</text>
</g>
</g>
</svg>
