<?xml version="1.0" encoding="UTF-8" standalone="no"?>
<!DOCTYPE svg PUBLIC "-//W3C//DTD SVG 1.1//EN"
 "http://www.w3.org/Graphics/SVG/1.1/DTD/svg11.dtd">
<!-- Generated by graphviz version 2.43.0 (0)
 -->
<!-- Title: create_graph Pages: 1 -->
<svg width="372pt" height="146pt"
 viewBox="0.00 0.00 372.00 146.00" xmlns="http://www.w3.org/2000/svg" xmlns:xlink="http://www.w3.org/1999/xlink">
<g id="graph0" class="graph" transform="scale(1 1) rotate(0) translate(4 142)">
<title>create_graph</title>
<polygon fill="white" stroke="transparent" points="-4,4 -4,-142 368,-142 368,4 -4,4"/>
<!-- 4 -->
<g id="node1" class="node">
<title>4</title>
<ellipse fill="none" stroke="black" cx="27" cy="-102" rx="27" ry="18"/>
<text text-anchor="middle" x="27" y="-98.3" font-family="Helvetica,Arial,sans-serif" font-size="14.00">4</text>
</g>
<!-- 1 -->
<g id="node2" class="node">
<title>1</title>
<ellipse fill="none" stroke="black" cx="133" cy="-52" rx="27" ry="18"/>
<text text-anchor="middle" x="133" y="-48.3" font-family="Helvetica,Arial,sans-serif" font-size="14.00">1</text>
</g>
<!-- 4&#45;&gt;1 -->
<g id="edge1" class="edge">
<title>4&#45;&gt;1</title>
<path fill="none" stroke="black" d="M45.81,-88.82C53.59,-83.45 62.98,-77.47 72,-73 80.26,-68.91 89.53,-65.25 98.25,-62.18"/>
<polygon fill="black" stroke="black" points="99.43,-65.47 107.8,-58.97 97.2,-58.84 99.43,-65.47"/>
<text text-anchor="middle" x="80" y="-76.8" font-family="Helvetica,Arial,sans-serif" font-size="14.00">5</text>
</g>
<!-- 5 -->
<g id="node3" class="node">
<title>5</title>
<ellipse fill="none" stroke="black" cx="337" cy="-114" rx="27" ry="18"/>
<text text-anchor="middle" x="337" y="-110.3" font-family="Helvetica,Arial,sans-serif" font-size="14.00">5</text>
</g>
<!-- 4&#45;&gt;5 -->
<g id="edge2" class="edge">
<title>4&#45;&gt;5</title>
<path fill="none" stroke="black" d="M50.98,-110.69C57.67,-112.84 65.04,-114.85 72,-116 152.64,-129.3 249.03,-123.1 300.1,-118.11"/>
<polygon fill="black" stroke="black" points="300.7,-121.57 310.29,-117.08 299.99,-114.61 300.7,-121.57"/>
<text text-anchor="middle" x="186" y="-126.8" font-family="Helvetica,Arial,sans-serif" font-size="14.00">10</text>
</g>
<!-- 2 -->
<g id="node4" class="node">
<title>2</title>
<ellipse fill="none" stroke="black" cx="239" cy="-52" rx="27" ry="18"/>
<text text-anchor="middle" x="239" y="-48.3" font-family="Helvetica,Arial,sans-serif" font-size="14.00">2</text>
</g>
<!-- 1&#45;&gt;2 -->
<g id="edge8" class="edge">
<title>1&#45;&gt;2</title>
<path fill="none" stroke="black" d="M160.24,-52C172.81,-52 188.05,-52 201.71,-52"/>
<polygon fill="black" stroke="black" points="201.76,-55.5 211.76,-52 201.76,-48.5 201.76,-55.5"/>
<text text-anchor="middle" x="186" y="-55.8" font-family="Helvetica,Arial,sans-serif" font-size="14.00">12</text>
</g>
<!-- 2&#45;&gt;5 -->
<g id="edge4" class="edge">
<title>2&#45;&gt;5</title>
<path fill="none" stroke="black" d="M258.97,-64.25C273.04,-73.34 292.43,-85.86 308.25,-96.08"/>
<polygon fill="black" stroke="black" points="306.77,-99.29 317.07,-101.78 310.57,-93.41 306.77,-99.29"/>
<text text-anchor="middle" x="288" y="-87.8" font-family="Helvetica,Arial,sans-serif" font-size="14.00">7</text>
</g>
<!-- 3 -->
<g id="node5" class="node">
<title>3</title>
<ellipse fill="none" stroke="black" cx="337" cy="-34" rx="27" ry="18"/>
<text text-anchor="middle" x="337" y="-30.3" font-family="Helvetica,Arial,sans-serif" font-size="14.00">3</text>
</g>
<!-- 2&#45;&gt;3 -->
<g id="edge3" class="edge">
<title>2&#45;&gt;3</title>
<path fill="none" stroke="black" d="M261.49,-41.98C268.51,-39.17 276.45,-36.48 284,-35 289.08,-34 294.48,-33.4 299.82,-33.07"/>
<polygon fill="black" stroke="black" points="300.01,-36.57 309.89,-32.73 299.78,-29.57 300.01,-36.57"/>
<text text-anchor="middle" x="288" y="-38.8" font-family="Helvetica,Arial,sans-serif" font-size="14.00">3</text>
</g>
<!-- 3&#45;&gt;4 -->
<g id="edge5" class="edge">
<title>3&#45;&gt;4</title>
<path fill="none" stroke="black" d="M327.33,-50.91C319.84,-63.56 307.74,-80 292,-88 272.24,-98.04 131.99,-100.9 64.33,-101.7"/>
<polygon fill="black" stroke="black" points="64.09,-98.2 54.13,-101.81 64.17,-105.2 64.09,-98.2"/>
<text text-anchor="middle" x="186" y="-102.8" font-family="Helvetica,Arial,sans-serif" font-size="14.00">10</text>
</g>
<!-- 0 -->
<g id="node6" class="node">
<title>0</title>
<ellipse fill="none" stroke="black" cx="27" cy="-18" rx="27" ry="18"/>
<text text-anchor="middle" x="27" y="-14.3" font-family="Helvetica,Arial,sans-serif" font-size="14.00">0</text>
</g>
<!-- 0&#45;&gt;1 -->
<g id="edge7" class="edge">
<title>0&#45;&gt;1</title>
<path fill="none" stroke="black" d="M52.39,-24.36C63.35,-27.36 76.4,-31.12 88,-35 91.82,-36.28 95.8,-37.69 99.74,-39.14"/>
<polygon fill="black" stroke="black" points="98.72,-42.5 109.31,-42.77 101.2,-35.95 98.72,-42.5"/>
<text text-anchor="middle" x="80" y="-38.8" font-family="Helvetica,Arial,sans-serif" font-size="14.00">15</text>
</g>
<!-- 0&#45;&gt;3 -->
<g id="edge6" class="edge">
<title>0&#45;&gt;3</title>
<path fill="none" stroke="black" d="M54.11,-17.93C97.95,-18 189.14,-18.94 266,-25 277.2,-25.88 289.36,-27.29 300.35,-28.73"/>
<polygon fill="black" stroke="black" points="300.08,-32.22 310.46,-30.1 301.03,-25.29 300.08,-32.22"/>
<text text-anchor="middle" x="186" y="-23.8" font-family="Helvetica,Arial,sans-serif" font-size="14.00">4</text>
</g>
</g>
</svg>
