<?xml version="1.0" encoding="UTF-8" standalone="no"?>
<!DOCTYPE svg PUBLIC "-//W3C//DTD SVG 1.1//EN"
 "http://www.w3.org/Graphics/SVG/1.1/DTD/svg11.dtd">
<!-- Generated by graphviz version 2.43.0 (0)
 -->
<!-- Title: create_graph Pages: 1 -->
<svg width="796pt" height="293pt"
 viewBox="0.00 0.00 796.00 293.00" xmlns="http://www.w3.org/2000/svg" xmlns:xlink="http://www.w3.org/1999/xlink">
<g id="graph0" class="graph" transform="scale(1 1) rotate(0) translate(4 289)">
<title>create_graph</title>
<polygon fill="white" stroke="transparent" points="-4,4 -4,-289 792,-289 792,4 -4,4"/>
<!-- 6 -->
<g id="node1" class="node">
<title>6</title>
<ellipse fill="none" stroke="black" cx="27" cy="-191" rx="27" ry="18"/>
<text text-anchor="middle" x="27" y="-187.3" font-family="Helvetica,Arial,sans-serif" font-size="14.00">6</text>
</g>
<!-- 7 -->
<g id="node2" class="node">
<title>7</title>
<ellipse fill="none" stroke="black" cx="133" cy="-153" rx="27" ry="18"/>
<text text-anchor="middle" x="133" y="-149.3" font-family="Helvetica,Arial,sans-serif" font-size="14.00">7</text>
</g>
<!-- 6&#45;&gt;7 -->
<g id="edge1" class="edge">
<title>6&#45;&gt;7</title>
<path fill="none" stroke="black" d="M41.4,-175.47C49.38,-167.44 60.22,-158.41 72,-154 79.55,-151.18 88.01,-149.97 96.15,-149.66"/>
<polygon fill="black" stroke="black" points="96.18,-153.16 106.19,-149.69 96.2,-146.16 96.18,-153.16"/>
<text text-anchor="middle" x="80" y="-157.8" font-family="Helvetica,Arial,sans-serif" font-size="14.00">7</text>
</g>
<!-- 0 -->
<g id="node3" class="node">
<title>0</title>
<ellipse fill="none" stroke="black" cx="761" cy="-183" rx="27" ry="18"/>
<text text-anchor="middle" x="761" y="-179.3" font-family="Helvetica,Arial,sans-serif" font-size="14.00">0</text>
</g>
<!-- 6&#45;&gt;0 -->
<g id="edge2" class="edge">
<title>6&#45;&gt;0</title>
<path fill="none" stroke="black" d="M29.35,-173.03C33.99,-125.48 53.65,0 132,0 132,0 132,0 656,0 726.28,0 749.66,-103.28 756.94,-154.66"/>
<polygon fill="black" stroke="black" points="753.5,-155.32 758.26,-164.78 760.44,-154.42 753.5,-155.32"/>
<text text-anchor="middle" x="390" y="-3.8" font-family="Helvetica,Arial,sans-serif" font-size="14.00">2</text>
</g>
<!-- 3 -->
<g id="node4" class="node">
<title>3</title>
<ellipse fill="none" stroke="black" cx="337" cy="-190" rx="27" ry="18"/>
<text text-anchor="middle" x="337" y="-186.3" font-family="Helvetica,Arial,sans-serif" font-size="14.00">3</text>
</g>
<!-- 6&#45;&gt;3 -->
<g id="edge3" class="edge">
<title>6&#45;&gt;3</title>
<path fill="none" stroke="black" d="M37.95,-207.96C45.65,-219.31 57.44,-233.34 72,-240 160.92,-280.67 203.32,-281.18 292,-240 303.52,-234.65 313.25,-224.69 320.61,-215.06"/>
<polygon fill="black" stroke="black" points="323.53,-216.99 326.45,-206.8 317.82,-212.94 323.53,-216.99"/>
<text text-anchor="middle" x="186" y="-273.8" font-family="Helvetica,Arial,sans-serif" font-size="14.00">18</text>
</g>
<!-- 7&#45;&gt;6 -->
<g id="edge13" class="edge">
<title>7&#45;&gt;6</title>
<path fill="none" stroke="black" d="M108.98,-161.41C94.86,-166.57 76.54,-173.26 60.9,-178.98"/>
<polygon fill="black" stroke="black" points="59.27,-175.85 51.08,-182.57 61.67,-182.42 59.27,-175.85"/>
<text text-anchor="middle" x="80" y="-177.8" font-family="Helvetica,Arial,sans-serif" font-size="14.00">20</text>
</g>
<!-- 5 -->
<g id="node5" class="node">
<title>5</title>
<ellipse fill="none" stroke="black" cx="239" cy="-122" rx="27" ry="18"/>
<text text-anchor="middle" x="239" y="-118.3" font-family="Helvetica,Arial,sans-serif" font-size="14.00">5</text>
</g>
<!-- 7&#45;&gt;5 -->
<g id="edge15" class="edge">
<title>7&#45;&gt;5</title>
<path fill="none" stroke="black" d="M147.38,-137.4C155.34,-129.34 166.18,-120.31 178,-116 186.11,-113.04 195.22,-112.61 203.85,-113.39"/>
<polygon fill="black" stroke="black" points="203.64,-116.9 214.03,-114.85 204.63,-109.97 203.64,-116.9"/>
<text text-anchor="middle" x="186" y="-119.8" font-family="Helvetica,Arial,sans-serif" font-size="14.00">4</text>
</g>
<!-- 4 -->
<g id="node6" class="node">
<title>4</title>
<ellipse fill="none" stroke="black" cx="549" cy="-173" rx="27" ry="18"/>
<text text-anchor="middle" x="549" y="-169.3" font-family="Helvetica,Arial,sans-serif" font-size="14.00">4</text>
</g>
<!-- 7&#45;&gt;4 -->
<g id="edge14" class="edge">
<title>7&#45;&gt;4</title>
<path fill="none" stroke="black" d="M141.14,-135.81C154.98,-105.56 188.52,-46 238,-46 238,-46 238,-46 444,-46 495.06,-46 525.59,-108.2 539.31,-145.54"/>
<polygon fill="black" stroke="black" points="536.14,-147.06 542.74,-155.34 542.74,-144.75 536.14,-147.06"/>
<text text-anchor="middle" x="337" y="-49.8" font-family="Helvetica,Arial,sans-serif" font-size="14.00">7</text>
</g>
<!-- 1 -->
<g id="node7" class="node">
<title>1</title>
<ellipse fill="none" stroke="black" cx="655" cy="-183" rx="27" ry="18"/>
<text text-anchor="middle" x="655" y="-179.3" font-family="Helvetica,Arial,sans-serif" font-size="14.00">1</text>
</g>
<!-- 0&#45;&gt;1 -->
<g id="edge12" class="edge">
<title>0&#45;&gt;1</title>
<path fill="none" stroke="black" d="M733.76,-183C721.2,-183 705.96,-183 692.3,-183"/>
<polygon fill="black" stroke="black" points="692.24,-179.5 682.24,-183 692.24,-186.5 692.24,-179.5"/>
<text text-anchor="middle" x="708" y="-186.8" font-family="Helvetica,Arial,sans-serif" font-size="14.00">10</text>
</g>
<!-- 3&#45;&gt;6 -->
<g id="edge7" class="edge">
<title>3&#45;&gt;6</title>
<path fill="none" stroke="black" d="M310.45,-193.4C304.41,-194.06 297.99,-194.66 292,-195 210.82,-199.6 115.39,-195.9 64.43,-193.2"/>
<polygon fill="black" stroke="black" points="64.43,-189.7 54.26,-192.64 64.05,-196.69 64.43,-189.7"/>
<text text-anchor="middle" x="186" y="-200.8" font-family="Helvetica,Arial,sans-serif" font-size="14.00">6</text>
</g>
<!-- 3&#45;&gt;7 -->
<g id="edge6" class="edge">
<title>3&#45;&gt;7</title>
<path fill="none" stroke="black" d="M310.83,-185.39C275.12,-178.85 209.62,-166.85 169.14,-159.44"/>
<polygon fill="black" stroke="black" points="169.64,-155.97 159.18,-157.61 168.38,-162.86 169.64,-155.97"/>
<text text-anchor="middle" x="239" y="-179.8" font-family="Helvetica,Arial,sans-serif" font-size="14.00">1</text>
</g>
<!-- 3&#45;&gt;5 -->
<g id="edge4" class="edge">
<title>3&#45;&gt;5</title>
<path fill="none" stroke="black" d="M329.93,-172.43C323.34,-156.37 311.13,-133.56 292,-123 287.01,-120.25 281.32,-118.79 275.58,-118.16"/>
<polygon fill="black" stroke="black" points="275.44,-114.65 265.32,-117.81 275.2,-121.65 275.44,-114.65"/>
<text text-anchor="middle" x="288" y="-126.8" font-family="Helvetica,Arial,sans-serif" font-size="14.00">5</text>
</g>
<!-- 3&#45;&gt;4 -->
<g id="edge5" class="edge">
<title>3&#45;&gt;4</title>
<path fill="none" stroke="black" d="M364.17,-187.88C401.47,-184.86 470.05,-179.31 512.08,-175.91"/>
<polygon fill="black" stroke="black" points="512.47,-179.39 522.16,-175.09 511.91,-172.41 512.47,-179.39"/>
<text text-anchor="middle" x="443" y="-186.8" font-family="Helvetica,Arial,sans-serif" font-size="14.00">20</text>
</g>
<!-- 3&#45;&gt;1 -->
<g id="edge8" class="edge">
<title>3&#45;&gt;1</title>
<path fill="none" stroke="black" d="M359.98,-180.51C401.97,-163.59 496.46,-131.31 576,-146 593.65,-149.26 611.86,-157.57 626.24,-165.49"/>
<polygon fill="black" stroke="black" points="624.68,-168.63 635.09,-170.58 628.17,-162.56 624.68,-168.63"/>
<text text-anchor="middle" x="496" y="-148.8" font-family="Helvetica,Arial,sans-serif" font-size="14.00">10</text>
</g>
<!-- 2 -->
<g id="node8" class="node">
<title>2</title>
<ellipse fill="none" stroke="black" cx="443" cy="-236" rx="27" ry="18"/>
<text text-anchor="middle" x="443" y="-232.3" font-family="Helvetica,Arial,sans-serif" font-size="14.00">2</text>
</g>
<!-- 3&#45;&gt;2 -->
<g id="edge9" class="edge">
<title>3&#45;&gt;2</title>
<path fill="none" stroke="black" d="M354.14,-204.15C362.07,-210.44 372.04,-217.44 382,-222 389.68,-225.51 398.32,-228.19 406.61,-230.21"/>
<polygon fill="black" stroke="black" points="405.93,-233.65 416.45,-232.37 407.43,-226.81 405.93,-233.65"/>
<text text-anchor="middle" x="390" y="-230.8" font-family="Helvetica,Arial,sans-serif" font-size="14.00">11</text>
</g>
<!-- 5&#45;&gt;7 -->
<g id="edge16" class="edge">
<title>5&#45;&gt;7</title>
<path fill="none" stroke="black" d="M213.89,-129.19C200.2,-133.27 182.85,-138.44 167.82,-142.92"/>
<polygon fill="black" stroke="black" points="166.44,-139.68 157.86,-145.89 168.44,-146.39 166.44,-139.68"/>
<text text-anchor="middle" x="186" y="-142.8" font-family="Helvetica,Arial,sans-serif" font-size="14.00">3</text>
</g>
<!-- 5&#45;&gt;3 -->
<g id="edge17" class="edge">
<title>5&#45;&gt;3</title>
<path fill="none" stroke="black" d="M258.06,-134.79C272.45,-144.98 292.81,-159.41 309.12,-170.96"/>
<polygon fill="black" stroke="black" points="307.51,-174.11 317.7,-177.04 311.56,-168.4 307.51,-174.11"/>
<text text-anchor="middle" x="288" y="-161.8" font-family="Helvetica,Arial,sans-serif" font-size="14.00">3</text>
</g>
<!-- 5&#45;&gt;4 -->
<g id="edge18" class="edge">
<title>5&#45;&gt;4</title>
<path fill="none" stroke="black" d="M265.05,-116.68C273.58,-115.39 283.18,-114.5 292,-115 386.67,-120.34 416.13,-103.36 504,-139 511.38,-141.99 518.57,-146.59 524.93,-151.44"/>
<polygon fill="black" stroke="black" points="523.08,-154.45 533.03,-158.09 527.53,-149.04 523.08,-154.45"/>
<text text-anchor="middle" x="390" y="-118.8" font-family="Helvetica,Arial,sans-serif" font-size="14.00">1</text>
</g>
<!-- 4&#45;&gt;1 -->
<g id="edge19" class="edge">
<title>4&#45;&gt;1</title>
<path fill="none" stroke="black" d="M575.53,-177.54C581.57,-178.48 588,-179.37 594,-180 601.72,-180.8 610.02,-181.39 617.91,-181.83"/>
<polygon fill="black" stroke="black" points="617.81,-185.33 627.96,-182.31 618.14,-178.33 617.81,-185.33"/>
<text text-anchor="middle" x="602" y="-184.8" font-family="Helvetica,Arial,sans-serif" font-size="14.00">10</text>
</g>
<!-- 1&#45;&gt;0 -->
<g id="edge11" class="edge">
<title>1&#45;&gt;0</title>
<path fill="none" stroke="black" d="M676.97,-172.49C684.09,-169.44 692.23,-166.53 700,-165 709.98,-163.04 720.67,-164.91 730.23,-168.08"/>
<polygon fill="black" stroke="black" points="729.11,-171.4 739.7,-171.74 731.64,-164.87 729.11,-171.4"/>
<text text-anchor="middle" x="708" y="-168.8" font-family="Helvetica,Arial,sans-serif" font-size="14.00">28</text>
</g>
<!-- 1&#45;&gt;4 -->
<g id="edge10" class="edge">
<title>1&#45;&gt;4</title>
<path fill="none" stroke="black" d="M633.03,-172.49C625.91,-169.44 617.77,-166.53 610,-165 601.64,-163.36 592.56,-163.56 584.06,-164.6"/>
<polygon fill="black" stroke="black" points="583.37,-161.16 574.05,-166.21 584.48,-168.07 583.37,-161.16"/>
<text text-anchor="middle" x="602" y="-168.8" font-family="Helvetica,Arial,sans-serif" font-size="14.00">3</text>
</g>
<!-- 2&#45;&gt;0 -->
<g id="edge21" class="edge">
<title>2&#45;&gt;0</title>
<path fill="none" stroke="black" d="M470.03,-238.76C475.93,-239.28 482.18,-239.74 488,-240 527.07,-241.77 537.23,-245.17 576,-240 639.91,-231.48 655.14,-223.28 716,-202 720.27,-200.51 724.71,-198.79 729.05,-197.02"/>
<polygon fill="black" stroke="black" points="730.47,-200.22 738.31,-193.1 727.74,-193.77 730.47,-200.22"/>
<text text-anchor="middle" x="602" y="-240.8" font-family="Helvetica,Arial,sans-serif" font-size="14.00">1</text>
</g>
<!-- 2&#45;&gt;3 -->
<g id="edge20" class="edge">
<title>2&#45;&gt;3</title>
<path fill="none" stroke="black" d="M426.36,-221.65C418.4,-215.06 408.25,-207.68 398,-203 390.5,-199.58 382.06,-197.03 373.92,-195.15"/>
<polygon fill="black" stroke="black" points="374.38,-191.67 363.88,-193.11 372.98,-198.53 374.38,-191.67"/>
<text text-anchor="middle" x="390" y="-206.8" font-family="Helvetica,Arial,sans-serif" font-size="14.00">15</text>
</g>
<!-- 2&#45;&gt;4 -->
<g id="edge23" class="edge">
<title>2&#45;&gt;4</title>
<path fill="none" stroke="black" d="M462.66,-223.3C470.42,-218.12 479.57,-212.16 488,-207 497.83,-200.99 508.75,-194.69 518.55,-189.17"/>
<polygon fill="black" stroke="black" points="520.5,-192.09 527.53,-184.15 517.09,-185.97 520.5,-192.09"/>
<text text-anchor="middle" x="496" y="-210.8" font-family="Helvetica,Arial,sans-serif" font-size="14.00">2</text>
</g>
<!-- 2&#45;&gt;1 -->
<g id="edge22" class="edge">
<title>2&#45;&gt;1</title>
<path fill="none" stroke="black" d="M469.34,-231.77C502.16,-226 560.99,-214.69 610,-200 614.06,-198.78 618.28,-197.36 622.42,-195.87"/>
<polygon fill="black" stroke="black" points="623.72,-199.12 631.85,-192.33 621.26,-192.57 623.72,-199.12"/>
<text text-anchor="middle" x="549" y="-224.8" font-family="Helvetica,Arial,sans-serif" font-size="14.00">8</text>
</g>
</g>
</svg>
