<?xml version="1.0" encoding="UTF-8" standalone="no"?>
<!DOCTYPE svg PUBLIC "-//W3C//DTD SVG 1.1//EN"
 "http://www.w3.org/Graphics/SVG/1.1/DTD/svg11.dtd">
<!-- Generated by graphviz version 2.43.0 (0)
 -->
<!-- Title: create_graph Pages: 1 -->
<svg width="990pt" height="218pt"
 viewBox="0.00 0.00 990.00 218.00" xmlns="http://www.w3.org/2000/svg" xmlns:xlink="http://www.w3.org/1999/xlink">
<g id="graph0" class="graph" transform="scale(1 1) rotate(0) translate(4 214)">
<title>create_graph</title>
<polygon fill="white" stroke="transparent" points="-4,4 -4,-214 986,-214 986,4 -4,4"/>
<!-- 0 -->
<g id="node1" class="node">
<title>0</title>
<ellipse fill="none" stroke="black" cx="27" cy="-76" rx="27" ry="18"/>
<text text-anchor="middle" x="27" y="-72.3" font-family="Helvetica,Arial,sans-serif" font-size="14.00">0</text>
</g>
<!-- 2 -->
<g id="node2" class="node">
<title>2</title>
<ellipse fill="none" stroke="black" cx="125" cy="-141" rx="27" ry="18"/>
<text text-anchor="middle" x="125" y="-137.3" font-family="Helvetica,Arial,sans-serif" font-size="14.00">2</text>
</g>
<!-- 0&#45;&gt;2 -->
<g id="edge1" class="edge">
<title>0&#45;&gt;2</title>
<path fill="none" stroke="black" d="M46.51,-88.53C60.85,-98.24 80.93,-111.84 97.06,-122.76"/>
<polygon fill="black" stroke="black" points="95.3,-125.8 105.55,-128.51 99.23,-120 95.3,-125.8"/>
<text text-anchor="middle" x="76" y="-113.8" font-family="Helvetica,Arial,sans-serif" font-size="14.00">2</text>
</g>
<!-- 1 -->
<g id="node3" class="node">
<title>1</title>
<ellipse fill="none" stroke="black" cx="125" cy="-76" rx="27" ry="18"/>
<text text-anchor="middle" x="125" y="-72.3" font-family="Helvetica,Arial,sans-serif" font-size="14.00">1</text>
</g>
<!-- 0&#45;&gt;1 -->
<g id="edge2" class="edge">
<title>0&#45;&gt;1</title>
<path fill="none" stroke="black" d="M54.23,-76C64.5,-76 76.45,-76 87.53,-76"/>
<polygon fill="black" stroke="black" points="87.8,-79.5 97.8,-76 87.8,-72.5 87.8,-79.5"/>
<text text-anchor="middle" x="76" y="-79.8" font-family="Helvetica,Arial,sans-serif" font-size="14.00">4</text>
</g>
<!-- 5 -->
<g id="node6" class="node">
<title>5</title>
<ellipse fill="none" stroke="black" cx="223" cy="-149" rx="27" ry="18"/>
<text text-anchor="middle" x="223" y="-145.3" font-family="Helvetica,Arial,sans-serif" font-size="14.00">5</text>
</g>
<!-- 2&#45;&gt;5 -->
<g id="edge7" class="edge">
<title>2&#45;&gt;5</title>
<path fill="none" stroke="black" d="M151.98,-143.16C162.44,-144.04 174.68,-145.06 185.97,-146"/>
<polygon fill="black" stroke="black" points="185.74,-149.49 196,-146.83 186.33,-142.51 185.74,-149.49"/>
<text text-anchor="middle" x="174" y="-148.8" font-family="Helvetica,Arial,sans-serif" font-size="14.00">2</text>
</g>
<!-- 4 -->
<g id="node4" class="node">
<title>4</title>
<ellipse fill="none" stroke="black" cx="295" cy="-84" rx="27" ry="18"/>
<text text-anchor="middle" x="295" y="-80.3" font-family="Helvetica,Arial,sans-serif" font-size="14.00">4</text>
</g>
<!-- 1&#45;&gt;4 -->
<g id="edge3" class="edge">
<title>1&#45;&gt;4</title>
<path fill="none" stroke="black" d="M152.25,-77.25C180.61,-78.6 225.98,-80.76 257.73,-82.27"/>
<polygon fill="black" stroke="black" points="257.78,-85.78 267.93,-82.76 258.11,-78.79 257.78,-85.78"/>
<text text-anchor="middle" x="174" y="-81.8" font-family="Helvetica,Arial,sans-serif" font-size="14.00">2</text>
</g>
<!-- 6 -->
<g id="node5" class="node">
<title>6</title>
<ellipse fill="none" stroke="black" cx="661" cy="-46" rx="27" ry="18"/>
<text text-anchor="middle" x="661" y="-42.3" font-family="Helvetica,Arial,sans-serif" font-size="14.00">6</text>
</g>
<!-- 1&#45;&gt;6 -->
<g id="edge4" class="edge">
<title>1&#45;&gt;6</title>
<path fill="none" stroke="black" d="M144.98,-63.56C163.75,-52.47 193.68,-38 222,-38 222,-38 222,-38 564,-38 583.99,-38 606.25,-39.74 624.29,-41.6"/>
<polygon fill="black" stroke="black" points="624.06,-45.1 634.38,-42.7 624.81,-38.14 624.06,-45.1"/>
<text text-anchor="middle" x="416" y="-41.8" font-family="Helvetica,Arial,sans-serif" font-size="14.00">2</text>
</g>
<!-- 1&#45;&gt;5 -->
<g id="edge5" class="edge">
<title>1&#45;&gt;5</title>
<path fill="none" stroke="black" d="M143.61,-89.39C158.36,-100.61 179.61,-116.77 196.27,-129.44"/>
<polygon fill="black" stroke="black" points="194.43,-132.43 204.5,-135.7 198.66,-126.86 194.43,-132.43"/>
<text text-anchor="middle" x="174" y="-117.8" font-family="Helvetica,Arial,sans-serif" font-size="14.00">2</text>
</g>
<!-- 10 -->
<g id="node7" class="node">
<title>10</title>
<ellipse fill="none" stroke="black" cx="465" cy="-141" rx="27" ry="18"/>
<text text-anchor="middle" x="465" y="-137.3" font-family="Helvetica,Arial,sans-serif" font-size="14.00">10</text>
</g>
<!-- 4&#45;&gt;10 -->
<g id="edge6" class="edge">
<title>4&#45;&gt;10</title>
<path fill="none" stroke="black" d="M321.93,-87.23C342,-90.22 370.29,-95.51 394,-104 408.33,-109.13 423.37,-116.75 435.82,-123.74"/>
<polygon fill="black" stroke="black" points="434.36,-126.94 444.77,-128.91 437.86,-120.88 434.36,-126.94"/>
<text text-anchor="middle" x="367" y="-107.8" font-family="Helvetica,Arial,sans-serif" font-size="14.00">2</text>
</g>
<!-- 3 -->
<g id="node9" class="node">
<title>3</title>
<ellipse fill="none" stroke="black" cx="759" cy="-46" rx="27" ry="18"/>
<text text-anchor="middle" x="759" y="-42.3" font-family="Helvetica,Arial,sans-serif" font-size="14.00">3</text>
</g>
<!-- 6&#45;&gt;3 -->
<g id="edge9" class="edge">
<title>6&#45;&gt;3</title>
<path fill="none" stroke="black" d="M688.23,-46C698.5,-46 710.45,-46 721.53,-46"/>
<polygon fill="black" stroke="black" points="721.8,-49.5 731.8,-46 721.8,-42.5 721.8,-49.5"/>
<text text-anchor="middle" x="710" y="-49.8" font-family="Helvetica,Arial,sans-serif" font-size="14.00">2</text>
</g>
<!-- 5&#45;&gt;10 -->
<g id="edge18" class="edge">
<title>5&#45;&gt;10</title>
<path fill="none" stroke="black" d="M250.14,-148.13C293.15,-146.69 378.93,-143.84 427.77,-142.21"/>
<polygon fill="black" stroke="black" points="428.01,-145.7 437.89,-141.87 427.78,-138.71 428.01,-145.7"/>
<text text-anchor="middle" x="367" y="-148.8" font-family="Helvetica,Arial,sans-serif" font-size="14.00">1</text>
</g>
<!-- 7 -->
<g id="node13" class="node">
<title>7</title>
<ellipse fill="none" stroke="black" cx="367" cy="-192" rx="27" ry="18"/>
<text text-anchor="middle" x="367" y="-188.3" font-family="Helvetica,Arial,sans-serif" font-size="14.00">7</text>
</g>
<!-- 5&#45;&gt;7 -->
<g id="edge19" class="edge">
<title>5&#45;&gt;7</title>
<path fill="none" stroke="black" d="M247.77,-156.2C270.91,-163.2 306.3,-173.92 332.33,-181.81"/>
<polygon fill="black" stroke="black" points="331.57,-185.23 342.15,-184.78 333.6,-178.53 331.57,-185.23"/>
<text text-anchor="middle" x="295" y="-181.8" font-family="Helvetica,Arial,sans-serif" font-size="14.00">1</text>
</g>
<!-- 12 -->
<g id="node8" class="node">
<title>12</title>
<ellipse fill="none" stroke="black" cx="563" cy="-185" rx="27" ry="18"/>
<text text-anchor="middle" x="563" y="-181.3" font-family="Helvetica,Arial,sans-serif" font-size="14.00">12</text>
</g>
<!-- 10&#45;&gt;12 -->
<g id="edge14" class="edge">
<title>10&#45;&gt;12</title>
<path fill="none" stroke="black" d="M491.93,-139.05C500.52,-139.29 509.93,-140.55 518,-144 527.17,-147.92 535.61,-154.61 542.61,-161.47"/>
<polygon fill="black" stroke="black" points="540.17,-163.99 549.59,-168.86 545.26,-159.19 540.17,-163.99"/>
<text text-anchor="middle" x="514" y="-147.8" font-family="Helvetica,Arial,sans-serif" font-size="14.00">4</text>
</g>
<!-- 9 -->
<g id="node12" class="node">
<title>9</title>
<ellipse fill="none" stroke="black" cx="563" cy="-92" rx="27" ry="18"/>
<text text-anchor="middle" x="563" y="-88.3" font-family="Helvetica,Arial,sans-serif" font-size="14.00">9</text>
</g>
<!-- 10&#45;&gt;9 -->
<g id="edge15" class="edge">
<title>10&#45;&gt;9</title>
<path fill="none" stroke="black" d="M471.63,-123.47C478.02,-106.85 490.19,-82.86 510,-72 518.22,-67.49 527.67,-69.27 536.24,-73.21"/>
<polygon fill="black" stroke="black" points="534.66,-76.33 545.1,-78.15 538.07,-70.22 534.66,-76.33"/>
<text text-anchor="middle" x="514" y="-75.8" font-family="Helvetica,Arial,sans-serif" font-size="14.00">2</text>
</g>
<!-- 12&#45;&gt;10 -->
<g id="edge8" class="edge">
<title>12&#45;&gt;10</title>
<path fill="none" stroke="black" d="M539.6,-175.89C530.37,-172.04 519.61,-167.43 510,-163 505.49,-160.92 500.75,-158.65 496.13,-156.38"/>
<polygon fill="black" stroke="black" points="497.42,-153.11 486.91,-151.79 494.3,-159.38 497.42,-153.11"/>
<text text-anchor="middle" x="514" y="-169.8" font-family="Helvetica,Arial,sans-serif" font-size="14.00">2</text>
</g>
<!-- 3&#45;&gt;0 -->
<g id="edge10" class="edge">
<title>3&#45;&gt;0</title>
<path fill="none" stroke="black" d="M741.12,-32.2C722.81,-18.65 692.12,0 662,0 124,0 124,0 124,0 90.26,0 61.45,-29.22 44.43,-51.42"/>
<polygon fill="black" stroke="black" points="41.59,-49.37 38.5,-59.51 47.24,-53.51 41.59,-49.37"/>
<text text-anchor="middle" x="416" y="-3.8" font-family="Helvetica,Arial,sans-serif" font-size="14.00">2</text>
</g>
<!-- 8 -->
<g id="node10" class="node">
<title>8</title>
<ellipse fill="none" stroke="black" cx="857" cy="-53" rx="27" ry="18"/>
<text text-anchor="middle" x="857" y="-49.3" font-family="Helvetica,Arial,sans-serif" font-size="14.00">8</text>
</g>
<!-- 3&#45;&gt;8 -->
<g id="edge11" class="edge">
<title>3&#45;&gt;8</title>
<path fill="none" stroke="black" d="M785.98,-47.89C796.44,-48.66 808.68,-49.55 819.97,-50.37"/>
<polygon fill="black" stroke="black" points="819.77,-53.87 830,-51.1 820.28,-46.89 819.77,-53.87"/>
<text text-anchor="middle" x="808" y="-52.8" font-family="Helvetica,Arial,sans-serif" font-size="14.00">2</text>
</g>
<!-- 11 -->
<g id="node11" class="node">
<title>11</title>
<ellipse fill="none" stroke="black" cx="955" cy="-78" rx="27" ry="18"/>
<text text-anchor="middle" x="955" y="-74.3" font-family="Helvetica,Arial,sans-serif" font-size="14.00">11</text>
</g>
<!-- 8&#45;&gt;11 -->
<g id="edge12" class="edge">
<title>8&#45;&gt;11</title>
<path fill="none" stroke="black" d="M882.47,-59.37C893.76,-62.31 907.35,-65.85 919.63,-69.05"/>
<polygon fill="black" stroke="black" points="919.01,-72.51 929.57,-71.64 920.78,-65.73 919.01,-72.51"/>
<text text-anchor="middle" x="906" y="-69.8" font-family="Helvetica,Arial,sans-serif" font-size="14.00">2</text>
</g>
<!-- 11&#45;&gt;9 -->
<g id="edge13" class="edge">
<title>11&#45;&gt;9</title>
<path fill="none" stroke="black" d="M931.09,-86.7C911.87,-93.21 883.54,-101 858,-101 660,-101 660,-101 660,-101 639.99,-101 617.73,-99.04 599.69,-96.95"/>
<polygon fill="black" stroke="black" points="599.96,-93.45 589.61,-95.71 599.11,-100.4 599.96,-93.45"/>
<text text-anchor="middle" x="759" y="-104.8" font-family="Helvetica,Arial,sans-serif" font-size="14.00">2</text>
</g>
<!-- 9&#45;&gt;6 -->
<g id="edge16" class="edge">
<title>9&#45;&gt;6</title>
<path fill="none" stroke="black" d="M585.31,-81.79C598.27,-75.58 615.03,-67.55 629.39,-60.67"/>
<polygon fill="black" stroke="black" points="630.92,-63.82 638.42,-56.34 627.89,-57.5 630.92,-63.82"/>
<text text-anchor="middle" x="612" y="-73.8" font-family="Helvetica,Arial,sans-serif" font-size="14.00">2</text>
</g>
<!-- 9&#45;&gt;10 -->
<g id="edge17" class="edge">
<title>9&#45;&gt;10</title>
<path fill="none" stroke="black" d="M540.88,-102.78C527.7,-109.51 510.53,-118.27 495.96,-125.71"/>
<polygon fill="black" stroke="black" points="494.15,-122.7 486.83,-130.37 497.33,-128.94 494.15,-122.7"/>
<text text-anchor="middle" x="514" y="-120.8" font-family="Helvetica,Arial,sans-serif" font-size="14.00">2</text>
</g>
<!-- 7&#45;&gt;10 -->
<g id="edge21" class="edge">
<title>7&#45;&gt;10</title>
<path fill="none" stroke="black" d="M388.83,-180.93C402.04,-173.92 419.34,-164.72 434.02,-156.93"/>
<polygon fill="black" stroke="black" points="436.02,-159.83 443.21,-152.04 432.74,-153.65 436.02,-159.83"/>
<text text-anchor="middle" x="416" y="-171.8" font-family="Helvetica,Arial,sans-serif" font-size="14.00">1</text>
</g>
<!-- 7&#45;&gt;12 -->
<g id="edge20" class="edge">
<title>7&#45;&gt;12</title>
<path fill="none" stroke="black" d="M394.16,-191.06C428.1,-189.83 487.48,-187.69 525.75,-186.31"/>
<polygon fill="black" stroke="black" points="526.07,-189.8 535.94,-185.94 525.82,-182.8 526.07,-189.8"/>
<text text-anchor="middle" x="465" y="-192.8" font-family="Helvetica,Arial,sans-serif" font-size="14.00">2</text>
</g>
</g>
</svg>
