<?xml version="1.0" encoding="UTF-8" standalone="no"?>
<!DOCTYPE svg PUBLIC "-//W3C//DTD SVG 1.1//EN"
 "http://www.w3.org/Graphics/SVG/1.1/DTD/svg11.dtd">
<!-- Generated by graphviz version 2.43.0 (0)
 -->
<!-- Title: create_graph Pages: 1 -->
<svg width="356pt" height="86pt"
 viewBox="0.00 0.00 356.00 86.00" xmlns="http://www.w3.org/2000/svg" xmlns:xlink="http://www.w3.org/1999/xlink">
<g id="graph0" class="graph" transform="scale(1 1) rotate(0) translate(4 82)">
<title>create_graph</title>
<polygon fill="white" stroke="transparent" points="-4,4 -4,-82 352,-82 352,4 -4,4"/>
<!-- 1 -->
<g id="node1" class="node">
<title>1</title>
<ellipse fill="none" stroke="black" cx="125" cy="-60" rx="27" ry="18"/>
<text text-anchor="middle" x="125" y="-56.3" font-family="Helvetica,Arial,sans-serif" font-size="14.00">1</text>
</g>
<!-- 3 -->
<g id="node2" class="node">
<title>3</title>
<ellipse fill="none" stroke="black" cx="321" cy="-45" rx="27" ry="18"/>
<text text-anchor="middle" x="321" y="-41.3" font-family="Helvetica,Arial,sans-serif" font-size="14.00">3</text>
</g>
<!-- 1&#45;&gt;3 -->
<g id="edge1" class="edge">
<title>1&#45;&gt;3</title>
<path fill="none" stroke="black" d="M152.19,-59.16C160.45,-58.85 169.61,-58.46 178,-58 221.6,-55.61 232.57,-55.51 276,-51 278.71,-50.72 281.51,-50.4 284.33,-50.06"/>
<polygon fill="black" stroke="black" points="284.97,-53.51 294.44,-48.77 284.08,-46.56 284.97,-53.51"/>
<text text-anchor="middle" x="223" y="-60.8" font-family="Helvetica,Arial,sans-serif" font-size="14.00">1</text>
</g>
<!-- 2 -->
<g id="node3" class="node">
<title>2</title>
<ellipse fill="none" stroke="black" cx="223" cy="-18" rx="27" ry="18"/>
<text text-anchor="middle" x="223" y="-14.3" font-family="Helvetica,Arial,sans-serif" font-size="14.00">2</text>
</g>
<!-- 1&#45;&gt;2 -->
<g id="edge2" class="edge">
<title>1&#45;&gt;2</title>
<path fill="none" stroke="black" d="M148.27,-50.26C160.87,-44.75 176.83,-37.76 190.67,-31.71"/>
<polygon fill="black" stroke="black" points="192.1,-34.9 199.86,-27.69 189.29,-28.49 192.1,-34.9"/>
<text text-anchor="middle" x="174" y="-43.8" font-family="Helvetica,Arial,sans-serif" font-size="14.00">3</text>
</g>
<!-- 2&#45;&gt;3 -->
<g id="edge3" class="edge">
<title>2&#45;&gt;3</title>
<path fill="none" stroke="black" d="M248.22,-24.81C259.71,-28.04 273.62,-31.96 286.13,-35.47"/>
<polygon fill="black" stroke="black" points="285.21,-38.85 295.78,-38.19 287.1,-32.11 285.21,-38.85"/>
<text text-anchor="middle" x="272" y="-35.8" font-family="Helvetica,Arial,sans-serif" font-size="14.00">5</text>
</g>
<!-- 0 -->
<g id="node4" class="node">
<title>0</title>
<ellipse fill="none" stroke="black" cx="27" cy="-30" rx="27" ry="18"/>
<text text-anchor="middle" x="27" y="-26.3" font-family="Helvetica,Arial,sans-serif" font-size="14.00">0</text>
</g>
<!-- 0&#45;&gt;1 -->
<g id="edge5" class="edge">
<title>0&#45;&gt;1</title>
<path fill="none" stroke="black" d="M51.73,-37.42C63.38,-41.06 77.63,-45.51 90.38,-49.49"/>
<polygon fill="black" stroke="black" points="89.62,-52.92 100.21,-52.57 91.71,-46.24 89.62,-52.92"/>
<text text-anchor="middle" x="76" y="-48.8" font-family="Helvetica,Arial,sans-serif" font-size="14.00">2</text>
</g>
<!-- 0&#45;&gt;2 -->
<g id="edge4" class="edge">
<title>0&#45;&gt;2</title>
<path fill="none" stroke="black" d="M52.81,-24.69C66.14,-22.11 82.89,-19.29 98,-18 127.47,-15.49 161.02,-15.68 185.78,-16.38"/>
<polygon fill="black" stroke="black" points="185.71,-19.88 195.82,-16.71 185.94,-12.89 185.71,-19.88"/>
<text text-anchor="middle" x="125" y="-21.8" font-family="Helvetica,Arial,sans-serif" font-size="14.00">4</text>
</g>
</g>
</svg>
