<?xml version="1.0" encoding="UTF-8" standalone="no"?>
<!DOCTYPE svg PUBLIC "-//W3C//DTD SVG 1.1//EN"
 "http://www.w3.org/Graphics/SVG/1.1/DTD/svg11.dtd">
<!-- Generated by graphviz version 2.43.0 (0)
 -->
<!-- Title: create_graph Pages: 1 -->
<svg width="486pt" height="155pt"
 viewBox="0.00 0.00 486.00 155.00" xmlns="http://www.w3.org/2000/svg" xmlns:xlink="http://www.w3.org/1999/xlink">
<g id="graph0" class="graph" transform="scale(1 1) rotate(0) translate(4 151)">
<title>create_graph</title>
<polygon fill="white" stroke="transparent" points="-4,4 -4,-151 482,-151 482,4 -4,4"/>
<!-- 4 -->
<g id="node1" class="node">
<title>4</title>
<ellipse fill="none" stroke="black" cx="345" cy="-77" rx="27" ry="18"/>
<text text-anchor="middle" x="345" y="-73.3" font-family="Helvetica,Arial,sans-serif" font-size="14.00">4</text>
</g>
<!-- 5 -->
<g id="node2" class="node">
<title>5</title>
<ellipse fill="none" stroke="black" cx="451" cy="-108" rx="27" ry="18"/>
<text text-anchor="middle" x="451" y="-104.3" font-family="Helvetica,Arial,sans-serif" font-size="14.00">5</text>
</g>
<!-- 4&#45;&gt;5 -->
<g id="edge1" class="edge">
<title>4&#45;&gt;5</title>
<path fill="none" stroke="black" d="M369.86,-84.11C383.5,-88.18 400.84,-93.35 415.9,-97.84"/>
<polygon fill="black" stroke="black" points="415.31,-101.31 425.89,-100.81 417.31,-94.6 415.31,-101.31"/>
<text text-anchor="middle" x="398" y="-97.8" font-family="Helvetica,Arial,sans-serif" font-size="14.00">14</text>
</g>
<!-- 1 -->
<g id="node3" class="node">
<title>1</title>
<ellipse fill="none" stroke="black" cx="239" cy="-129" rx="27" ry="18"/>
<text text-anchor="middle" x="239" y="-125.3" font-family="Helvetica,Arial,sans-serif" font-size="14.00">1</text>
</g>
<!-- 1&#45;&gt;4 -->
<g id="edge3" class="edge">
<title>1&#45;&gt;4</title>
<path fill="none" stroke="black" d="M260.52,-118.1C267.9,-114.23 276.3,-109.87 284,-106 293.54,-101.2 303.99,-96.1 313.46,-91.53"/>
<polygon fill="black" stroke="black" points="315.04,-94.66 322.54,-87.17 312.01,-88.35 315.04,-94.66"/>
<text text-anchor="middle" x="292" y="-109.8" font-family="Helvetica,Arial,sans-serif" font-size="14.00">1</text>
</g>
<!-- 1&#45;&gt;5 -->
<g id="edge2" class="edge">
<title>1&#45;&gt;5</title>
<path fill="none" stroke="black" d="M265.89,-126.64C298.56,-123.64 356.47,-118.2 406,-113 408.54,-112.73 411.17,-112.45 413.81,-112.16"/>
<polygon fill="black" stroke="black" points="414.4,-115.62 423.95,-111.03 413.62,-108.66 414.4,-115.62"/>
<text text-anchor="middle" x="345" y="-124.8" font-family="Helvetica,Arial,sans-serif" font-size="14.00">21</text>
</g>
<!-- 3 -->
<g id="node4" class="node">
<title>3</title>
<ellipse fill="none" stroke="black" cx="133" cy="-72" rx="27" ry="18"/>
<text text-anchor="middle" x="133" y="-68.3" font-family="Helvetica,Arial,sans-serif" font-size="14.00">3</text>
</g>
<!-- 3&#45;&gt;4 -->
<g id="edge6" class="edge">
<title>3&#45;&gt;4</title>
<path fill="none" stroke="black" d="M160.17,-72.62C197.37,-73.51 265.68,-75.14 307.74,-76.14"/>
<polygon fill="black" stroke="black" points="307.75,-79.64 317.83,-76.38 307.91,-72.64 307.75,-79.64"/>
<text text-anchor="middle" x="239" y="-78.8" font-family="Helvetica,Arial,sans-serif" font-size="14.00">5</text>
</g>
<!-- 3&#45;&gt;1 -->
<g id="edge4" class="edge">
<title>3&#45;&gt;1</title>
<path fill="none" stroke="black" d="M154.55,-83.26C169.93,-91.69 191.2,-103.35 208.41,-112.78"/>
<polygon fill="black" stroke="black" points="207.04,-116.02 217.5,-117.76 210.41,-109.89 207.04,-116.02"/>
<text text-anchor="middle" x="186" y="-106.8" font-family="Helvetica,Arial,sans-serif" font-size="14.00">11</text>
</g>
<!-- 2 -->
<g id="node5" class="node">
<title>2</title>
<ellipse fill="none" stroke="black" cx="239" cy="-18" rx="27" ry="18"/>
<text text-anchor="middle" x="239" y="-14.3" font-family="Helvetica,Arial,sans-serif" font-size="14.00">2</text>
</g>
<!-- 3&#45;&gt;2 -->
<g id="edge5" class="edge">
<title>3&#45;&gt;2</title>
<path fill="none" stroke="black" d="M151.94,-59.07C159.74,-53.74 169.11,-47.73 178,-43 186.71,-38.37 196.46,-33.99 205.53,-30.22"/>
<polygon fill="black" stroke="black" points="207.06,-33.38 215.03,-26.4 204.44,-26.89 207.06,-33.38"/>
<text text-anchor="middle" x="186" y="-46.8" font-family="Helvetica,Arial,sans-serif" font-size="14.00">2</text>
</g>
<!-- 2&#45;&gt;4 -->
<g id="edge7" class="edge">
<title>2&#45;&gt;4</title>
<path fill="none" stroke="black" d="M263.18,-26.02C274.61,-30.38 288.39,-36.25 300,-43 306.77,-46.93 313.67,-51.79 319.93,-56.59"/>
<polygon fill="black" stroke="black" points="318.01,-59.52 328.01,-63 322.36,-54.04 318.01,-59.52"/>
<text text-anchor="middle" x="292" y="-46.8" font-family="Helvetica,Arial,sans-serif" font-size="14.00">12</text>
</g>
<!-- 0 -->
<g id="node6" class="node">
<title>0</title>
<ellipse fill="none" stroke="black" cx="27" cy="-72" rx="27" ry="18"/>
<text text-anchor="middle" x="27" y="-68.3" font-family="Helvetica,Arial,sans-serif" font-size="14.00">0</text>
</g>
<!-- 0&#45;&gt;1 -->
<g id="edge8" class="edge">
<title>0&#45;&gt;1</title>
<path fill="none" stroke="black" d="M49.71,-82.05C56.74,-85.12 64.63,-88.38 72,-91 118.13,-107.41 130.06,-111.07 178,-121 185.73,-122.6 194.08,-123.95 202.04,-125.06"/>
<polygon fill="black" stroke="black" points="201.8,-128.56 212.17,-126.38 202.71,-121.62 201.8,-128.56"/>
<text text-anchor="middle" x="133" y="-120.8" font-family="Helvetica,Arial,sans-serif" font-size="14.00">7</text>
</g>
<!-- 0&#45;&gt;3 -->
<g id="edge9" class="edge">
<title>0&#45;&gt;3</title>
<path fill="none" stroke="black" d="M54.24,-72C66.81,-72 82.05,-72 95.71,-72"/>
<polygon fill="black" stroke="black" points="95.76,-75.5 105.76,-72 95.76,-68.5 95.76,-75.5"/>
<text text-anchor="middle" x="80" y="-75.8" font-family="Helvetica,Arial,sans-serif" font-size="14.00">10</text>
</g>
<!-- 0&#45;&gt;2 -->
<g id="edge10" class="edge">
<title>0&#45;&gt;2</title>
<path fill="none" stroke="black" d="M46.3,-59.38C61.54,-49.57 84.2,-36.56 106,-30 137.42,-20.55 174.78,-17.9 201.73,-17.41"/>
<polygon fill="black" stroke="black" points="201.9,-20.91 211.87,-17.32 201.84,-13.91 201.9,-20.91"/>
<text text-anchor="middle" x="133" y="-33.8" font-family="Helvetica,Arial,sans-serif" font-size="14.00">8</text>
</g>
</g>
</svg>
