<?xml version="1.0" encoding="UTF-8" standalone="no"?>
<!DOCTYPE svg PUBLIC "-//W3C//DTD SVG 1.1//EN"
 "http://www.w3.org/Graphics/SVG/1.1/DTD/svg11.dtd">
<!-- Generated by graphviz version 2.43.0 (0)
 -->
<!-- Title: create_graph Pages: 1 -->
<svg width="356pt" height="139pt"
 viewBox="0.00 0.00 356.00 139.00" xmlns="http://www.w3.org/2000/svg" xmlns:xlink="http://www.w3.org/1999/xlink">
<g id="graph0" class="graph" transform="scale(1 1) rotate(0) translate(4 135)">
<title>create_graph</title>
<polygon fill="white" stroke="transparent" points="-4,4 -4,-135 352,-135 352,4 -4,4"/>
<!-- 3 -->
<g id="node1" class="node">
<title>3</title>
<ellipse fill="none" stroke="black" cx="125" cy="-38" rx="27" ry="18"/>
<text text-anchor="middle" x="125" y="-34.3" font-family="Helvetica,Arial,sans-serif" font-size="14.00">3</text>
</g>
<!-- 1 -->
<g id="node2" class="node">
<title>1</title>
<ellipse fill="none" stroke="black" cx="223" cy="-56" rx="27" ry="18"/>
<text text-anchor="middle" x="223" y="-52.3" font-family="Helvetica,Arial,sans-serif" font-size="14.00">1</text>
</g>
<!-- 3&#45;&gt;1 -->
<g id="edge1" class="edge">
<title>3&#45;&gt;1</title>
<path fill="none" stroke="black" d="M151.22,-42.73C162.05,-44.76 174.89,-47.17 186.64,-49.37"/>
<polygon fill="black" stroke="black" points="186.14,-52.84 196.61,-51.24 187.43,-45.96 186.14,-52.84"/>
<text text-anchor="middle" x="174" y="-51.8" font-family="Helvetica,Arial,sans-serif" font-size="14.00">5</text>
</g>
<!-- 2 -->
<g id="node3" class="node">
<title>2</title>
<ellipse fill="none" stroke="black" cx="321" cy="-18" rx="27" ry="18"/>
<text text-anchor="middle" x="321" y="-14.3" font-family="Helvetica,Arial,sans-serif" font-size="14.00">2</text>
</g>
<!-- 1&#45;&gt;2 -->
<g id="edge7" class="edge">
<title>1&#45;&gt;2</title>
<path fill="none" stroke="black" d="M246.75,-46.99C259.06,-42.12 274.48,-36.02 287.99,-30.67"/>
<polygon fill="black" stroke="black" points="289.4,-33.88 297.41,-26.94 286.83,-27.37 289.4,-33.88"/>
<text text-anchor="middle" x="272" y="-42.8" font-family="Helvetica,Arial,sans-serif" font-size="14.00">3</text>
</g>
<!-- 0 -->
<g id="node6" class="node">
<title>0</title>
<ellipse fill="none" stroke="black" cx="321" cy="-113" rx="27" ry="18"/>
<text text-anchor="middle" x="321" y="-109.3" font-family="Helvetica,Arial,sans-serif" font-size="14.00">0</text>
</g>
<!-- 1&#45;&gt;0 -->
<g id="edge8" class="edge">
<title>1&#45;&gt;0</title>
<path fill="none" stroke="black" d="M243.89,-67.81C257.54,-75.91 275.86,-86.79 291.11,-95.84"/>
<polygon fill="black" stroke="black" points="289.75,-99.11 300.13,-101.2 293.32,-93.09 289.75,-99.11"/>
<text text-anchor="middle" x="272" y="-89.8" font-family="Helvetica,Arial,sans-serif" font-size="14.00">7</text>
</g>
<!-- 2&#45;&gt;1 -->
<g id="edge2" class="edge">
<title>2&#45;&gt;1</title>
<path fill="none" stroke="black" d="M294.23,-15.11C285.65,-15.03 276.2,-15.92 268,-19 259.54,-22.18 251.56,-27.74 244.77,-33.6"/>
<polygon fill="black" stroke="black" points="242.32,-31.1 237.41,-40.49 247.1,-36.21 242.32,-31.1"/>
<text text-anchor="middle" x="272" y="-22.8" font-family="Helvetica,Arial,sans-serif" font-size="14.00">7</text>
</g>
<!-- 5 -->
<g id="node4" class="node">
<title>5</title>
<ellipse fill="none" stroke="black" cx="125" cy="-96" rx="27" ry="18"/>
<text text-anchor="middle" x="125" y="-92.3" font-family="Helvetica,Arial,sans-serif" font-size="14.00">5</text>
</g>
<!-- 4 -->
<g id="node5" class="node">
<title>4</title>
<ellipse fill="none" stroke="black" cx="27" cy="-43" rx="27" ry="18"/>
<text text-anchor="middle" x="27" y="-39.3" font-family="Helvetica,Arial,sans-serif" font-size="14.00">4</text>
</g>
<!-- 5&#45;&gt;4 -->
<g id="edge3" class="edge">
<title>5&#45;&gt;4</title>
<path fill="none" stroke="black" d="M107.61,-82C99.63,-75.64 89.69,-68.36 80,-63 74.17,-59.77 67.71,-56.83 61.38,-54.26"/>
<polygon fill="black" stroke="black" points="62.25,-50.85 51.66,-50.53 59.74,-57.38 62.25,-50.85"/>
<text text-anchor="middle" x="76" y="-66.8" font-family="Helvetica,Arial,sans-serif" font-size="14.00">7</text>
</g>
<!-- 4&#45;&gt;3 -->
<g id="edge5" class="edge">
<title>4&#45;&gt;3</title>
<path fill="none" stroke="black" d="M48.97,-32.49C56.09,-29.44 64.23,-26.53 72,-25 78.53,-23.72 85.47,-24.16 92.08,-25.48"/>
<polygon fill="black" stroke="black" points="91.54,-28.95 102.1,-28.13 93.33,-22.19 91.54,-28.95"/>
<text text-anchor="middle" x="76" y="-28.8" font-family="Helvetica,Arial,sans-serif" font-size="14.00">5</text>
</g>
<!-- 4&#45;&gt;2 -->
<g id="edge4" class="edge">
<title>4&#45;&gt;2</title>
<path fill="none" stroke="black" d="M47.35,-31.02C60.94,-23.4 79.87,-14.37 98,-11 163.11,1.09 240.77,-6.19 284.84,-12.29"/>
<polygon fill="black" stroke="black" points="284.37,-15.76 294.76,-13.73 285.37,-8.83 284.37,-15.76"/>
<text text-anchor="middle" x="174" y="-8.8" font-family="Helvetica,Arial,sans-serif" font-size="14.00">7</text>
</g>
<!-- 4&#45;&gt;5 -->
<g id="edge6" class="edge">
<title>4&#45;&gt;5</title>
<path fill="none" stroke="black" d="M43.37,-57.36C51.43,-64.31 61.74,-72.36 72,-78 77.66,-81.11 83.95,-83.83 90.16,-86.16"/>
<polygon fill="black" stroke="black" points="89.13,-89.5 99.72,-89.48 91.42,-82.89 89.13,-89.5"/>
<text text-anchor="middle" x="76" y="-84.8" font-family="Helvetica,Arial,sans-serif" font-size="14.00">8</text>
</g>
<!-- 0&#45;&gt;1 -->
<g id="edge9" class="edge">
<title>0&#45;&gt;1</title>
<path fill="none" stroke="black" d="M293.76,-112.45C285.15,-111.39 275.79,-109.22 268,-105 257.22,-99.17 247.75,-89.63 240.39,-80.51"/>
<polygon fill="black" stroke="black" points="243.06,-78.24 234.24,-72.37 237.48,-82.46 243.06,-78.24"/>
<text text-anchor="middle" x="272" y="-111.8" font-family="Helvetica,Arial,sans-serif" font-size="14.00">3</text>
</g>
</g>
</svg>
