<?xml version="1.0" encoding="UTF-8" standalone="no"?>
<!DOCTYPE svg PUBLIC "-//W3C//DTD SVG 1.1//EN"
 "http://www.w3.org/Graphics/SVG/1.1/DTD/svg11.dtd">
<!-- Generated by graphviz version 2.43.0 (0)
 -->
<!-- Title: create_graph Pages: 1 -->
<svg width="478pt" height="106pt"
 viewBox="0.00 0.00 478.00 106.00" xmlns="http://www.w3.org/2000/svg" xmlns:xlink="http://www.w3.org/1999/xlink">
<g id="graph0" class="graph" transform="scale(1 1) rotate(0) translate(4 102)">
<title>create_graph</title>
<polygon fill="white" stroke="transparent" points="-4,4 -4,-102 474,-102 474,4 -4,4"/>
<!-- 0 -->
<g id="node1" class="node">
<title>0</title>
<ellipse fill="none" stroke="black" cx="27" cy="-25" rx="27" ry="18"/>
<text text-anchor="middle" x="27" y="-21.3" font-family="Helvetica,Arial,sans-serif" font-size="14.00">0</text>
</g>
<!-- 1 -->
<g id="node2" class="node">
<title>1</title>
<ellipse fill="none" stroke="black" cx="133" cy="-25" rx="27" ry="18"/>
<text text-anchor="middle" x="133" y="-21.3" font-family="Helvetica,Arial,sans-serif" font-size="14.00">1</text>
</g>
<!-- 0&#45;&gt;1 -->
<g id="edge1" class="edge">
<title>0&#45;&gt;1</title>
<path fill="none" stroke="black" d="M54.24,-25C66.81,-25 82.05,-25 95.71,-25"/>
<polygon fill="black" stroke="black" points="95.76,-28.5 105.76,-25 95.76,-21.5 95.76,-28.5"/>
<text text-anchor="middle" x="80" y="-28.8" font-family="Helvetica,Arial,sans-serif" font-size="14.00">10</text>
</g>
<!-- 2 -->
<g id="node6" class="node">
<title>2</title>
<ellipse fill="none" stroke="black" cx="239" cy="-55" rx="27" ry="18"/>
<text text-anchor="middle" x="239" y="-51.3" font-family="Helvetica,Arial,sans-serif" font-size="14.00">2</text>
</g>
<!-- 1&#45;&gt;2 -->
<g id="edge5" class="edge">
<title>1&#45;&gt;2</title>
<path fill="none" stroke="black" d="M158.12,-31.96C171.77,-35.9 189.06,-40.88 204.06,-45.21"/>
<polygon fill="black" stroke="black" points="203.43,-48.67 214.01,-48.08 205.37,-41.95 203.43,-48.67"/>
<text text-anchor="middle" x="186" y="-44.8" font-family="Helvetica,Arial,sans-serif" font-size="14.00">10</text>
</g>
<!-- 4 -->
<g id="node3" class="node">
<title>4</title>
<ellipse fill="none" stroke="black" cx="337" cy="-55" rx="27" ry="18"/>
<text text-anchor="middle" x="337" y="-51.3" font-family="Helvetica,Arial,sans-serif" font-size="14.00">4</text>
</g>
<!-- 5 -->
<g id="node4" class="node">
<title>5</title>
<ellipse fill="none" stroke="black" cx="443" cy="-80" rx="27" ry="18"/>
<text text-anchor="middle" x="443" y="-76.3" font-family="Helvetica,Arial,sans-serif" font-size="14.00">5</text>
</g>
<!-- 4&#45;&gt;5 -->
<g id="edge2" class="edge">
<title>4&#45;&gt;5</title>
<path fill="none" stroke="black" d="M362.65,-60.92C376.02,-64.14 392.77,-68.16 407.42,-71.69"/>
<polygon fill="black" stroke="black" points="406.63,-75.1 417.17,-74.03 408.26,-68.29 406.63,-75.1"/>
<text text-anchor="middle" x="390" y="-71.8" font-family="Helvetica,Arial,sans-serif" font-size="14.00">15</text>
</g>
<!-- 3 -->
<g id="node5" class="node">
<title>3</title>
<ellipse fill="none" stroke="black" cx="443" cy="-18" rx="27" ry="18"/>
<text text-anchor="middle" x="443" y="-14.3" font-family="Helvetica,Arial,sans-serif" font-size="14.00">3</text>
</g>
<!-- 4&#45;&gt;3 -->
<g id="edge3" class="edge">
<title>4&#45;&gt;3</title>
<path fill="none" stroke="black" d="M361.08,-46.79C375.12,-41.79 393.28,-35.33 408.84,-29.8"/>
<polygon fill="black" stroke="black" points="410.38,-32.97 418.62,-26.32 408.03,-26.37 410.38,-32.97"/>
<text text-anchor="middle" x="390" y="-41.8" font-family="Helvetica,Arial,sans-serif" font-size="14.00">5</text>
</g>
<!-- 3&#45;&gt;1 -->
<g id="edge6" class="edge">
<title>3&#45;&gt;1</title>
<path fill="none" stroke="black" d="M415.75,-18.6C360.68,-19.85 233.02,-22.75 170.22,-24.18"/>
<polygon fill="black" stroke="black" points="169.91,-20.68 159.99,-24.41 170.07,-27.68 169.91,-20.68"/>
<text text-anchor="middle" x="288" y="-24.8" font-family="Helvetica,Arial,sans-serif" font-size="14.00">5</text>
</g>
<!-- 2&#45;&gt;4 -->
<g id="edge4" class="edge">
<title>2&#45;&gt;4</title>
<path fill="none" stroke="black" d="M266.23,-55C276.5,-55 288.45,-55 299.53,-55"/>
<polygon fill="black" stroke="black" points="299.8,-58.5 309.8,-55 299.8,-51.5 299.8,-58.5"/>
<text text-anchor="middle" x="288" y="-58.8" font-family="Helvetica,Arial,sans-serif" font-size="14.00">7</text>
</g>
</g>
</svg>
