<?xml version="1.0" encoding="UTF-8" standalone="no"?>
<!DOCTYPE svg PUBLIC "-//W3C//DTD SVG 1.1//EN"
 "http://www.w3.org/Graphics/SVG/1.1/DTD/svg11.dtd">
<!-- Generated by graphviz version 2.43.0 (0)
 -->
<!-- Title: create_graph Pages: 1 -->
<svg width="696pt" height="272pt"
 viewBox="0.00 0.00 696.00 272.00" xmlns="http://www.w3.org/2000/svg" xmlns:xlink="http://www.w3.org/1999/xlink">
<g id="graph0" class="graph" transform="scale(1 1) rotate(0) translate(4 268)">
<title>create_graph</title>
<polygon fill="white" stroke="transparent" points="-4,4 -4,-268 692,-268 692,4 -4,4"/>
<!-- 7 -->
<g id="node1" class="node">
<title>7</title>
<ellipse fill="none" stroke="black" cx="367" cy="-161" rx="27" ry="18"/>
<text text-anchor="middle" x="367" y="-157.3" font-family="Helvetica,Arial,sans-serif" font-size="14.00">7</text>
</g>
<!-- 10 -->
<g id="node2" class="node">
<title>10</title>
<ellipse fill="none" stroke="black" cx="563" cy="-158" rx="27" ry="18"/>
<text text-anchor="middle" x="563" y="-154.3" font-family="Helvetica,Arial,sans-serif" font-size="14.00">10</text>
</g>
<!-- 7&#45;&gt;10 -->
<g id="edge1" class="edge">
<title>7&#45;&gt;10</title>
<path fill="none" stroke="black" d="M394.16,-160.6C428.1,-160.07 487.48,-159.15 525.75,-158.56"/>
<polygon fill="black" stroke="black" points="526,-162.06 535.94,-158.4 525.89,-155.06 526,-162.06"/>
<text text-anchor="middle" x="465" y="-162.8" font-family="Helvetica,Arial,sans-serif" font-size="14.00">1</text>
</g>
<!-- 12 -->
<g id="node3" class="node">
<title>12</title>
<ellipse fill="none" stroke="black" cx="661" cy="-181" rx="27" ry="18"/>
<text text-anchor="middle" x="661" y="-177.3" font-family="Helvetica,Arial,sans-serif" font-size="14.00">12</text>
</g>
<!-- 7&#45;&gt;12 -->
<g id="edge2" class="edge">
<title>7&#45;&gt;12</title>
<path fill="none" stroke="black" d="M391.6,-168.61C398.16,-170.55 405.31,-172.51 412,-174 423.41,-176.55 426.38,-176.69 438,-178 513.24,-186.46 532.32,-186.9 608,-189 611.55,-189.1 612.46,-189.32 616,-189 618.9,-188.74 621.89,-188.38 624.89,-187.96"/>
<polygon fill="black" stroke="black" points="625.65,-191.39 634.98,-186.35 624.55,-184.47 625.65,-191.39"/>
<text text-anchor="middle" x="514" y="-188.8" font-family="Helvetica,Arial,sans-serif" font-size="14.00">2</text>
</g>
<!-- 10&#45;&gt;12 -->
<g id="edge11" class="edge">
<title>10&#45;&gt;12</title>
<path fill="none" stroke="black" d="M588.72,-163.92C599.92,-166.61 613.35,-169.82 625.51,-172.74"/>
<polygon fill="black" stroke="black" points="624.82,-176.17 635.36,-175.1 626.45,-169.36 624.82,-176.17"/>
<text text-anchor="middle" x="612" y="-173.8" font-family="Helvetica,Arial,sans-serif" font-size="14.00">6</text>
</g>
<!-- 5 -->
<g id="node4" class="node">
<title>5</title>
<ellipse fill="none" stroke="black" cx="223" cy="-141" rx="27" ry="18"/>
<text text-anchor="middle" x="223" y="-137.3" font-family="Helvetica,Arial,sans-serif" font-size="14.00">5</text>
</g>
<!-- 5&#45;&gt;7 -->
<g id="edge3" class="edge">
<title>5&#45;&gt;7</title>
<path fill="none" stroke="black" d="M249.72,-144.62C272.23,-147.79 305.18,-152.43 330.26,-155.97"/>
<polygon fill="black" stroke="black" points="330.09,-159.48 340.48,-157.41 331.06,-152.54 330.09,-159.48"/>
<text text-anchor="middle" x="295" y="-157.8" font-family="Helvetica,Arial,sans-serif" font-size="14.00">1</text>
</g>
<!-- 5&#45;&gt;10 -->
<g id="edge4" class="edge">
<title>5&#45;&gt;10</title>
<path fill="none" stroke="black" d="M250.24,-138.96C273.74,-137.25 309.15,-134.93 340,-134 363.99,-133.28 370.06,-132.3 394,-134 440.21,-137.28 493.03,-145.59 526.91,-151.51"/>
<polygon fill="black" stroke="black" points="526.33,-154.96 536.79,-153.26 527.55,-148.07 526.33,-154.96"/>
<text text-anchor="middle" x="416" y="-139.8" font-family="Helvetica,Arial,sans-serif" font-size="14.00">1</text>
</g>
<!-- 9 -->
<g id="node5" class="node">
<title>9</title>
<ellipse fill="none" stroke="black" cx="465" cy="-69" rx="27" ry="18"/>
<text text-anchor="middle" x="465" y="-65.3" font-family="Helvetica,Arial,sans-serif" font-size="14.00">9</text>
</g>
<!-- 9&#45;&gt;10 -->
<g id="edge5" class="edge">
<title>9&#45;&gt;10</title>
<path fill="none" stroke="black" d="M491.3,-73.46C500.41,-75.99 510.33,-79.93 518,-86 532.8,-97.7 543.84,-115.85 551.17,-131"/>
<polygon fill="black" stroke="black" points="548.12,-132.77 555.44,-140.43 554.5,-129.87 548.12,-132.77"/>
<text text-anchor="middle" x="514" y="-89.8" font-family="Helvetica,Arial,sans-serif" font-size="14.00">4</text>
</g>
<!-- 11 -->
<g id="node6" class="node">
<title>11</title>
<ellipse fill="none" stroke="black" cx="367" cy="-18" rx="27" ry="18"/>
<text text-anchor="middle" x="367" y="-14.3" font-family="Helvetica,Arial,sans-serif" font-size="14.00">11</text>
</g>
<!-- 11&#45;&gt;9 -->
<g id="edge6" class="edge">
<title>11&#45;&gt;9</title>
<path fill="none" stroke="black" d="M389.71,-27.93C399.12,-32.36 410.19,-37.76 420,-43 425.09,-45.72 430.43,-48.73 435.56,-51.72"/>
<polygon fill="black" stroke="black" points="434.1,-54.92 444.49,-56.99 437.66,-48.89 434.1,-54.92"/>
<text text-anchor="middle" x="416" y="-46.8" font-family="Helvetica,Arial,sans-serif" font-size="14.00">2</text>
</g>
<!-- 8 -->
<g id="node7" class="node">
<title>8</title>
<ellipse fill="none" stroke="black" cx="223" cy="-18" rx="27" ry="18"/>
<text text-anchor="middle" x="223" y="-14.3" font-family="Helvetica,Arial,sans-serif" font-size="14.00">8</text>
</g>
<!-- 8&#45;&gt;11 -->
<g id="edge7" class="edge">
<title>8&#45;&gt;11</title>
<path fill="none" stroke="black" d="M250.04,-18C272.32,-18 304.63,-18 329.49,-18"/>
<polygon fill="black" stroke="black" points="329.64,-21.5 339.64,-18 329.64,-14.5 329.64,-21.5"/>
<text text-anchor="middle" x="295" y="-21.8" font-family="Helvetica,Arial,sans-serif" font-size="14.00">2</text>
</g>
<!-- 6 -->
<g id="node8" class="node">
<title>6</title>
<ellipse fill="none" stroke="black" cx="223" cy="-72" rx="27" ry="18"/>
<text text-anchor="middle" x="223" y="-68.3" font-family="Helvetica,Arial,sans-serif" font-size="14.00">6</text>
</g>
<!-- 6&#45;&gt;9 -->
<g id="edge8" class="edge">
<title>6&#45;&gt;9</title>
<path fill="none" stroke="black" d="M250.14,-71.67C293.15,-71.14 378.93,-70.06 427.77,-69.45"/>
<polygon fill="black" stroke="black" points="427.94,-72.95 437.89,-69.33 427.85,-65.95 427.94,-72.95"/>
<text text-anchor="middle" x="367" y="-74.8" font-family="Helvetica,Arial,sans-serif" font-size="14.00">2</text>
</g>
<!-- 3 -->
<g id="node9" class="node">
<title>3</title>
<ellipse fill="none" stroke="black" cx="125" cy="-62" rx="27" ry="18"/>
<text text-anchor="middle" x="125" y="-58.3" font-family="Helvetica,Arial,sans-serif" font-size="14.00">3</text>
</g>
<!-- 3&#45;&gt;8 -->
<g id="edge9" class="edge">
<title>3&#45;&gt;8</title>
<path fill="none" stroke="black" d="M147.78,-52.02C160.55,-46.17 176.88,-38.68 190.98,-32.22"/>
<polygon fill="black" stroke="black" points="192.67,-35.29 200.3,-27.94 189.75,-28.93 192.67,-35.29"/>
<text text-anchor="middle" x="174" y="-45.8" font-family="Helvetica,Arial,sans-serif" font-size="14.00">2</text>
</g>
<!-- 3&#45;&gt;6 -->
<g id="edge10" class="edge">
<title>3&#45;&gt;6</title>
<path fill="none" stroke="black" d="M151.73,-64.68C162.27,-65.78 174.66,-67.07 186.07,-68.26"/>
<polygon fill="black" stroke="black" points="185.89,-71.76 196.2,-69.31 186.62,-64.8 185.89,-71.76"/>
<text text-anchor="middle" x="174" y="-71.8" font-family="Helvetica,Arial,sans-serif" font-size="14.00">2</text>
</g>
<!-- 2 -->
<g id="node10" class="node">
<title>2</title>
<ellipse fill="none" stroke="black" cx="125" cy="-116" rx="27" ry="18"/>
<text text-anchor="middle" x="125" y="-112.3" font-family="Helvetica,Arial,sans-serif" font-size="14.00">2</text>
</g>
<!-- 2&#45;&gt;5 -->
<g id="edge12" class="edge">
<title>2&#45;&gt;5</title>
<path fill="none" stroke="black" d="M150.48,-109.75C159.31,-108.51 169.25,-108.3 178,-111 184.89,-113.12 191.66,-116.74 197.75,-120.73"/>
<polygon fill="black" stroke="black" points="195.94,-123.75 206.11,-126.73 200.03,-118.06 195.94,-123.75"/>
<text text-anchor="middle" x="174" y="-114.8" font-family="Helvetica,Arial,sans-serif" font-size="14.00">2</text>
</g>
<!-- 4 -->
<g id="node11" class="node">
<title>4</title>
<ellipse fill="none" stroke="black" cx="295" cy="-239" rx="27" ry="18"/>
<text text-anchor="middle" x="295" y="-235.3" font-family="Helvetica,Arial,sans-serif" font-size="14.00">4</text>
</g>
<!-- 4&#45;&gt;10 -->
<g id="edge13" class="edge">
<title>4&#45;&gt;10</title>
<path fill="none" stroke="black" d="M321.01,-243.85C364.38,-250.89 454.93,-259.43 518,-223 532.86,-214.42 543.75,-198.55 550.98,-184.64"/>
<polygon fill="black" stroke="black" points="554.22,-185.96 555.4,-175.44 547.91,-182.93 554.22,-185.96"/>
<text text-anchor="middle" x="416" y="-252.8" font-family="Helvetica,Arial,sans-serif" font-size="14.00">2</text>
</g>
<!-- 1 -->
<g id="node12" class="node">
<title>1</title>
<ellipse fill="none" stroke="black" cx="125" cy="-178" rx="27" ry="18"/>
<text text-anchor="middle" x="125" y="-174.3" font-family="Helvetica,Arial,sans-serif" font-size="14.00">1</text>
</g>
<!-- 1&#45;&gt;5 -->
<g id="edge14" class="edge">
<title>1&#45;&gt;5</title>
<path fill="none" stroke="black" d="M150.96,-172.46C159.65,-170.22 169.38,-167.37 178,-164 182.89,-162.09 187.95,-159.78 192.81,-157.38"/>
<polygon fill="black" stroke="black" points="194.56,-160.42 201.84,-152.72 191.35,-154.2 194.56,-160.42"/>
<text text-anchor="middle" x="174" y="-169.8" font-family="Helvetica,Arial,sans-serif" font-size="14.00">2</text>
</g>
<!-- 1&#45;&gt;6 -->
<g id="edge15" class="edge">
<title>1&#45;&gt;6</title>
<path fill="none" stroke="black" d="M141.43,-163.37C152,-153.16 166.19,-139.08 178,-126 186.65,-116.42 195.74,-105.44 203.39,-95.9"/>
<polygon fill="black" stroke="black" points="206.23,-97.96 209.7,-87.95 200.74,-93.6 206.23,-97.96"/>
<text text-anchor="middle" x="174" y="-136.8" font-family="Helvetica,Arial,sans-serif" font-size="14.00">2</text>
</g>
<!-- 1&#45;&gt;4 -->
<g id="edge16" class="edge">
<title>1&#45;&gt;4</title>
<path fill="none" stroke="black" d="M149.01,-186.35C178.08,-196.91 228.31,-215.15 261.34,-227.14"/>
<polygon fill="black" stroke="black" points="260.41,-230.53 271,-230.65 262.8,-223.95 260.41,-230.53"/>
<text text-anchor="middle" x="174" y="-198.8" font-family="Helvetica,Arial,sans-serif" font-size="14.00">2</text>
</g>
<!-- 0 -->
<g id="node13" class="node">
<title>0</title>
<ellipse fill="none" stroke="black" cx="27" cy="-116" rx="27" ry="18"/>
<text text-anchor="middle" x="27" y="-112.3" font-family="Helvetica,Arial,sans-serif" font-size="14.00">0</text>
</g>
<!-- 0&#45;&gt;3 -->
<g id="edge19" class="edge">
<title>0&#45;&gt;3</title>
<path fill="none" stroke="black" d="M48.36,-104.55C61.85,-96.96 79.76,-86.88 94.77,-78.44"/>
<polygon fill="black" stroke="black" points="96.67,-81.39 103.67,-73.44 93.24,-75.29 96.67,-81.39"/>
<text text-anchor="middle" x="76" y="-93.8" font-family="Helvetica,Arial,sans-serif" font-size="14.00">2</text>
</g>
<!-- 0&#45;&gt;2 -->
<g id="edge18" class="edge">
<title>0&#45;&gt;2</title>
<path fill="none" stroke="black" d="M54.23,-116C64.5,-116 76.45,-116 87.53,-116"/>
<polygon fill="black" stroke="black" points="87.8,-119.5 97.8,-116 87.8,-112.5 87.8,-119.5"/>
<text text-anchor="middle" x="76" y="-119.8" font-family="Helvetica,Arial,sans-serif" font-size="14.00">2</text>
</g>
<!-- 0&#45;&gt;1 -->
<g id="edge17" class="edge">
<title>0&#45;&gt;1</title>
<path fill="none" stroke="black" d="M46.97,-128.25C61.04,-137.34 80.43,-149.86 96.25,-160.08"/>
<polygon fill="black" stroke="black" points="94.77,-163.29 105.07,-165.78 98.57,-157.41 94.77,-163.29"/>
<text text-anchor="middle" x="76" y="-151.8" font-family="Helvetica,Arial,sans-serif" font-size="14.00">4</text>
</g>
</g>
</svg>
