<?xml version="1.0" encoding="UTF-8" standalone="no"?>
<!DOCTYPE svg PUBLIC "-//W3C//DTD SVG 1.1//EN"
 "http://www.w3.org/Graphics/SVG/1.1/DTD/svg11.dtd">
<!-- Generated by graphviz version 2.43.0 (0)
 -->
<!-- Title: create_graph Pages: 1 -->
<svg width="748pt" height="495pt"
 viewBox="0.00 0.00 748.00 495.00" xmlns="http://www.w3.org/2000/svg" xmlns:xlink="http://www.w3.org/1999/xlink">
<g id="graph0" class="graph" transform="scale(1 1) rotate(0) translate(4 491)">
<title>create_graph</title>
<polygon fill="white" stroke="transparent" points="-4,4 -4,-491 744,-491 744,4 -4,4"/>
<!-- 15 -->
<g id="node1" class="node">
<title>15</title>
<ellipse fill="none" stroke="black" cx="27" cy="-57" rx="27" ry="18"/>
<text text-anchor="middle" x="27" y="-53.3" font-family="Helvetica,Arial,sans-serif" font-size="14.00">15</text>
</g>
<!-- 12 -->
<g id="node2" class="node">
<title>12</title>
<ellipse fill="none" stroke="black" cx="125" cy="-210" rx="27" ry="18"/>
<text text-anchor="middle" x="125" y="-206.3" font-family="Helvetica,Arial,sans-serif" font-size="14.00">12</text>
</g>
<!-- 15&#45;&gt;12 -->
<g id="edge1" class="edge">
<title>15&#45;&gt;12</title>
<path fill="none" stroke="black" d="M38.27,-73.37C55,-100.04 88.25,-153.02 108.06,-184.6"/>
<polygon fill="black" stroke="black" points="105.23,-186.67 113.51,-193.28 111.16,-182.95 105.23,-186.67"/>
<text text-anchor="middle" x="76" y="-142.8" font-family="Helvetica,Arial,sans-serif" font-size="14.00">1</text>
</g>
<!-- 13 -->
<g id="node3" class="node">
<title>13</title>
<ellipse fill="none" stroke="black" cx="517" cy="-110" rx="27" ry="18"/>
<text text-anchor="middle" x="517" y="-106.3" font-family="Helvetica,Arial,sans-serif" font-size="14.00">13</text>
</g>
<!-- 15&#45;&gt;13 -->
<g id="edge2" class="edge">
<title>15&#45;&gt;13</title>
<path fill="none" stroke="black" d="M51.81,-49.6C71.08,-44.26 99.02,-38 124,-38 124,-38 124,-38 420,-38 443.93,-38 452.14,-38.64 472,-52 484.16,-60.19 494.34,-72.86 501.83,-84.28"/>
<polygon fill="black" stroke="black" points="499.01,-86.38 507.25,-93.05 504.97,-82.7 499.01,-86.38"/>
<text text-anchor="middle" x="272" y="-41.8" font-family="Helvetica,Arial,sans-serif" font-size="14.00">1</text>
</g>
<!-- 0 -->
<g id="node4" class="node">
<title>0</title>
<ellipse fill="none" stroke="black" cx="713" cy="-136" rx="27" ry="18"/>
<text text-anchor="middle" x="713" y="-132.3" font-family="Helvetica,Arial,sans-serif" font-size="14.00">0</text>
</g>
<!-- 15&#45;&gt;0 -->
<g id="edge3" class="edge">
<title>15&#45;&gt;0</title>
<path fill="none" stroke="black" d="M42.07,-42.02C59.53,-25.14 91.05,0 124,0 124,0 124,0 616,0 668.53,0 694.86,-68.56 705.71,-108.32"/>
<polygon fill="black" stroke="black" points="702.38,-109.41 708.26,-118.22 709.16,-107.66 702.38,-109.41"/>
<text text-anchor="middle" x="370" y="-3.8" font-family="Helvetica,Arial,sans-serif" font-size="14.00">1</text>
</g>
<!-- 2 -->
<g id="node8" class="node">
<title>2</title>
<ellipse fill="none" stroke="black" cx="223" cy="-210" rx="27" ry="18"/>
<text text-anchor="middle" x="223" y="-206.3" font-family="Helvetica,Arial,sans-serif" font-size="14.00">2</text>
</g>
<!-- 12&#45;&gt;2 -->
<g id="edge28" class="edge">
<title>12&#45;&gt;2</title>
<path fill="none" stroke="black" d="M152.23,-210C162.5,-210 174.45,-210 185.53,-210"/>
<polygon fill="black" stroke="black" points="185.8,-213.5 195.8,-210 185.8,-206.5 185.8,-213.5"/>
<text text-anchor="middle" x="174" y="-213.8" font-family="Helvetica,Arial,sans-serif" font-size="14.00">1</text>
</g>
<!-- 3 -->
<g id="node6" class="node">
<title>3</title>
<ellipse fill="none" stroke="black" cx="615" cy="-136" rx="27" ry="18"/>
<text text-anchor="middle" x="615" y="-132.3" font-family="Helvetica,Arial,sans-serif" font-size="14.00">3</text>
</g>
<!-- 13&#45;&gt;3 -->
<g id="edge27" class="edge">
<title>13&#45;&gt;3</title>
<path fill="none" stroke="black" d="M542.22,-116.56C553.71,-119.67 567.62,-123.44 580.13,-126.83"/>
<polygon fill="black" stroke="black" points="579.22,-130.21 589.78,-129.44 581.05,-123.45 579.22,-130.21"/>
<text text-anchor="middle" x="566" y="-127.8" font-family="Helvetica,Arial,sans-serif" font-size="14.00">1</text>
</g>
<!-- 14 -->
<g id="node5" class="node">
<title>14</title>
<ellipse fill="none" stroke="black" cx="517" cy="-240" rx="27" ry="18"/>
<text text-anchor="middle" x="517" y="-236.3" font-family="Helvetica,Arial,sans-serif" font-size="14.00">14</text>
</g>
<!-- 14&#45;&gt;15 -->
<g id="edge4" class="edge">
<title>14&#45;&gt;15</title>
<path fill="none" stroke="black" d="M510.91,-222.43C504.66,-203.88 492.32,-175.01 472,-158 400.66,-98.27 366.04,-93 273,-93 124,-93 124,-93 124,-93 100.2,-93 75.08,-83.18 56.5,-73.8"/>
<polygon fill="black" stroke="black" points="57.9,-70.58 47.43,-68.99 54.62,-76.76 57.9,-70.58"/>
<text text-anchor="middle" x="272" y="-96.8" font-family="Helvetica,Arial,sans-serif" font-size="14.00">1</text>
</g>
<!-- 3&#45;&gt;0 -->
<g id="edge5" class="edge">
<title>3&#45;&gt;0</title>
<path fill="none" stroke="black" d="M642.23,-136C652.5,-136 664.45,-136 675.53,-136"/>
<polygon fill="black" stroke="black" points="675.8,-139.5 685.8,-136 675.8,-132.5 675.8,-139.5"/>
<text text-anchor="middle" x="664" y="-139.8" font-family="Helvetica,Arial,sans-serif" font-size="14.00">1</text>
</g>
<!-- 10 -->
<g id="node7" class="node">
<title>10</title>
<ellipse fill="none" stroke="black" cx="321" cy="-210" rx="27" ry="18"/>
<text text-anchor="middle" x="321" y="-206.3" font-family="Helvetica,Arial,sans-serif" font-size="14.00">10</text>
</g>
<!-- 3&#45;&gt;10 -->
<g id="edge6" class="edge">
<title>3&#45;&gt;10</title>
<path fill="none" stroke="black" d="M588.46,-140.04C582.43,-140.84 576,-141.56 570,-142 523.01,-145.41 509.92,-132.48 464,-143 421.98,-152.62 377.7,-175.92 349.97,-192.33"/>
<polygon fill="black" stroke="black" points="347.99,-189.44 341.23,-197.6 351.6,-195.43 347.99,-189.44"/>
<text text-anchor="middle" x="468" y="-146.8" font-family="Helvetica,Arial,sans-serif" font-size="14.00">1</text>
</g>
<!-- 16 -->
<g id="node13" class="node">
<title>16</title>
<ellipse fill="none" stroke="black" cx="419" cy="-307" rx="27" ry="18"/>
<text text-anchor="middle" x="419" y="-303.3" font-family="Helvetica,Arial,sans-serif" font-size="14.00">16</text>
</g>
<!-- 10&#45;&gt;16 -->
<g id="edge14" class="edge">
<title>10&#45;&gt;16</title>
<path fill="none" stroke="black" d="M337.68,-224.67C348.11,-234.52 362.04,-247.88 374,-260 381.65,-267.76 389.86,-276.42 397.09,-284.18"/>
<polygon fill="black" stroke="black" points="394.57,-286.61 403.93,-291.57 399.7,-281.85 394.57,-286.61"/>
<text text-anchor="middle" x="370" y="-263.8" font-family="Helvetica,Arial,sans-serif" font-size="14.00">1</text>
</g>
<!-- 2&#45;&gt;0 -->
<g id="edge7" class="edge">
<title>2&#45;&gt;0</title>
<path fill="none" stroke="black" d="M242.6,-197.47C284.51,-170.08 390.43,-105.55 490,-83 559.16,-67.34 640.12,-99.47 682.58,-120.24"/>
<polygon fill="black" stroke="black" points="681.02,-123.37 691.53,-124.72 684.16,-117.11 681.02,-123.37"/>
<text text-anchor="middle" x="468" y="-93.8" font-family="Helvetica,Arial,sans-serif" font-size="14.00">1</text>
</g>
<!-- 2&#45;&gt;10 -->
<g id="edge8" class="edge">
<title>2&#45;&gt;10</title>
<path fill="none" stroke="black" d="M250.23,-210C260.5,-210 272.45,-210 283.53,-210"/>
<polygon fill="black" stroke="black" points="283.8,-213.5 293.8,-210 283.8,-206.5 283.8,-213.5"/>
<text text-anchor="middle" x="272" y="-213.8" font-family="Helvetica,Arial,sans-serif" font-size="14.00">1</text>
</g>
<!-- 1 -->
<g id="node9" class="node">
<title>1</title>
<ellipse fill="none" stroke="black" cx="321" cy="-265" rx="27" ry="18"/>
<text text-anchor="middle" x="321" y="-261.3" font-family="Helvetica,Arial,sans-serif" font-size="14.00">1</text>
</g>
<!-- 2&#45;&gt;1 -->
<g id="edge9" class="edge">
<title>2&#45;&gt;1</title>
<path fill="none" stroke="black" d="M244.36,-221.66C257.94,-229.45 276,-239.79 291.07,-248.43"/>
<polygon fill="black" stroke="black" points="289.58,-251.61 300,-253.54 293.06,-245.53 289.58,-251.61"/>
<text text-anchor="middle" x="272" y="-242.8" font-family="Helvetica,Arial,sans-serif" font-size="14.00">1</text>
</g>
<!-- 1&#45;&gt;16 -->
<g id="edge29" class="edge">
<title>1&#45;&gt;16</title>
<path fill="none" stroke="black" d="M346.19,-271.8C355.08,-274.59 365.14,-278.08 374,-282 379.22,-284.31 384.63,-287.06 389.79,-289.87"/>
<polygon fill="black" stroke="black" points="388.3,-293.05 398.72,-294.93 391.75,-286.96 388.3,-293.05"/>
<text text-anchor="middle" x="370" y="-285.8" font-family="Helvetica,Arial,sans-serif" font-size="14.00">1</text>
</g>
<!-- 8 -->
<g id="node10" class="node">
<title>8</title>
<ellipse fill="none" stroke="black" cx="517" cy="-294" rx="27" ry="18"/>
<text text-anchor="middle" x="517" y="-290.3" font-family="Helvetica,Arial,sans-serif" font-size="14.00">8</text>
</g>
<!-- 11 -->
<g id="node11" class="node">
<title>11</title>
<ellipse fill="none" stroke="black" cx="615" cy="-229" rx="27" ry="18"/>
<text text-anchor="middle" x="615" y="-225.3" font-family="Helvetica,Arial,sans-serif" font-size="14.00">11</text>
</g>
<!-- 8&#45;&gt;11 -->
<g id="edge10" class="edge">
<title>8&#45;&gt;11</title>
<path fill="none" stroke="black" d="M536.51,-281.47C550.85,-271.76 570.93,-258.16 587.06,-247.24"/>
<polygon fill="black" stroke="black" points="589.23,-250 595.55,-241.49 585.3,-244.2 589.23,-250"/>
<text text-anchor="middle" x="566" y="-266.8" font-family="Helvetica,Arial,sans-serif" font-size="14.00">1</text>
</g>
<!-- 11&#45;&gt;0 -->
<g id="edge11" class="edge">
<title>11&#45;&gt;0</title>
<path fill="none" stroke="black" d="M631,-214.47C646.69,-199.27 671.49,-175.24 689.52,-157.78"/>
<polygon fill="black" stroke="black" points="692.04,-160.21 696.79,-150.74 687.17,-155.18 692.04,-160.21"/>
<text text-anchor="middle" x="664" y="-189.8" font-family="Helvetica,Arial,sans-serif" font-size="14.00">1</text>
</g>
<!-- 11&#45;&gt;10 -->
<g id="edge13" class="edge">
<title>11&#45;&gt;10</title>
<path fill="none" stroke="black" d="M589.92,-222.17C576.52,-218.71 559.47,-214.85 544,-213 478.94,-205.21 402.4,-206.45 358.31,-208.15"/>
<polygon fill="black" stroke="black" points="357.94,-204.66 348.09,-208.58 358.23,-211.66 357.94,-204.66"/>
<text text-anchor="middle" x="468" y="-210.8" font-family="Helvetica,Arial,sans-serif" font-size="14.00">1</text>
</g>
<!-- 9 -->
<g id="node12" class="node">
<title>9</title>
<ellipse fill="none" stroke="black" cx="713" cy="-394" rx="27" ry="18"/>
<text text-anchor="middle" x="713" y="-390.3" font-family="Helvetica,Arial,sans-serif" font-size="14.00">9</text>
</g>
<!-- 11&#45;&gt;9 -->
<g id="edge12" class="edge">
<title>11&#45;&gt;9</title>
<path fill="none" stroke="black" d="M622.51,-246.41C630.25,-266.3 644.14,-299.5 660,-326 669.39,-341.69 681.77,-358.01 692.09,-370.72"/>
<polygon fill="black" stroke="black" points="689.46,-373.03 698.53,-378.52 694.86,-368.58 689.46,-373.03"/>
<text text-anchor="middle" x="664" y="-340.8" font-family="Helvetica,Arial,sans-serif" font-size="14.00">1</text>
</g>
<!-- 9&#45;&gt;16 -->
<g id="edge15" class="edge">
<title>9&#45;&gt;16</title>
<path fill="none" stroke="black" d="M701.51,-410.49C693.71,-421.11 682.02,-434.01 668,-440 594.42,-471.44 558.72,-453.98 490,-413 460.07,-395.15 440.42,-358.95 429.76,-333.85"/>
<polygon fill="black" stroke="black" points="432.98,-332.47 425.99,-324.51 426.49,-335.1 432.98,-332.47"/>
<text text-anchor="middle" x="566" y="-454.8" font-family="Helvetica,Arial,sans-serif" font-size="14.00">1</text>
</g>
<!-- 16&#45;&gt;12 -->
<g id="edge24" class="edge">
<title>16&#45;&gt;12</title>
<path fill="none" stroke="black" d="M391.84,-306.36C366.39,-305.15 326.86,-301.71 294,-292 242.16,-276.69 186.66,-246.59 154.21,-227.43"/>
<polygon fill="black" stroke="black" points="155.67,-224.23 145.3,-222.1 152.08,-230.23 155.67,-224.23"/>
<text text-anchor="middle" x="272" y="-288.8" font-family="Helvetica,Arial,sans-serif" font-size="14.00">1</text>
</g>
<!-- 16&#45;&gt;13 -->
<g id="edge22" class="edge">
<title>16&#45;&gt;13</title>
<path fill="none" stroke="black" d="M423.61,-289.23C429.47,-262.73 442.61,-211.82 464,-173 472.12,-158.27 483.88,-143.66 494.16,-132.23"/>
<polygon fill="black" stroke="black" points="496.76,-134.57 500.98,-124.85 491.62,-129.82 496.76,-134.57"/>
<text text-anchor="middle" x="468" y="-176.8" font-family="Helvetica,Arial,sans-serif" font-size="14.00">1</text>
</g>
<!-- 16&#45;&gt;14 -->
<g id="edge23" class="edge">
<title>16&#45;&gt;14</title>
<path fill="none" stroke="black" d="M438.51,-294.08C452.85,-284.07 472.93,-270.06 489.06,-258.8"/>
<polygon fill="black" stroke="black" points="491.35,-261.47 497.55,-252.88 487.34,-255.73 491.35,-261.47"/>
<text text-anchor="middle" x="468" y="-278.8" font-family="Helvetica,Arial,sans-serif" font-size="14.00">1</text>
</g>
<!-- 16&#45;&gt;8 -->
<g id="edge25" class="edge">
<title>16&#45;&gt;8</title>
<path fill="none" stroke="black" d="M445.73,-303.52C456.27,-302.09 468.66,-300.41 480.07,-298.86"/>
<polygon fill="black" stroke="black" points="480.76,-302.3 490.2,-297.49 479.82,-295.37 480.76,-302.3"/>
<text text-anchor="middle" x="468" y="-303.8" font-family="Helvetica,Arial,sans-serif" font-size="14.00">1</text>
</g>
<!-- 4 -->
<g id="node14" class="node">
<title>4</title>
<ellipse fill="none" stroke="black" cx="517" cy="-386" rx="27" ry="18"/>
<text text-anchor="middle" x="517" y="-382.3" font-family="Helvetica,Arial,sans-serif" font-size="14.00">4</text>
</g>
<!-- 16&#45;&gt;4 -->
<g id="edge26" class="edge">
<title>16&#45;&gt;4</title>
<path fill="none" stroke="black" d="M432.93,-322.83C441.23,-332.46 452.57,-344.67 464,-354 470.96,-359.69 479.02,-365.12 486.68,-369.84"/>
<polygon fill="black" stroke="black" points="485.02,-372.92 495.4,-375.03 488.6,-366.91 485.02,-372.92"/>
<text text-anchor="middle" x="468" y="-363.8" font-family="Helvetica,Arial,sans-serif" font-size="14.00">1</text>
</g>
<!-- 7 -->
<g id="node15" class="node">
<title>7</title>
<ellipse fill="none" stroke="black" cx="615" cy="-386" rx="27" ry="18"/>
<text text-anchor="middle" x="615" y="-382.3" font-family="Helvetica,Arial,sans-serif" font-size="14.00">7</text>
</g>
<!-- 4&#45;&gt;7 -->
<g id="edge16" class="edge">
<title>4&#45;&gt;7</title>
<path fill="none" stroke="black" d="M544.23,-386C554.5,-386 566.45,-386 577.53,-386"/>
<polygon fill="black" stroke="black" points="577.8,-389.5 587.8,-386 577.8,-382.5 577.8,-389.5"/>
<text text-anchor="middle" x="566" y="-389.8" font-family="Helvetica,Arial,sans-serif" font-size="14.00">1</text>
</g>
<!-- 7&#45;&gt;0 -->
<g id="edge17" class="edge">
<title>7&#45;&gt;0</title>
<path fill="none" stroke="black" d="M622.75,-368.42C639.28,-325.39 681.85,-214.52 701.62,-163.03"/>
<polygon fill="black" stroke="black" points="704.94,-164.15 705.26,-153.56 698.4,-161.64 704.94,-164.15"/>
<text text-anchor="middle" x="664" y="-271.8" font-family="Helvetica,Arial,sans-serif" font-size="14.00">1</text>
</g>
<!-- 5 -->
<g id="node16" class="node">
<title>5</title>
<ellipse fill="none" stroke="black" cx="713" cy="-458" rx="27" ry="18"/>
<text text-anchor="middle" x="713" y="-454.3" font-family="Helvetica,Arial,sans-serif" font-size="14.00">5</text>
</g>
<!-- 7&#45;&gt;5 -->
<g id="edge18" class="edge">
<title>7&#45;&gt;5</title>
<path fill="none" stroke="black" d="M633.61,-399.21C648.36,-410.27 669.61,-426.21 686.27,-438.7"/>
<polygon fill="black" stroke="black" points="684.4,-441.68 694.5,-444.88 688.6,-436.08 684.4,-441.68"/>
<text text-anchor="middle" x="664" y="-427.8" font-family="Helvetica,Arial,sans-serif" font-size="14.00">1</text>
</g>
<!-- 6 -->
<g id="node17" class="node">
<title>6</title>
<ellipse fill="none" stroke="black" cx="713" cy="-321" rx="27" ry="18"/>
<text text-anchor="middle" x="713" y="-317.3" font-family="Helvetica,Arial,sans-serif" font-size="14.00">6</text>
</g>
<!-- 7&#45;&gt;6 -->
<g id="edge19" class="edge">
<title>7&#45;&gt;6</title>
<path fill="none" stroke="black" d="M639.47,-378.22C648.75,-374.61 659.27,-369.81 668,-364 676.49,-358.35 684.77,-350.94 691.81,-343.86"/>
<polygon fill="black" stroke="black" points="694.55,-346.06 698.92,-336.41 689.48,-341.23 694.55,-346.06"/>
<text text-anchor="middle" x="664" y="-371.8" font-family="Helvetica,Arial,sans-serif" font-size="14.00">1</text>
</g>
<!-- 5&#45;&gt;16 -->
<g id="edge21" class="edge">
<title>5&#45;&gt;16</title>
<path fill="none" stroke="black" d="M686.46,-461.82C673.22,-463.67 656.77,-465.74 642,-467 573.71,-472.8 544.84,-482.11 490,-441 454.9,-414.69 435.8,-365.63 426.76,-334.73"/>
<polygon fill="black" stroke="black" points="430.11,-333.72 424.08,-325.01 423.37,-335.58 430.11,-333.72"/>
<text text-anchor="middle" x="566" y="-475.8" font-family="Helvetica,Arial,sans-serif" font-size="14.00">1</text>
</g>
<!-- 6&#45;&gt;16 -->
<g id="edge20" class="edge">
<title>6&#45;&gt;16</title>
<path fill="none" stroke="black" d="M696.11,-306.73C688.24,-300.62 678.25,-294.16 668,-291 664.6,-289.95 663.53,-290.55 660,-291 607.17,-297.72 596.83,-314.28 544,-321 520.19,-324.03 513.98,-321.92 490,-321 478.42,-320.56 475.42,-320.98 464,-319 460.72,-318.43 457.34,-317.73 453.97,-316.95"/>
<polygon fill="black" stroke="black" points="454.57,-313.49 444.02,-314.43 452.86,-320.28 454.57,-313.49"/>
<text text-anchor="middle" x="566" y="-320.8" font-family="Helvetica,Arial,sans-serif" font-size="14.00">1</text>
</g>
</g>
</svg>
