<?xml version="1.0" encoding="UTF-8" standalone="no"?>
<!DOCTYPE svg PUBLIC "-//W3C//DTD SVG 1.1//EN"
 "http://www.w3.org/Graphics/SVG/1.1/DTD/svg11.dtd">
<!-- Generated by graphviz version 2.43.0 (0)
 -->
<!-- Title: create_graph Pages: 1 -->
<svg width="356pt" height="969pt"
 viewBox="0.00 0.00 356.00 969.22" xmlns="http://www.w3.org/2000/svg" xmlns:xlink="http://www.w3.org/1999/xlink">
<g id="graph0" class="graph" transform="scale(1 1) rotate(0) translate(4 965.22)">
<title>create_graph</title>
<polygon fill="white" stroke="transparent" points="-4,4 -4,-965.22 352,-965.22 352,4 -4,4"/>
<!-- 1 -->
<g id="node1" class="node">
<title>1</title>
<ellipse fill="none" stroke="black" cx="125" cy="-496.22" rx="27" ry="18"/>
<text text-anchor="middle" x="125" y="-492.52" font-family="Helvetica,Arial,sans-serif" font-size="14.00">1</text>
</g>
<!-- 16 -->
<g id="node2" class="node">
<title>16</title>
<ellipse fill="none" stroke="black" cx="223" cy="-344.22" rx="27" ry="18"/>
<text text-anchor="middle" x="223" y="-340.52" font-family="Helvetica,Arial,sans-serif" font-size="14.00">16</text>
</g>
<!-- 1&#45;&gt;16 -->
<g id="edge1" class="edge">
<title>1&#45;&gt;16</title>
<path fill="none" stroke="black" d="M140.9,-481.35C152.03,-469.73 167.12,-452.82 178,-436.22 191.57,-415.51 203.45,-389.97 211.43,-371.06"/>
<polygon fill="black" stroke="black" points="214.77,-372.15 215.34,-361.57 208.29,-369.48 214.77,-372.15"/>
<text text-anchor="middle" x="174" y="-450.02" font-family="Helvetica,Arial,sans-serif" font-size="14.00">1</text>
</g>
<!-- 13 -->
<g id="node3" class="node">
<title>13</title>
<ellipse fill="none" stroke="black" cx="223" cy="-496.22" rx="27" ry="18"/>
<text text-anchor="middle" x="223" y="-492.52" font-family="Helvetica,Arial,sans-serif" font-size="14.00">13</text>
</g>
<!-- 1&#45;&gt;13 -->
<g id="edge2" class="edge">
<title>1&#45;&gt;13</title>
<path fill="none" stroke="black" d="M152.23,-496.22C162.5,-496.22 174.45,-496.22 185.53,-496.22"/>
<polygon fill="black" stroke="black" points="185.8,-499.72 195.8,-496.22 185.8,-492.72 185.8,-499.72"/>
<text text-anchor="middle" x="174" y="-500.02" font-family="Helvetica,Arial,sans-serif" font-size="14.00">1</text>
</g>
<!-- 11 -->
<g id="node4" class="node">
<title>11</title>
<ellipse fill="none" stroke="black" cx="223" cy="-610.22" rx="27" ry="18"/>
<text text-anchor="middle" x="223" y="-606.52" font-family="Helvetica,Arial,sans-serif" font-size="14.00">11</text>
</g>
<!-- 1&#45;&gt;11 -->
<g id="edge3" class="edge">
<title>1&#45;&gt;11</title>
<path fill="none" stroke="black" d="M146.07,-507.69C156.68,-514.57 169.28,-524.13 178,-535.22 190.55,-551.19 185.63,-559.76 196,-577.22 197.84,-580.32 199.95,-583.46 202.14,-586.5"/>
<polygon fill="black" stroke="black" points="199.56,-588.9 208.42,-594.72 205.13,-584.65 199.56,-588.9"/>
<text text-anchor="middle" x="174" y="-539.02" font-family="Helvetica,Arial,sans-serif" font-size="14.00">1</text>
</g>
<!-- 22 -->
<g id="node8" class="node">
<title>22</title>
<ellipse fill="none" stroke="black" cx="321" cy="-523.22" rx="27" ry="18"/>
<text text-anchor="middle" x="321" y="-519.52" font-family="Helvetica,Arial,sans-serif" font-size="14.00">22</text>
</g>
<!-- 16&#45;&gt;22 -->
<g id="edge29" class="edge">
<title>16&#45;&gt;22</title>
<path fill="none" stroke="black" d="M233.03,-361.06C249.83,-392.38 285.97,-459.77 305.97,-497.07"/>
<polygon fill="black" stroke="black" points="303.11,-499.14 310.92,-506.29 309.28,-495.83 303.11,-499.14"/>
<text text-anchor="middle" x="272" y="-442.02" font-family="Helvetica,Arial,sans-serif" font-size="14.00">1</text>
</g>
<!-- 13&#45;&gt;22 -->
<g id="edge24" class="edge">
<title>13&#45;&gt;22</title>
<path fill="none" stroke="black" d="M248.68,-502.05C257.35,-504.19 267.14,-506.71 276,-509.22 279.42,-510.19 282.97,-511.25 286.52,-512.33"/>
<polygon fill="black" stroke="black" points="285.75,-515.75 296.33,-515.39 287.83,-509.07 285.75,-515.75"/>
<text text-anchor="middle" x="272" y="-513.02" font-family="Helvetica,Arial,sans-serif" font-size="14.00">1</text>
</g>
<!-- 11&#45;&gt;22 -->
<g id="edge20" class="edge">
<title>11&#45;&gt;22</title>
<path fill="none" stroke="black" d="M239.85,-595.85C255.28,-581.88 278.9,-560.47 296.51,-544.51"/>
<polygon fill="black" stroke="black" points="299.06,-546.92 304.12,-537.61 294.36,-541.73 299.06,-546.92"/>
<text text-anchor="middle" x="272" y="-573.02" font-family="Helvetica,Arial,sans-serif" font-size="14.00">1</text>
</g>
<!-- 2 -->
<g id="node5" class="node">
<title>2</title>
<ellipse fill="none" stroke="black" cx="125" cy="-572.22" rx="27" ry="18"/>
<text text-anchor="middle" x="125" y="-568.52" font-family="Helvetica,Arial,sans-serif" font-size="14.00">2</text>
</g>
<!-- 2&#45;&gt;11 -->
<g id="edge5" class="edge">
<title>2&#45;&gt;11</title>
<path fill="none" stroke="black" d="M148.75,-581.23C161.06,-586.1 176.48,-592.2 189.99,-597.55"/>
<polygon fill="black" stroke="black" points="188.83,-600.85 199.41,-601.28 191.4,-594.34 188.83,-600.85"/>
<text text-anchor="middle" x="174" y="-596.02" font-family="Helvetica,Arial,sans-serif" font-size="14.00">1</text>
</g>
<!-- 19 -->
<g id="node6" class="node">
<title>19</title>
<ellipse fill="none" stroke="black" cx="223" cy="-442.22" rx="27" ry="18"/>
<text text-anchor="middle" x="223" y="-438.52" font-family="Helvetica,Arial,sans-serif" font-size="14.00">19</text>
</g>
<!-- 2&#45;&gt;19 -->
<g id="edge4" class="edge">
<title>2&#45;&gt;19</title>
<path fill="none" stroke="black" d="M150.98,-566.91C160.72,-563.64 171.16,-558.43 178,-550.22 201.61,-521.89 178.56,-501.71 196,-469.22 196.95,-467.46 198.04,-465.73 199.23,-464.05"/>
<polygon fill="black" stroke="black" points="202.09,-466.09 205.79,-456.17 196.7,-461.62 202.09,-466.09"/>
<text text-anchor="middle" x="174" y="-561.02" font-family="Helvetica,Arial,sans-serif" font-size="14.00">1</text>
</g>
<!-- 19&#45;&gt;22 -->
<g id="edge34" class="edge">
<title>19&#45;&gt;22</title>
<path fill="none" stroke="black" d="M240.72,-456.33C255.86,-469.11 278.36,-488.09 295.53,-502.57"/>
<polygon fill="black" stroke="black" points="293.57,-505.5 303.47,-509.27 298.08,-500.15 293.57,-505.5"/>
<text text-anchor="middle" x="272" y="-488.02" font-family="Helvetica,Arial,sans-serif" font-size="14.00">1</text>
</g>
<!-- 3 -->
<g id="node7" class="node">
<title>3</title>
<ellipse fill="none" stroke="black" cx="223" cy="-943.22" rx="27" ry="18"/>
<text text-anchor="middle" x="223" y="-939.52" font-family="Helvetica,Arial,sans-serif" font-size="14.00">3</text>
</g>
<!-- 3&#45;&gt;22 -->
<g id="edge6" class="edge">
<title>3&#45;&gt;22</title>
<path fill="none" stroke="black" d="M237.36,-927.58C241.95,-921.54 246.74,-914.38 250,-907.22 306.47,-783.36 317.42,-617.44 319.52,-551.74"/>
<polygon fill="black" stroke="black" points="323.02,-551.46 319.8,-541.37 316.03,-551.27 323.02,-551.46"/>
<text text-anchor="middle" x="272" y="-861.02" font-family="Helvetica,Arial,sans-serif" font-size="14.00">1</text>
</g>
<!-- 4 -->
<g id="node9" class="node">
<title>4</title>
<ellipse fill="none" stroke="black" cx="223" cy="-880.22" rx="27" ry="18"/>
<text text-anchor="middle" x="223" y="-876.52" font-family="Helvetica,Arial,sans-serif" font-size="14.00">4</text>
</g>
<!-- 4&#45;&gt;22 -->
<g id="edge7" class="edge">
<title>4&#45;&gt;22</title>
<path fill="none" stroke="black" d="M235.14,-863.73C240.3,-855.47 246.13,-845.14 250,-835.22 289.19,-734.87 309.19,-607.37 316.57,-551.55"/>
<polygon fill="black" stroke="black" points="320.08,-551.74 317.88,-541.37 313.13,-550.84 320.08,-551.74"/>
<text text-anchor="middle" x="272" y="-781.02" font-family="Helvetica,Arial,sans-serif" font-size="14.00">1</text>
</g>
<!-- 5 -->
<g id="node10" class="node">
<title>5</title>
<ellipse fill="none" stroke="black" cx="125" cy="-895.22" rx="27" ry="18"/>
<text text-anchor="middle" x="125" y="-891.52" font-family="Helvetica,Arial,sans-serif" font-size="14.00">5</text>
</g>
<!-- 5&#45;&gt;3 -->
<g id="edge10" class="edge">
<title>5&#45;&gt;3</title>
<path fill="none" stroke="black" d="M147.31,-905.87C160.36,-912.4 177.27,-920.85 191.7,-928.07"/>
<polygon fill="black" stroke="black" points="190.24,-931.26 200.75,-932.6 193.38,-924.99 190.24,-931.26"/>
<text text-anchor="middle" x="174" y="-924.02" font-family="Helvetica,Arial,sans-serif" font-size="14.00">1</text>
</g>
<!-- 5&#45;&gt;4 -->
<g id="edge9" class="edge">
<title>5&#45;&gt;4</title>
<path fill="none" stroke="black" d="M152.04,-894.78C160.37,-894.36 169.61,-893.59 178,-892.22 181.28,-891.68 184.67,-891 188.04,-890.23"/>
<polygon fill="black" stroke="black" points="189.14,-893.57 197.99,-887.74 187.44,-886.78 189.14,-893.57"/>
<text text-anchor="middle" x="174" y="-896.02" font-family="Helvetica,Arial,sans-serif" font-size="14.00">1</text>
</g>
<!-- 14 -->
<g id="node11" class="node">
<title>14</title>
<ellipse fill="none" stroke="black" cx="223" cy="-550.22" rx="27" ry="18"/>
<text text-anchor="middle" x="223" y="-546.52" font-family="Helvetica,Arial,sans-serif" font-size="14.00">14</text>
</g>
<!-- 5&#45;&gt;14 -->
<g id="edge8" class="edge">
<title>5&#45;&gt;14</title>
<path fill="none" stroke="black" d="M142.79,-881.64C154.9,-870.76 170.4,-854.35 178,-836.22 221.56,-732.25 155.32,-688.35 196,-583.22 197.3,-579.85 199.07,-576.55 201.08,-573.42"/>
<polygon fill="black" stroke="black" points="204.08,-575.26 207.19,-565.13 198.44,-571.11 204.08,-575.26"/>
<text text-anchor="middle" x="174" y="-853.02" font-family="Helvetica,Arial,sans-serif" font-size="14.00">1</text>
</g>
<!-- 14&#45;&gt;22 -->
<g id="edge25" class="edge">
<title>14&#45;&gt;22</title>
<path fill="none" stroke="black" d="M248.22,-543.41C259.71,-540.18 273.62,-536.26 286.13,-532.75"/>
<polygon fill="black" stroke="black" points="287.1,-536.11 295.78,-530.03 285.21,-529.37 287.1,-536.11"/>
<text text-anchor="middle" x="272" y="-541.02" font-family="Helvetica,Arial,sans-serif" font-size="14.00">1</text>
</g>
<!-- 6 -->
<g id="node12" class="node">
<title>6</title>
<ellipse fill="none" stroke="black" cx="223" cy="-808.22" rx="27" ry="18"/>
<text text-anchor="middle" x="223" y="-804.52" font-family="Helvetica,Arial,sans-serif" font-size="14.00">6</text>
</g>
<!-- 6&#45;&gt;22 -->
<g id="edge11" class="edge">
<title>6&#45;&gt;22</title>
<path fill="none" stroke="black" d="M232.44,-791.26C237.84,-780.05 244.79,-764.95 250,-751.22 276.96,-680.23 301.21,-593.95 312.8,-550.72"/>
<polygon fill="black" stroke="black" points="316.22,-551.5 315.41,-540.93 309.45,-549.7 316.22,-551.5"/>
<text text-anchor="middle" x="272" y="-699.02" font-family="Helvetica,Arial,sans-serif" font-size="14.00">1</text>
</g>
<!-- 7 -->
<g id="node13" class="node">
<title>7</title>
<ellipse fill="none" stroke="black" cx="125" cy="-781.22" rx="27" ry="18"/>
<text text-anchor="middle" x="125" y="-777.52" font-family="Helvetica,Arial,sans-serif" font-size="14.00">7</text>
</g>
<!-- 7&#45;&gt;11 -->
<g id="edge12" class="edge">
<title>7&#45;&gt;11</title>
<path fill="none" stroke="black" d="M140.14,-766.11C151.43,-753.48 167.11,-734.63 178,-716.22 192.97,-690.9 205.31,-659.54 213.07,-637.52"/>
<polygon fill="black" stroke="black" points="216.46,-638.41 216.41,-627.82 209.84,-636.14 216.46,-638.41"/>
<text text-anchor="middle" x="174" y="-731.02" font-family="Helvetica,Arial,sans-serif" font-size="14.00">1</text>
</g>
<!-- 7&#45;&gt;6 -->
<g id="edge14" class="edge">
<title>7&#45;&gt;6</title>
<path fill="none" stroke="black" d="M139.92,-796.36C147.89,-803.89 158.57,-812.23 170,-816.22 175.86,-818.27 182.26,-818.66 188.52,-818.14"/>
<polygon fill="black" stroke="black" points="189.44,-821.54 198.78,-816.53 188.36,-814.63 189.44,-821.54"/>
<text text-anchor="middle" x="174" y="-821.02" font-family="Helvetica,Arial,sans-serif" font-size="14.00">1</text>
</g>
<!-- 10 -->
<g id="node14" class="node">
<title>10</title>
<ellipse fill="none" stroke="black" cx="223" cy="-724.22" rx="27" ry="18"/>
<text text-anchor="middle" x="223" y="-720.52" font-family="Helvetica,Arial,sans-serif" font-size="14.00">10</text>
</g>
<!-- 7&#45;&gt;10 -->
<g id="edge13" class="edge">
<title>7&#45;&gt;10</title>
<path fill="none" stroke="black" d="M151.96,-783.81C160.64,-783.64 170.11,-782.25 178,-778.22 190.28,-771.94 200.36,-760.54 207.75,-749.83"/>
<polygon fill="black" stroke="black" points="210.88,-751.42 213.32,-741.11 204.98,-747.65 210.88,-751.42"/>
<text text-anchor="middle" x="174" y="-785.02" font-family="Helvetica,Arial,sans-serif" font-size="14.00">1</text>
</g>
<!-- 10&#45;&gt;22 -->
<g id="edge19" class="edge">
<title>10&#45;&gt;22</title>
<path fill="none" stroke="black" d="M232.18,-707.08C248.98,-671.93 287.42,-591.44 307.4,-549.59"/>
<polygon fill="black" stroke="black" points="310.68,-550.85 311.84,-540.31 304.37,-547.83 310.68,-550.85"/>
<text text-anchor="middle" x="272" y="-633.02" font-family="Helvetica,Arial,sans-serif" font-size="14.00">1</text>
</g>
<!-- 8 -->
<g id="node15" class="node">
<title>8</title>
<ellipse fill="none" stroke="black" cx="223" cy="-260.22" rx="27" ry="18"/>
<text text-anchor="middle" x="223" y="-256.52" font-family="Helvetica,Arial,sans-serif" font-size="14.00">8</text>
</g>
<!-- 8&#45;&gt;22 -->
<g id="edge15" class="edge">
<title>8&#45;&gt;22</title>
<path fill="none" stroke="black" d="M232.3,-277.24C237.65,-288.47 244.58,-303.57 250,-317.22 275,-380.23 299.35,-456.13 311.67,-495.89"/>
<polygon fill="black" stroke="black" points="308.39,-497.12 314.68,-505.64 315.08,-495.06 308.39,-497.12"/>
<text text-anchor="middle" x="272" y="-388.02" font-family="Helvetica,Arial,sans-serif" font-size="14.00">1</text>
</g>
<!-- 9 -->
<g id="node16" class="node">
<title>9</title>
<ellipse fill="none" stroke="black" cx="125" cy="-287.22" rx="27" ry="18"/>
<text text-anchor="middle" x="125" y="-283.52" font-family="Helvetica,Arial,sans-serif" font-size="14.00">9</text>
</g>
<!-- 9&#45;&gt;16 -->
<g id="edge18" class="edge">
<title>9&#45;&gt;16</title>
<path fill="none" stroke="black" d="M143.56,-273.95C153.98,-267.79 167.22,-263.05 178,-269.22 187.63,-274.73 200.7,-298.63 210.09,-317.99"/>
<polygon fill="black" stroke="black" points="206.93,-319.49 214.37,-327.03 213.25,-316.49 206.93,-319.49"/>
<text text-anchor="middle" x="174" y="-273.02" font-family="Helvetica,Arial,sans-serif" font-size="14.00">1</text>
</g>
<!-- 9&#45;&gt;19 -->
<g id="edge17" class="edge">
<title>9&#45;&gt;19</title>
<path fill="none" stroke="black" d="M147.08,-297.78C157.6,-303.96 169.79,-312.64 178,-323.22 178.74,-324.18 199.39,-380.43 212.14,-415.24"/>
<polygon fill="black" stroke="black" points="208.93,-416.66 215.65,-424.85 215.5,-414.25 208.93,-416.66"/>
<text text-anchor="middle" x="174" y="-327.02" font-family="Helvetica,Arial,sans-serif" font-size="14.00">1</text>
</g>
<!-- 9&#45;&gt;8 -->
<g id="edge16" class="edge">
<title>9&#45;&gt;8</title>
<path fill="none" stroke="black" d="M134.1,-270C141.41,-256.69 153.54,-239.22 170,-231.22 180.35,-226.19 191.54,-231.02 200.88,-238.09"/>
<polygon fill="black" stroke="black" points="198.68,-240.82 208.54,-244.69 203.24,-235.51 198.68,-240.82"/>
<text text-anchor="middle" x="174" y="-235.02" font-family="Helvetica,Arial,sans-serif" font-size="14.00">1</text>
</g>
<!-- 12 -->
<g id="node17" class="node">
<title>12</title>
<ellipse fill="none" stroke="black" cx="125" cy="-667.22" rx="27" ry="18"/>
<text text-anchor="middle" x="125" y="-663.52" font-family="Helvetica,Arial,sans-serif" font-size="14.00">12</text>
</g>
<!-- 12&#45;&gt;11 -->
<g id="edge21" class="edge">
<title>12&#45;&gt;11</title>
<path fill="none" stroke="black" d="M151.96,-669.81C160.64,-669.64 170.11,-668.25 178,-664.22 190.28,-657.94 200.36,-646.54 207.75,-635.83"/>
<polygon fill="black" stroke="black" points="210.88,-637.42 213.32,-627.11 204.98,-633.65 210.88,-637.42"/>
<text text-anchor="middle" x="174" y="-671.02" font-family="Helvetica,Arial,sans-serif" font-size="14.00">1</text>
</g>
<!-- 12&#45;&gt;19 -->
<g id="edge23" class="edge">
<title>12&#45;&gt;19</title>
<path fill="none" stroke="black" d="M143.26,-653.73C155.11,-643.43 170.08,-628.17 178,-611.22 204.94,-553.59 168.54,-526.61 196,-469.22 196.86,-467.42 197.9,-465.65 199.04,-463.95"/>
<polygon fill="black" stroke="black" points="201.9,-465.98 205.49,-456.01 196.47,-461.57 201.9,-465.98"/>
<text text-anchor="middle" x="174" y="-627.02" font-family="Helvetica,Arial,sans-serif" font-size="14.00">1</text>
</g>
<!-- 12&#45;&gt;10 -->
<g id="edge22" class="edge">
<title>12&#45;&gt;10</title>
<path fill="none" stroke="black" d="M145.89,-679.03C159.54,-687.13 177.86,-698.01 193.11,-707.07"/>
<polygon fill="black" stroke="black" points="191.75,-710.33 202.13,-712.43 195.32,-704.31 191.75,-710.33"/>
<text text-anchor="middle" x="174" y="-701.02" font-family="Helvetica,Arial,sans-serif" font-size="14.00">1</text>
</g>
<!-- 15 -->
<g id="node18" class="node">
<title>15</title>
<ellipse fill="none" stroke="black" cx="125" cy="-401.22" rx="27" ry="18"/>
<text text-anchor="middle" x="125" y="-397.52" font-family="Helvetica,Arial,sans-serif" font-size="14.00">15</text>
</g>
<!-- 15&#45;&gt;16 -->
<g id="edge27" class="edge">
<title>15&#45;&gt;16</title>
<path fill="none" stroke="black" d="M134.14,-384.08C141.47,-370.82 153.62,-353.38 170,-345.22 175.05,-342.7 180.74,-341.36 186.44,-340.76"/>
<polygon fill="black" stroke="black" points="186.74,-344.25 196.61,-340.4 186.49,-337.26 186.74,-344.25"/>
<text text-anchor="middle" x="174" y="-349.02" font-family="Helvetica,Arial,sans-serif" font-size="14.00">1</text>
</g>
<!-- 15&#45;&gt;13 -->
<g id="edge28" class="edge">
<title>15&#45;&gt;13</title>
<path fill="none" stroke="black" d="M142.92,-387.66C153.87,-380.62 167.92,-375.03 178,-383.22 208.31,-407.84 177.75,-434.7 196,-469.22 196.94,-470.99 198.02,-472.72 199.21,-474.4"/>
<polygon fill="black" stroke="black" points="196.67,-476.83 205.75,-482.29 202.06,-472.36 196.67,-476.83"/>
<text text-anchor="middle" x="174" y="-387.02" font-family="Helvetica,Arial,sans-serif" font-size="14.00">1</text>
</g>
<!-- 15&#45;&gt;14 -->
<g id="edge26" class="edge">
<title>15&#45;&gt;14</title>
<path fill="none" stroke="black" d="M151.38,-405.46C161.06,-408.34 171.36,-413.16 178,-421.22 207.27,-456.75 175.13,-482.19 196,-523.22 196.91,-525 197.97,-526.75 199.14,-528.44"/>
<polygon fill="black" stroke="black" points="196.59,-530.85 205.65,-536.35 202,-526.4 196.59,-530.85"/>
<text text-anchor="middle" x="174" y="-425.02" font-family="Helvetica,Arial,sans-serif" font-size="14.00">1</text>
</g>
<!-- 17 -->
<g id="node19" class="node">
<title>17</title>
<ellipse fill="none" stroke="black" cx="125" cy="-59.22" rx="27" ry="18"/>
<text text-anchor="middle" x="125" y="-55.52" font-family="Helvetica,Arial,sans-serif" font-size="14.00">17</text>
</g>
<!-- 17&#45;&gt;16 -->
<g id="edge31" class="edge">
<title>17&#45;&gt;16</title>
<path fill="none" stroke="black" d="M143.63,-72.26C155.49,-82.09 170.32,-96.69 178,-113.22 210.75,-183.73 175.6,-212.2 196,-287.22 198.87,-297.77 203.49,-308.82 208.05,-318.35"/>
<polygon fill="black" stroke="black" points="204.92,-319.92 212.52,-327.31 211.18,-316.79 204.92,-319.92"/>
<text text-anchor="middle" x="174" y="-117.02" font-family="Helvetica,Arial,sans-serif" font-size="14.00">1</text>
</g>
<!-- 20 -->
<g id="node20" class="node">
<title>20</title>
<ellipse fill="none" stroke="black" cx="223" cy="-162.22" rx="27" ry="18"/>
<text text-anchor="middle" x="223" y="-158.52" font-family="Helvetica,Arial,sans-serif" font-size="14.00">20</text>
</g>
<!-- 17&#45;&gt;20 -->
<g id="edge30" class="edge">
<title>17&#45;&gt;20</title>
<path fill="none" stroke="black" d="M142.96,-45.61C153.94,-38.54 167.99,-32.94 178,-41.22 210.78,-68.32 176.44,-97.45 196,-135.22 196.92,-137 197.99,-138.74 199.17,-140.42"/>
<polygon fill="black" stroke="black" points="196.63,-142.84 205.69,-148.32 202.03,-138.38 196.63,-142.84"/>
<text text-anchor="middle" x="174" y="-45.02" font-family="Helvetica,Arial,sans-serif" font-size="14.00">1</text>
</g>
<!-- 18 -->
<g id="node21" class="node">
<title>18</title>
<ellipse fill="none" stroke="black" cx="223" cy="-108.22" rx="27" ry="18"/>
<text text-anchor="middle" x="223" y="-104.52" font-family="Helvetica,Arial,sans-serif" font-size="14.00">18</text>
</g>
<!-- 17&#45;&gt;18 -->
<g id="edge32" class="edge">
<title>17&#45;&gt;18</title>
<path fill="none" stroke="black" d="M132.67,-41.73C141.66,-20.9 158.78,9.57 178,-3.22 203.49,-20.17 214.24,-55.05 218.76,-79.95"/>
<polygon fill="black" stroke="black" points="215.32,-80.6 220.34,-89.93 222.23,-79.51 215.32,-80.6"/>
<text text-anchor="middle" x="174" y="-7.02" font-family="Helvetica,Arial,sans-serif" font-size="14.00">1</text>
</g>
<!-- 20&#45;&gt;22 -->
<g id="edge35" class="edge">
<title>20&#45;&gt;22</title>
<path fill="none" stroke="black" d="M230.97,-179.54C236.56,-193.8 244.37,-214.63 250,-233.22 278.72,-328.09 303.62,-443.2 314.36,-495.26"/>
<polygon fill="black" stroke="black" points="311,-496.28 316.44,-505.38 317.86,-494.88 311,-496.28"/>
<text text-anchor="middle" x="272" y="-323.02" font-family="Helvetica,Arial,sans-serif" font-size="14.00">1</text>
</g>
<!-- 18&#45;&gt;22 -->
<g id="edge33" class="edge">
<title>18&#45;&gt;22</title>
<path fill="none" stroke="black" d="M240.34,-122.1C244.03,-125.99 247.57,-130.47 250,-135.22 312.86,-258.19 320.11,-428.34 320.37,-494.92"/>
<polygon fill="black" stroke="black" points="316.87,-495.04 320.35,-505.05 323.87,-495.05 316.87,-495.04"/>
<text text-anchor="middle" x="272" y="-198.02" font-family="Helvetica,Arial,sans-serif" font-size="14.00">1</text>
</g>
<!-- 0 -->
<g id="node22" class="node">
<title>0</title>
<ellipse fill="none" stroke="black" cx="27" cy="-496.22" rx="27" ry="18"/>
<text text-anchor="middle" x="27" y="-492.52" font-family="Helvetica,Arial,sans-serif" font-size="14.00">0</text>
</g>
<!-- 0&#45;&gt;1 -->
<g id="edge36" class="edge">
<title>0&#45;&gt;1</title>
<path fill="none" stroke="black" d="M54.23,-496.22C64.5,-496.22 76.45,-496.22 87.53,-496.22"/>
<polygon fill="black" stroke="black" points="87.8,-499.72 97.8,-496.22 87.8,-492.72 87.8,-499.72"/>
<text text-anchor="middle" x="76" y="-500.02" font-family="Helvetica,Arial,sans-serif" font-size="14.00">1</text>
</g>
<!-- 0&#45;&gt;2 -->
<g id="edge37" class="edge">
<title>0&#45;&gt;2</title>
<path fill="none" stroke="black" d="M45.16,-509.81C60.18,-521.7 82.18,-539.11 99.13,-552.53"/>
<polygon fill="black" stroke="black" points="96.97,-555.29 106.99,-558.75 101.32,-549.8 96.97,-555.29"/>
<text text-anchor="middle" x="76" y="-540.02" font-family="Helvetica,Arial,sans-serif" font-size="14.00">1</text>
</g>
<!-- 0&#45;&gt;5 -->
<g id="edge38" class="edge">
<title>0&#45;&gt;5</title>
<path fill="none" stroke="black" d="M31.59,-514.26C41.25,-562.32 69.02,-697.31 98,-808.22 103.25,-828.3 109.97,-850.74 115.27,-867.8"/>
<polygon fill="black" stroke="black" points="112.03,-869.16 118.36,-877.66 118.71,-867.07 112.03,-869.16"/>
<text text-anchor="middle" x="76" y="-735.02" font-family="Helvetica,Arial,sans-serif" font-size="14.00">1</text>
</g>
<!-- 0&#45;&gt;7 -->
<g id="edge39" class="edge">
<title>0&#45;&gt;7</title>
<path fill="none" stroke="black" d="M34.01,-514.05C50.31,-562.45 95.47,-696.52 114.91,-754.23"/>
<polygon fill="black" stroke="black" points="111.61,-755.4 118.12,-763.76 118.24,-753.17 111.61,-755.4"/>
<text text-anchor="middle" x="76" y="-651.02" font-family="Helvetica,Arial,sans-serif" font-size="14.00">1</text>
</g>
<!-- 0&#45;&gt;9 -->
<g id="edge40" class="edge">
<title>0&#45;&gt;9</title>
<path fill="none" stroke="black" d="M35.86,-479.12C52.6,-442.67 91.89,-357.13 111.87,-313.62"/>
<polygon fill="black" stroke="black" points="115.18,-314.82 116.17,-304.27 108.82,-311.89 115.18,-314.82"/>
<text text-anchor="middle" x="76" y="-401.02" font-family="Helvetica,Arial,sans-serif" font-size="14.00">1</text>
</g>
<!-- 0&#45;&gt;12 -->
<g id="edge41" class="edge">
<title>0&#45;&gt;12</title>
<path fill="none" stroke="black" d="M37.38,-512.93C54.23,-542.94 89.71,-606.14 109.64,-641.64"/>
<polygon fill="black" stroke="black" points="106.63,-643.44 114.58,-650.45 112.74,-640.01 106.63,-643.44"/>
<text text-anchor="middle" x="76" y="-590.02" font-family="Helvetica,Arial,sans-serif" font-size="14.00">1</text>
</g>
<!-- 0&#45;&gt;15 -->
<g id="edge42" class="edge">
<title>0&#45;&gt;15</title>
<path fill="none" stroke="black" d="M43,-481.38C58.78,-465.76 83.78,-441.02 101.84,-423.15"/>
<polygon fill="black" stroke="black" points="104.46,-425.48 109.11,-415.96 99.54,-420.51 104.46,-425.48"/>
<text text-anchor="middle" x="76" y="-455.02" font-family="Helvetica,Arial,sans-serif" font-size="14.00">1</text>
</g>
<!-- 0&#45;&gt;17 -->
<g id="edge43" class="edge">
<title>0&#45;&gt;17</title>
<path fill="none" stroke="black" d="M30.99,-478.24C39.73,-426.39 66.65,-272.2 98,-146.22 103.01,-126.08 109.75,-103.64 115.11,-86.6"/>
<polygon fill="black" stroke="black" points="118.54,-87.34 118.24,-76.75 111.87,-85.22 118.54,-87.34"/>
<text text-anchor="middle" x="76" y="-256.02" font-family="Helvetica,Arial,sans-serif" font-size="14.00">1</text>
</g>
<!-- 21 -->
<g id="node23" class="node">
<title>21</title>
<ellipse fill="none" stroke="black" cx="125" cy="-173.22" rx="27" ry="18"/>
<text text-anchor="middle" x="125" y="-169.52" font-family="Helvetica,Arial,sans-serif" font-size="14.00">21</text>
</g>
<!-- 0&#45;&gt;21 -->
<g id="edge44" class="edge">
<title>0&#45;&gt;21</title>
<path fill="none" stroke="black" d="M33.26,-478.45C44.89,-439.12 73.73,-341.73 98,-260.22 103.92,-240.33 110.63,-217.88 115.75,-200.77"/>
<polygon fill="black" stroke="black" points="119.2,-201.46 118.71,-190.88 112.49,-199.46 119.2,-201.46"/>
<text text-anchor="middle" x="76" y="-348.02" font-family="Helvetica,Arial,sans-serif" font-size="14.00">1</text>
</g>
<!-- 21&#45;&gt;19 -->
<g id="edge46" class="edge">
<title>21&#45;&gt;19</title>
<path fill="none" stroke="black" d="M147.4,-183.39C158.42,-189.79 170.98,-199.13 178,-211.22 213.92,-273.11 179.58,-301.57 196,-371.22 199.55,-386.29 205.35,-402.54 210.57,-415.69"/>
<polygon fill="black" stroke="black" points="207.38,-417.14 214.4,-425.07 213.86,-414.49 207.38,-417.14"/>
<text text-anchor="middle" x="174" y="-215.02" font-family="Helvetica,Arial,sans-serif" font-size="14.00">1</text>
</g>
<!-- 21&#45;&gt;20 -->
<g id="edge45" class="edge">
<title>21&#45;&gt;20</title>
<path fill="none" stroke="black" d="M146.97,-162.71C154.09,-159.66 162.23,-156.75 170,-155.22 175.64,-154.11 181.66,-153.97 187.53,-154.4"/>
<polygon fill="black" stroke="black" points="187.47,-157.92 197.82,-155.68 188.33,-150.97 187.47,-157.92"/>
<text text-anchor="middle" x="174" y="-159.02" font-family="Helvetica,Arial,sans-serif" font-size="14.00">1</text>
</g>
<!-- 21&#45;&gt;18 -->
<g id="edge47" class="edge">
<title>21&#45;&gt;18</title>
<path fill="none" stroke="black" d="M141.67,-158.69C149.8,-151.5 160.09,-142.95 170,-136.22 176.8,-131.6 184.44,-127.13 191.73,-123.17"/>
<polygon fill="black" stroke="black" points="193.47,-126.21 200.68,-118.45 190.2,-120.02 193.47,-126.21"/>
<text text-anchor="middle" x="174" y="-140.02" font-family="Helvetica,Arial,sans-serif" font-size="14.00">1</text>
</g>
</g>
</svg>
