<?xml version="1.0" encoding="UTF-8" standalone="no"?>
<!DOCTYPE svg PUBLIC "-//W3C//DTD SVG 1.1//EN"
 "http://www.w3.org/Graphics/SVG/1.1/DTD/svg11.dtd">
<!-- Generated by graphviz version 2.43.0 (0)
 -->
<!-- Title: create_graph Pages: 1 -->
<svg width="1336pt" height="721pt"
 viewBox="0.00 0.00 1336.00 721.00" xmlns="http://www.w3.org/2000/svg" xmlns:xlink="http://www.w3.org/1999/xlink">
<g id="graph0" class="graph" transform="scale(1 1) rotate(0) translate(4 717)">
<title>create_graph</title>
<polygon fill="white" stroke="transparent" points="-4,4 -4,-717 1332,-717 1332,4 -4,4"/>
<!-- 21 -->
<g id="node1" class="node">
<title>21</title>
<ellipse fill="none" stroke="black" cx="27" cy="-196" rx="27" ry="18"/>
<text text-anchor="middle" x="27" y="-192.3" font-family="Helvetica,Arial,sans-serif" font-size="14.00">21</text>
</g>
<!-- 19 -->
<g id="node2" class="node">
<title>19</title>
<ellipse fill="none" stroke="black" cx="125" cy="-240" rx="27" ry="18"/>
<text text-anchor="middle" x="125" y="-236.3" font-family="Helvetica,Arial,sans-serif" font-size="14.00">19</text>
</g>
<!-- 21&#45;&gt;19 -->
<g id="edge1" class="edge">
<title>21&#45;&gt;19</title>
<path fill="none" stroke="black" d="M49.78,-205.98C62.55,-211.83 78.88,-219.32 92.98,-225.78"/>
<polygon fill="black" stroke="black" points="91.75,-229.07 102.3,-230.06 94.67,-222.71 91.75,-229.07"/>
<text text-anchor="middle" x="76" y="-223.8" font-family="Helvetica,Arial,sans-serif" font-size="14.00">1</text>
</g>
<!-- 18 -->
<g id="node3" class="node">
<title>18</title>
<ellipse fill="none" stroke="black" cx="909" cy="-202" rx="27" ry="18"/>
<text text-anchor="middle" x="909" y="-198.3" font-family="Helvetica,Arial,sans-serif" font-size="14.00">18</text>
</g>
<!-- 21&#45;&gt;18 -->
<g id="edge2" class="edge">
<title>21&#45;&gt;18</title>
<path fill="none" stroke="black" d="M45.31,-182.56C63.75,-169.62 94.3,-152 124,-152 124,-152 124,-152 518,-152 628.06,-152 648.79,-199.34 758,-213 761.53,-213.44 762.45,-213.14 766,-213 802.2,-211.6 843.47,-208.2 872.16,-205.55"/>
<polygon fill="black" stroke="black" points="872.5,-209.03 882.12,-204.61 871.84,-202.06 872.5,-209.03"/>
<text text-anchor="middle" x="468" y="-155.8" font-family="Helvetica,Arial,sans-serif" font-size="14.00">1</text>
</g>
<!-- 0 -->
<g id="node4" class="node">
<title>0</title>
<ellipse fill="none" stroke="black" cx="1301" cy="-454" rx="27" ry="18"/>
<text text-anchor="middle" x="1301" y="-450.3" font-family="Helvetica,Arial,sans-serif" font-size="14.00">0</text>
</g>
<!-- 21&#45;&gt;0 -->
<g id="edge3" class="edge">
<title>21&#45;&gt;0</title>
<path fill="none" stroke="black" d="M27.53,-214.16C25.7,-304.16 23.4,-698 124,-698 124,-698 124,-698 1204,-698 1249.94,-698 1283.11,-546.35 1295.09,-482.16"/>
<polygon fill="black" stroke="black" points="1298.61,-482.41 1296.96,-471.94 1291.72,-481.15 1298.61,-482.41"/>
<text text-anchor="middle" x="664" y="-701.8" font-family="Helvetica,Arial,sans-serif" font-size="14.00">1</text>
</g>
<!-- 2 -->
<g id="node11" class="node">
<title>2</title>
<ellipse fill="none" stroke="black" cx="223" cy="-524" rx="27" ry="18"/>
<text text-anchor="middle" x="223" y="-520.3" font-family="Helvetica,Arial,sans-serif" font-size="14.00">2</text>
</g>
<!-- 19&#45;&gt;2 -->
<g id="edge44" class="edge">
<title>19&#45;&gt;2</title>
<path fill="none" stroke="black" d="M132.01,-257.77C148.27,-305.88 193.25,-438.96 212.77,-496.69"/>
<polygon fill="black" stroke="black" points="209.48,-497.89 216,-506.24 216.11,-495.65 209.48,-497.89"/>
<text text-anchor="middle" x="174" y="-394.8" font-family="Helvetica,Arial,sans-serif" font-size="14.00">1</text>
</g>
<!-- 17 -->
<g id="node14" class="node">
<title>17</title>
<ellipse fill="none" stroke="black" cx="1007" cy="-229" rx="27" ry="18"/>
<text text-anchor="middle" x="1007" y="-225.3" font-family="Helvetica,Arial,sans-serif" font-size="14.00">17</text>
</g>
<!-- 18&#45;&gt;17 -->
<g id="edge12" class="edge">
<title>18&#45;&gt;17</title>
<path fill="none" stroke="black" d="M934.22,-208.81C945.71,-212.04 959.62,-215.96 972.13,-219.47"/>
<polygon fill="black" stroke="black" points="971.21,-222.85 981.78,-222.19 973.1,-216.11 971.21,-222.85"/>
<text text-anchor="middle" x="958" y="-220.8" font-family="Helvetica,Arial,sans-serif" font-size="14.00">1</text>
</g>
<!-- 20 -->
<g id="node5" class="node">
<title>20</title>
<ellipse fill="none" stroke="black" cx="1105" cy="-127" rx="27" ry="18"/>
<text text-anchor="middle" x="1105" y="-123.3" font-family="Helvetica,Arial,sans-serif" font-size="14.00">20</text>
</g>
<!-- 20&#45;&gt;21 -->
<g id="edge4" class="edge">
<title>20&#45;&gt;21</title>
<path fill="none" stroke="black" d="M1084.62,-115.18C1074.56,-108.76 1062.27,-100.41 1052,-92 1007.02,-55.16 1017.14,0 959,0 124,0 124,0 124,0 50.11,0 33.09,-113.72 29.17,-167.92"/>
<polygon fill="black" stroke="black" points="25.68,-167.71 28.55,-177.91 32.66,-168.15 25.68,-167.71"/>
<text text-anchor="middle" x="566" y="-3.8" font-family="Helvetica,Arial,sans-serif" font-size="14.00">1</text>
</g>
<!-- 6 -->
<g id="node6" class="node">
<title>6</title>
<ellipse fill="none" stroke="black" cx="909" cy="-386" rx="27" ry="18"/>
<text text-anchor="middle" x="909" y="-382.3" font-family="Helvetica,Arial,sans-serif" font-size="14.00">6</text>
</g>
<!-- 7 -->
<g id="node7" class="node">
<title>7</title>
<ellipse fill="none" stroke="black" cx="1007" cy="-538" rx="27" ry="18"/>
<text text-anchor="middle" x="1007" y="-534.3" font-family="Helvetica,Arial,sans-serif" font-size="14.00">7</text>
</g>
<!-- 6&#45;&gt;7 -->
<g id="edge5" class="edge">
<title>6&#45;&gt;7</title>
<path fill="none" stroke="black" d="M935.79,-383.76C945.07,-384.3 954.97,-386.65 962,-393 987.44,-415.98 970.01,-435.21 980,-468 984.38,-482.39 990.13,-498.11 995.11,-511"/>
<polygon fill="black" stroke="black" points="991.98,-512.62 998.89,-520.65 998.5,-510.06 991.98,-512.62"/>
<text text-anchor="middle" x="958" y="-396.8" font-family="Helvetica,Arial,sans-serif" font-size="14.00">1</text>
</g>
<!-- 7&#45;&gt;0 -->
<g id="edge29" class="edge">
<title>7&#45;&gt;0</title>
<path fill="none" stroke="black" d="M1030.12,-528.61C1043.76,-523.04 1061.71,-516.08 1078,-511 1155.69,-486.75 1177.62,-489.91 1256,-468 1259.42,-467.04 1262.98,-466 1266.52,-464.92"/>
<polygon fill="black" stroke="black" points="1267.84,-468.18 1276.34,-461.87 1265.76,-461.5 1267.84,-468.18"/>
<text text-anchor="middle" x="1154" y="-494.8" font-family="Helvetica,Arial,sans-serif" font-size="14.00">1</text>
</g>
<!-- 11 -->
<g id="node12" class="node">
<title>11</title>
<ellipse fill="none" stroke="black" cx="321" cy="-524" rx="27" ry="18"/>
<text text-anchor="middle" x="321" y="-520.3" font-family="Helvetica,Arial,sans-serif" font-size="14.00">11</text>
</g>
<!-- 7&#45;&gt;11 -->
<g id="edge31" class="edge">
<title>7&#45;&gt;11</title>
<path fill="none" stroke="black" d="M980.38,-541.3C961.07,-543.5 933.92,-546 910,-546 418,-546 418,-546 418,-546 396.65,-546 373.28,-540.77 354.95,-535.4"/>
<polygon fill="black" stroke="black" points="355.92,-532.04 345.33,-532.44 353.86,-538.73 355.92,-532.04"/>
<text text-anchor="middle" x="664" y="-549.8" font-family="Helvetica,Arial,sans-serif" font-size="14.00">1</text>
</g>
<!-- 10 -->
<g id="node20" class="node">
<title>10</title>
<ellipse fill="none" stroke="black" cx="1105" cy="-538" rx="27" ry="18"/>
<text text-anchor="middle" x="1105" y="-534.3" font-family="Helvetica,Arial,sans-serif" font-size="14.00">10</text>
</g>
<!-- 7&#45;&gt;10 -->
<g id="edge30" class="edge">
<title>7&#45;&gt;10</title>
<path fill="none" stroke="black" d="M1034.23,-538C1044.5,-538 1056.45,-538 1067.53,-538"/>
<polygon fill="black" stroke="black" points="1067.8,-541.5 1077.8,-538 1067.8,-534.5 1067.8,-541.5"/>
<text text-anchor="middle" x="1056" y="-541.8" font-family="Helvetica,Arial,sans-serif" font-size="14.00">1</text>
</g>
<!-- 5 -->
<g id="node8" class="node">
<title>5</title>
<ellipse fill="none" stroke="black" cx="1203" cy="-172" rx="27" ry="18"/>
<text text-anchor="middle" x="1203" y="-168.3" font-family="Helvetica,Arial,sans-serif" font-size="14.00">5</text>
</g>
<!-- 5&#45;&gt;0 -->
<g id="edge6" class="edge">
<title>5&#45;&gt;0</title>
<path fill="none" stroke="black" d="M1217.33,-187.52C1229.23,-202.17 1246.23,-225.23 1256,-248 1281.87,-308.32 1293.09,-385.3 1297.49,-425.94"/>
<polygon fill="black" stroke="black" points="1294.01,-426.34 1298.51,-435.93 1300.98,-425.63 1294.01,-426.34"/>
<text text-anchor="middle" x="1252" y="-251.8" font-family="Helvetica,Arial,sans-serif" font-size="14.00">1</text>
</g>
<!-- 3 -->
<g id="node9" class="node">
<title>3</title>
<ellipse fill="none" stroke="black" cx="1301" cy="-52" rx="27" ry="18"/>
<text text-anchor="middle" x="1301" y="-48.3" font-family="Helvetica,Arial,sans-serif" font-size="14.00">3</text>
</g>
<!-- 5&#45;&gt;3 -->
<g id="edge7" class="edge">
<title>5&#45;&gt;3</title>
<path fill="none" stroke="black" d="M1216.55,-156.31C1233.01,-135.74 1262.03,-99.46 1281.14,-75.58"/>
<polygon fill="black" stroke="black" points="1283.93,-77.69 1287.45,-67.69 1278.47,-73.31 1283.93,-77.69"/>
<text text-anchor="middle" x="1252" y="-119.8" font-family="Helvetica,Arial,sans-serif" font-size="14.00">1</text>
</g>
<!-- 4 -->
<g id="node10" class="node">
<title>4</title>
<ellipse fill="none" stroke="black" cx="1301" cy="-133" rx="27" ry="18"/>
<text text-anchor="middle" x="1301" y="-129.3" font-family="Helvetica,Arial,sans-serif" font-size="14.00">4</text>
</g>
<!-- 5&#45;&gt;4 -->
<g id="edge8" class="edge">
<title>5&#45;&gt;4</title>
<path fill="none" stroke="black" d="M1226.75,-162.76C1239.06,-157.75 1254.48,-151.49 1267.99,-146.01"/>
<polygon fill="black" stroke="black" points="1269.47,-149.18 1277.41,-142.18 1266.83,-142.7 1269.47,-149.18"/>
<text text-anchor="middle" x="1252" y="-157.8" font-family="Helvetica,Arial,sans-serif" font-size="14.00">1</text>
</g>
<!-- 22 -->
<g id="node23" class="node">
<title>22</title>
<ellipse fill="none" stroke="black" cx="811" cy="-160" rx="27" ry="18"/>
<text text-anchor="middle" x="811" y="-156.3" font-family="Helvetica,Arial,sans-serif" font-size="14.00">22</text>
</g>
<!-- 3&#45;&gt;22 -->
<g id="edge43" class="edge">
<title>3&#45;&gt;22</title>
<path fill="none" stroke="black" d="M1275.28,-46.39C1255.98,-42.49 1228.42,-38 1204,-38 908,-38 908,-38 908,-38 860.29,-38 832.66,-96.34 820.15,-132.33"/>
<polygon fill="black" stroke="black" points="816.68,-131.67 816.88,-142.26 823.33,-133.85 816.68,-131.67"/>
<text text-anchor="middle" x="1056" y="-41.8" font-family="Helvetica,Arial,sans-serif" font-size="14.00">1</text>
</g>
<!-- 4&#45;&gt;22 -->
<g id="edge42" class="edge">
<title>4&#45;&gt;22</title>
<path fill="none" stroke="black" d="M1285.93,-118.02C1268.47,-101.14 1236.95,-76 1204,-76 908,-76 908,-76 908,-76 872.1,-76 843.18,-109.68 826.78,-134.38"/>
<polygon fill="black" stroke="black" points="823.72,-132.68 821.32,-143 829.63,-136.43 823.72,-132.68"/>
<text text-anchor="middle" x="1056" y="-79.8" font-family="Helvetica,Arial,sans-serif" font-size="14.00">1</text>
</g>
<!-- 2&#45;&gt;0 -->
<g id="edge10" class="edge">
<title>2&#45;&gt;0</title>
<path fill="none" stroke="black" d="M231.46,-541.52C244.77,-569.71 275.46,-622 320,-622 320,-622 320,-622 959,-622 1080,-622 1130.43,-664.74 1230,-596 1268.58,-569.37 1286.82,-515.2 1294.7,-482"/>
<polygon fill="black" stroke="black" points="1298.17,-482.54 1296.91,-472.02 1291.33,-481.03 1298.17,-482.54"/>
<text text-anchor="middle" x="762" y="-625.8" font-family="Helvetica,Arial,sans-serif" font-size="14.00">1</text>
</g>
<!-- 2&#45;&gt;11 -->
<g id="edge9" class="edge">
<title>2&#45;&gt;11</title>
<path fill="none" stroke="black" d="M250.23,-524C260.5,-524 272.45,-524 283.53,-524"/>
<polygon fill="black" stroke="black" points="283.8,-527.5 293.8,-524 283.8,-520.5 283.8,-527.5"/>
<text text-anchor="middle" x="272" y="-527.8" font-family="Helvetica,Arial,sans-serif" font-size="14.00">1</text>
</g>
<!-- 1 -->
<g id="node13" class="node">
<title>1</title>
<ellipse fill="none" stroke="black" cx="419" cy="-485" rx="27" ry="18"/>
<text text-anchor="middle" x="419" y="-481.3" font-family="Helvetica,Arial,sans-serif" font-size="14.00">1</text>
</g>
<!-- 11&#45;&gt;1 -->
<g id="edge11" class="edge">
<title>11&#45;&gt;1</title>
<path fill="none" stroke="black" d="M344.75,-514.76C357.06,-509.75 372.48,-503.49 385.99,-498.01"/>
<polygon fill="black" stroke="black" points="387.47,-501.18 395.41,-494.18 384.83,-494.7 387.47,-501.18"/>
<text text-anchor="middle" x="370" y="-508.8" font-family="Helvetica,Arial,sans-serif" font-size="14.00">1</text>
</g>
<!-- 1&#45;&gt;0 -->
<g id="edge45" class="edge">
<title>1&#45;&gt;0</title>
<path fill="none" stroke="black" d="M442.91,-493.7C462.13,-500.21 490.46,-508 516,-508 516,-508 516,-508 861,-508 901.01,-508 1166.82,-472.21 1264.27,-458.91"/>
<polygon fill="black" stroke="black" points="1264.8,-462.37 1274.23,-457.54 1263.85,-455.43 1264.8,-462.37"/>
<text text-anchor="middle" x="860" y="-511.8" font-family="Helvetica,Arial,sans-serif" font-size="14.00">1</text>
</g>
<!-- 16 -->
<g id="node15" class="node">
<title>16</title>
<ellipse fill="none" stroke="black" cx="517" cy="-307" rx="27" ry="18"/>
<text text-anchor="middle" x="517" y="-303.3" font-family="Helvetica,Arial,sans-serif" font-size="14.00">16</text>
</g>
<!-- 1&#45;&gt;16 -->
<g id="edge47" class="edge">
<title>1&#45;&gt;16</title>
<path fill="none" stroke="black" d="M429.03,-468.25C445.83,-437.11 481.97,-370.09 501.97,-333.01"/>
<polygon fill="black" stroke="black" points="505.26,-334.29 506.92,-323.83 499.1,-330.97 505.26,-334.29"/>
<text text-anchor="middle" x="468" y="-405.8" font-family="Helvetica,Arial,sans-serif" font-size="14.00">1</text>
</g>
<!-- 13 -->
<g id="node16" class="node">
<title>13</title>
<ellipse fill="none" stroke="black" cx="909" cy="-294" rx="27" ry="18"/>
<text text-anchor="middle" x="909" y="-290.3" font-family="Helvetica,Arial,sans-serif" font-size="14.00">13</text>
</g>
<!-- 1&#45;&gt;13 -->
<g id="edge46" class="edge">
<title>1&#45;&gt;13</title>
<path fill="none" stroke="black" d="M444.7,-478.99C463.99,-474.81 491.54,-470 516,-470 516,-470 516,-470 665,-470 710.6,-470 726.25,-474.34 766,-452 818.7,-422.38 815.43,-394.82 856,-350 866.07,-338.87 877.4,-326.64 886.91,-316.45"/>
<polygon fill="black" stroke="black" points="889.5,-318.81 893.77,-309.12 884.38,-314.03 889.5,-318.81"/>
<text text-anchor="middle" x="664" y="-473.8" font-family="Helvetica,Arial,sans-serif" font-size="14.00">1</text>
</g>
<!-- 17&#45;&gt;0 -->
<g id="edge13" class="edge">
<title>17&#45;&gt;0</title>
<path fill="none" stroke="black" d="M1029.9,-238.68C1071.8,-257.89 1164.94,-303.94 1230,-361 1252.4,-380.64 1272.21,-408.5 1284.99,-428.6"/>
<polygon fill="black" stroke="black" points="1282.1,-430.59 1290.35,-437.23 1288.05,-426.89 1282.1,-430.59"/>
<text text-anchor="middle" x="1154" y="-311.8" font-family="Helvetica,Arial,sans-serif" font-size="14.00">1</text>
</g>
<!-- 17&#45;&gt;20 -->
<g id="edge15" class="edge">
<title>17&#45;&gt;20</title>
<path fill="none" stroke="black" d="M1022.14,-213.71C1036.23,-198.51 1058.52,-174.55 1078,-154 1079.53,-152.39 1081.11,-150.73 1082.71,-149.06"/>
<polygon fill="black" stroke="black" points="1085.26,-151.45 1089.65,-141.81 1080.21,-146.61 1085.26,-151.45"/>
<text text-anchor="middle" x="1056" y="-184.8" font-family="Helvetica,Arial,sans-serif" font-size="14.00">1</text>
</g>
<!-- 17&#45;&gt;16 -->
<g id="edge14" class="edge">
<title>17&#45;&gt;16</title>
<path fill="none" stroke="black" d="M981.63,-235.55C935.06,-247.81 830.01,-274.23 740,-288 675,-297.94 598.44,-303.06 554.33,-305.37"/>
<polygon fill="black" stroke="black" points="553.92,-301.89 544.11,-305.89 554.27,-308.88 553.92,-301.89"/>
<text text-anchor="middle" x="762" y="-288.8" font-family="Helvetica,Arial,sans-serif" font-size="14.00">1</text>
</g>
<!-- 9 -->
<g id="node21" class="node">
<title>9</title>
<ellipse fill="none" stroke="black" cx="615" cy="-261" rx="27" ry="18"/>
<text text-anchor="middle" x="615" y="-257.3" font-family="Helvetica,Arial,sans-serif" font-size="14.00">9</text>
</g>
<!-- 16&#45;&gt;9 -->
<g id="edge24" class="edge">
<title>16&#45;&gt;9</title>
<path fill="none" stroke="black" d="M535.77,-293.73C543.54,-288.34 552.94,-282.37 562,-278 567.59,-275.3 573.71,-272.88 579.74,-270.76"/>
<polygon fill="black" stroke="black" points="581.26,-273.94 589.66,-267.49 579.07,-267.29 581.26,-273.94"/>
<text text-anchor="middle" x="566" y="-281.8" font-family="Helvetica,Arial,sans-serif" font-size="14.00">1</text>
</g>
<!-- 15 -->
<g id="node17" class="node">
<title>15</title>
<ellipse fill="none" stroke="black" cx="1007" cy="-328" rx="27" ry="18"/>
<text text-anchor="middle" x="1007" y="-324.3" font-family="Helvetica,Arial,sans-serif" font-size="14.00">15</text>
</g>
<!-- 13&#45;&gt;15 -->
<g id="edge16" class="edge">
<title>13&#45;&gt;15</title>
<path fill="none" stroke="black" d="M935.51,-297.96C944.07,-299.66 953.58,-301.97 962,-305 967.04,-306.81 972.23,-309.1 977.19,-311.53"/>
<polygon fill="black" stroke="black" points="975.88,-314.79 986.37,-316.27 979.1,-308.57 975.88,-314.79"/>
<text text-anchor="middle" x="958" y="-308.8" font-family="Helvetica,Arial,sans-serif" font-size="14.00">1</text>
</g>
<!-- 15&#45;&gt;0 -->
<g id="edge17" class="edge">
<title>15&#45;&gt;0</title>
<path fill="none" stroke="black" d="M1033.96,-330.8C1081.48,-336.95 1184.18,-355.02 1256,-402 1266.72,-409.01 1276.24,-419.39 1283.66,-429.04"/>
<polygon fill="black" stroke="black" points="1280.9,-431.2 1289.62,-437.23 1286.56,-427.08 1280.9,-431.2"/>
<text text-anchor="middle" x="1154" y="-361.8" font-family="Helvetica,Arial,sans-serif" font-size="14.00">1</text>
</g>
<!-- 15&#45;&gt;16 -->
<g id="edge18" class="edge">
<title>15&#45;&gt;16</title>
<path fill="none" stroke="black" d="M1005.48,-346.18C1003.59,-373.79 995.5,-425.53 962,-449 959.09,-451.04 957.55,-449.25 954,-449 822.39,-439.87 782.6,-456.74 660,-408 613.12,-389.36 567.07,-352.15 540.65,-328.47"/>
<polygon fill="black" stroke="black" points="542.85,-325.74 533.1,-321.59 538.14,-330.92 542.85,-325.74"/>
<text text-anchor="middle" x="762" y="-441.8" font-family="Helvetica,Arial,sans-serif" font-size="14.00">1</text>
</g>
<!-- 14 -->
<g id="node18" class="node">
<title>14</title>
<ellipse fill="none" stroke="black" cx="1105" cy="-181" rx="27" ry="18"/>
<text text-anchor="middle" x="1105" y="-177.3" font-family="Helvetica,Arial,sans-serif" font-size="14.00">14</text>
</g>
<!-- 15&#45;&gt;14 -->
<g id="edge19" class="edge">
<title>15&#45;&gt;14</title>
<path fill="none" stroke="black" d="M1018.64,-311.71C1035.36,-286.1 1067.92,-236.25 1087.64,-206.06"/>
<polygon fill="black" stroke="black" points="1090.77,-207.65 1093.31,-197.37 1084.91,-203.83 1090.77,-207.65"/>
<text text-anchor="middle" x="1056" y="-262.8" font-family="Helvetica,Arial,sans-serif" font-size="14.00">1</text>
</g>
<!-- 14&#45;&gt;5 -->
<g id="edge41" class="edge">
<title>14&#45;&gt;5</title>
<path fill="none" stroke="black" d="M1131.98,-178.56C1142.44,-177.58 1154.68,-176.44 1165.97,-175.38"/>
<polygon fill="black" stroke="black" points="1166.37,-178.86 1176,-174.44 1165.72,-171.89 1166.37,-178.86"/>
<text text-anchor="middle" x="1154" y="-180.8" font-family="Helvetica,Arial,sans-serif" font-size="14.00">1</text>
</g>
<!-- 12 -->
<g id="node19" class="node">
<title>12</title>
<ellipse fill="none" stroke="black" cx="1203" cy="-569" rx="27" ry="18"/>
<text text-anchor="middle" x="1203" y="-565.3" font-family="Helvetica,Arial,sans-serif" font-size="14.00">12</text>
</g>
<!-- 12&#45;&gt;19 -->
<g id="edge20" class="edge">
<title>12&#45;&gt;19</title>
<path fill="none" stroke="black" d="M1183.07,-581.46C1143.32,-606.38 1047.52,-660 959,-660 222,-660 222,-660 222,-660 141.42,-660 128.48,-362.47 126.4,-268.25"/>
<polygon fill="black" stroke="black" points="129.89,-267.98 126.2,-258.05 122.89,-268.11 129.89,-267.98"/>
<text text-anchor="middle" x="664" y="-663.8" font-family="Helvetica,Arial,sans-serif" font-size="14.00">1</text>
</g>
<!-- 12&#45;&gt;0 -->
<g id="edge21" class="edge">
<title>12&#45;&gt;0</title>
<path fill="none" stroke="black" d="M1216.95,-553.49C1233.27,-533.94 1261.47,-500.16 1280.42,-477.45"/>
<polygon fill="black" stroke="black" points="1283.23,-479.55 1286.95,-469.63 1277.86,-475.06 1283.23,-479.55"/>
<text text-anchor="middle" x="1252" y="-517.8" font-family="Helvetica,Arial,sans-serif" font-size="14.00">1</text>
</g>
<!-- 12&#45;&gt;11 -->
<g id="edge22" class="edge">
<title>12&#45;&gt;11</title>
<path fill="none" stroke="black" d="M1177.3,-575.01C1158.01,-579.19 1130.46,-584 1106,-584 418,-584 418,-584 418,-584 388.86,-584 361.26,-563.87 343.2,-546.93"/>
<polygon fill="black" stroke="black" points="345.19,-543.97 335.61,-539.45 340.28,-548.96 345.19,-543.97"/>
<text text-anchor="middle" x="762" y="-587.8" font-family="Helvetica,Arial,sans-serif" font-size="14.00">1</text>
</g>
<!-- 10&#45;&gt;12 -->
<g id="edge23" class="edge">
<title>10&#45;&gt;12</title>
<path fill="none" stroke="black" d="M1129.73,-545.66C1141.38,-549.43 1155.63,-554.03 1168.38,-558.14"/>
<polygon fill="black" stroke="black" points="1167.62,-561.58 1178.21,-561.32 1169.77,-554.91 1167.62,-561.58"/>
<text text-anchor="middle" x="1154" y="-557.8" font-family="Helvetica,Arial,sans-serif" font-size="14.00">1</text>
</g>
<!-- 9&#45;&gt;19 -->
<g id="edge26" class="edge">
<title>9&#45;&gt;19</title>
<path fill="none" stroke="black" d="M590.64,-252.94C571.39,-247.02 543.25,-240 518,-240 222,-240 222,-240 222,-240 202.22,-240 180.14,-240 162.15,-240"/>
<polygon fill="black" stroke="black" points="162.08,-236.5 152.08,-240 162.08,-243.5 162.08,-236.5"/>
<text text-anchor="middle" x="370" y="-243.8" font-family="Helvetica,Arial,sans-serif" font-size="14.00">1</text>
</g>
<!-- 9&#45;&gt;0 -->
<g id="edge25" class="edge">
<title>9&#45;&gt;0</title>
<path fill="none" stroke="black" d="M632.68,-274.64C672.68,-306.35 778.4,-384.52 882,-413 956.15,-433.38 978.1,-416 1055,-416 1055,-416 1055,-416 1204,-416 1228.23,-416 1253.63,-426.59 1272.22,-436.59"/>
<polygon fill="black" stroke="black" points="1270.59,-439.69 1281.02,-441.56 1274.03,-433.59 1270.59,-439.69"/>
<text text-anchor="middle" x="958" y="-425.8" font-family="Helvetica,Arial,sans-serif" font-size="14.00">1</text>
</g>
<!-- 8 -->
<g id="node22" class="node">
<title>8</title>
<ellipse fill="none" stroke="black" cx="713" cy="-261" rx="27" ry="18"/>
<text text-anchor="middle" x="713" y="-257.3" font-family="Helvetica,Arial,sans-serif" font-size="14.00">8</text>
</g>
<!-- 9&#45;&gt;8 -->
<g id="edge27" class="edge">
<title>9&#45;&gt;8</title>
<path fill="none" stroke="black" d="M642.23,-261C652.5,-261 664.45,-261 675.53,-261"/>
<polygon fill="black" stroke="black" points="675.8,-264.5 685.8,-261 675.8,-257.5 675.8,-264.5"/>
<text text-anchor="middle" x="664" y="-264.8" font-family="Helvetica,Arial,sans-serif" font-size="14.00">1</text>
</g>
<!-- 8&#45;&gt;22 -->
<g id="edge28" class="edge">
<title>8&#45;&gt;22</title>
<path fill="none" stroke="black" d="M728.17,-246.1C744.12,-229.31 770.21,-201.86 788.64,-182.47"/>
<polygon fill="black" stroke="black" points="791.42,-184.62 795.78,-174.96 786.35,-179.8 791.42,-184.62"/>
<text text-anchor="middle" x="762" y="-217.8" font-family="Helvetica,Arial,sans-serif" font-size="14.00">1</text>
</g>
<!-- 22&#45;&gt;19 -->
<g id="edge34" class="edge">
<title>22&#45;&gt;19</title>
<path fill="none" stroke="black" d="M786.12,-152.84C729.99,-136.9 585.25,-100.96 464,-115 343.61,-128.94 211.88,-193.36 154.91,-223.88"/>
<polygon fill="black" stroke="black" points="153.23,-220.81 146.1,-228.65 156.56,-226.96 153.23,-220.81"/>
<text text-anchor="middle" x="468" y="-118.8" font-family="Helvetica,Arial,sans-serif" font-size="14.00">1</text>
</g>
<!-- 22&#45;&gt;18 -->
<g id="edge35" class="edge">
<title>22&#45;&gt;18</title>
<path fill="none" stroke="black" d="M834.27,-169.74C846.87,-175.25 862.83,-182.24 876.67,-188.29"/>
<polygon fill="black" stroke="black" points="875.29,-191.51 885.86,-192.31 878.1,-185.1 875.29,-191.51"/>
<text text-anchor="middle" x="860" y="-186.8" font-family="Helvetica,Arial,sans-serif" font-size="14.00">1</text>
</g>
<!-- 22&#45;&gt;20 -->
<g id="edge33" class="edge">
<title>22&#45;&gt;20</title>
<path fill="none" stroke="black" d="M837.66,-157.1C889.78,-151.21 1008.16,-137.83 1067.97,-131.07"/>
<polygon fill="black" stroke="black" points="1068.54,-134.53 1078.09,-129.93 1067.76,-127.57 1068.54,-134.53"/>
<text text-anchor="middle" x="958" y="-147.8" font-family="Helvetica,Arial,sans-serif" font-size="14.00">1</text>
</g>
<!-- 22&#45;&gt;6 -->
<g id="edge40" class="edge">
<title>22&#45;&gt;6</title>
<path fill="none" stroke="black" d="M811.63,-178.18C811.77,-214.91 816.71,-299.09 856,-354 861.23,-361.31 868.7,-367.29 876.36,-372.02"/>
<polygon fill="black" stroke="black" points="874.86,-375.19 885.3,-377 878.27,-369.08 874.86,-375.19"/>
<text text-anchor="middle" x="860" y="-366.8" font-family="Helvetica,Arial,sans-serif" font-size="14.00">1</text>
</g>
<!-- 22&#45;&gt;11 -->
<g id="edge38" class="edge">
<title>22&#45;&gt;11</title>
<path fill="none" stroke="black" d="M784.04,-157.92C758.73,-156.53 719.31,-156.05 686,-163 639.95,-172.62 628.67,-179.35 588,-203 540.12,-230.85 527.92,-239.62 490,-280 422.98,-351.38 362.73,-451.54 336.24,-498.2"/>
<polygon fill="black" stroke="black" points="333.12,-496.62 331.26,-507.05 339.22,-500.05 333.12,-496.62"/>
<text text-anchor="middle" x="566" y="-222.8" font-family="Helvetica,Arial,sans-serif" font-size="14.00">1</text>
</g>
<!-- 22&#45;&gt;16 -->
<g id="edge36" class="edge">
<title>22&#45;&gt;16</title>
<path fill="none" stroke="black" d="M784.65,-164.31C741.54,-172.51 652.37,-193.28 588,-234 567.53,-246.95 548.79,-267.14 535.87,-283.01"/>
<polygon fill="black" stroke="black" points="533.12,-280.84 529.66,-290.85 538.61,-285.18 533.12,-280.84"/>
<text text-anchor="middle" x="664" y="-202.8" font-family="Helvetica,Arial,sans-serif" font-size="14.00">1</text>
</g>
<!-- 22&#45;&gt;13 -->
<g id="edge37" class="edge">
<title>22&#45;&gt;13</title>
<path fill="none" stroke="black" d="M823.58,-176.16C840.23,-199.4 871.06,-242.44 890.5,-269.57"/>
<polygon fill="black" stroke="black" points="887.71,-271.69 896.38,-277.78 893.4,-267.61 887.71,-271.69"/>
<text text-anchor="middle" x="860" y="-235.8" font-family="Helvetica,Arial,sans-serif" font-size="14.00">1</text>
</g>
<!-- 22&#45;&gt;14 -->
<g id="edge32" class="edge">
<title>22&#45;&gt;14</title>
<path fill="none" stroke="black" d="M838.2,-159.63C883.59,-159.32 979.7,-160.18 1060,-171 1063.08,-171.42 1066.27,-171.94 1069.45,-172.54"/>
<polygon fill="black" stroke="black" points="1068.97,-176.01 1079.47,-174.61 1070.39,-169.16 1068.97,-176.01"/>
<text text-anchor="middle" x="958" y="-166.8" font-family="Helvetica,Arial,sans-serif" font-size="14.00">1</text>
</g>
<!-- 22&#45;&gt;10 -->
<g id="edge39" class="edge">
<title>22&#45;&gt;10</title>
<path fill="none" stroke="black" d="M815.98,-177.87C823.85,-209.78 844,-277.3 882,-321 909.36,-352.46 930.36,-342.84 962,-370 1013.61,-414.3 1062.13,-478.26 1086.89,-513.1"/>
<polygon fill="black" stroke="black" points="1084.32,-515.54 1092.94,-521.7 1090.05,-511.51 1084.32,-515.54"/>
<text text-anchor="middle" x="958" y="-373.8" font-family="Helvetica,Arial,sans-serif" font-size="14.00">1</text>
</g>
</g>
</svg>
