<?xml version="1.0" encoding="UTF-8" standalone="no"?>
<!DOCTYPE svg PUBLIC "-//W3C//DTD SVG 1.1//EN"
 "http://www.w3.org/Graphics/SVG/1.1/DTD/svg11.dtd">
<!-- Generated by graphviz version 2.43.0 (0)
 -->
<!-- Title: create_graph Pages: 1 -->
<svg width="356pt" height="538pt"
 viewBox="0.00 0.00 356.00 538.00" xmlns="http://www.w3.org/2000/svg" xmlns:xlink="http://www.w3.org/1999/xlink">
<g id="graph0" class="graph" transform="scale(1 1) rotate(0) translate(4 534)">
<title>create_graph</title>
<polygon fill="white" stroke="transparent" points="-4,4 -4,-534 352,-534 352,4 -4,4"/>
<!-- 1 -->
<g id="node1" class="node">
<title>1</title>
<ellipse fill="none" stroke="black" cx="223" cy="-350" rx="27" ry="18"/>
<text text-anchor="middle" x="223" y="-346.3" font-family="Helvetica,Arial,sans-serif" font-size="14.00">1</text>
</g>
<!-- 16 -->
<g id="node2" class="node">
<title>16</title>
<ellipse fill="none" stroke="black" cx="321" cy="-269" rx="27" ry="18"/>
<text text-anchor="middle" x="321" y="-265.3" font-family="Helvetica,Arial,sans-serif" font-size="14.00">16</text>
</g>
<!-- 1&#45;&gt;16 -->
<g id="edge1" class="edge">
<title>1&#45;&gt;16</title>
<path fill="none" stroke="black" d="M240.72,-335.89C255.86,-323.11 278.36,-304.13 295.53,-289.65"/>
<polygon fill="black" stroke="black" points="298.08,-292.07 303.47,-282.95 293.57,-286.72 298.08,-292.07"/>
<text text-anchor="middle" x="272" y="-314.8" font-family="Helvetica,Arial,sans-serif" font-size="14.00">1</text>
</g>
<!-- 2 -->
<g id="node3" class="node">
<title>2</title>
<ellipse fill="none" stroke="black" cx="125" cy="-338" rx="27" ry="18"/>
<text text-anchor="middle" x="125" y="-334.3" font-family="Helvetica,Arial,sans-serif" font-size="14.00">2</text>
</g>
<!-- 2&#45;&gt;1 -->
<g id="edge3" class="edge">
<title>2&#45;&gt;1</title>
<path fill="none" stroke="black" d="M139.92,-353.14C147.89,-360.67 158.57,-369.01 170,-373 179.03,-376.15 188.68,-373.62 197.18,-369.26"/>
<polygon fill="black" stroke="black" points="199.14,-372.16 205.88,-363.98 195.51,-366.18 199.14,-372.16"/>
<text text-anchor="middle" x="174" y="-377.8" font-family="Helvetica,Arial,sans-serif" font-size="14.00">1</text>
</g>
<!-- 12 -->
<g id="node4" class="node">
<title>12</title>
<ellipse fill="none" stroke="black" cx="223" cy="-296" rx="27" ry="18"/>
<text text-anchor="middle" x="223" y="-292.3" font-family="Helvetica,Arial,sans-serif" font-size="14.00">12</text>
</g>
<!-- 2&#45;&gt;12 -->
<g id="edge2" class="edge">
<title>2&#45;&gt;12</title>
<path fill="none" stroke="black" d="M151.88,-339.84C160.46,-339.59 169.89,-338.35 178,-335 183.06,-332.91 191.59,-325.74 199.81,-318.1"/>
<polygon fill="black" stroke="black" points="202.34,-320.52 207.15,-311.09 197.5,-315.46 202.34,-320.52"/>
<text text-anchor="middle" x="174" y="-340.8" font-family="Helvetica,Arial,sans-serif" font-size="14.00">1</text>
</g>
<!-- 10 -->
<g id="node5" class="node">
<title>10</title>
<ellipse fill="none" stroke="black" cx="223" cy="-242" rx="27" ry="18"/>
<text text-anchor="middle" x="223" y="-238.3" font-family="Helvetica,Arial,sans-serif" font-size="14.00">10</text>
</g>
<!-- 2&#45;&gt;10 -->
<g id="edge4" class="edge">
<title>2&#45;&gt;10</title>
<path fill="none" stroke="black" d="M145.08,-325.32C155.51,-317.82 168.26,-307.72 178,-297 187.95,-286.05 186.83,-280.61 196,-269 197.24,-267.43 198.56,-265.85 199.92,-264.28"/>
<polygon fill="black" stroke="black" points="202.72,-266.4 206.88,-256.66 197.55,-261.68 202.72,-266.4"/>
<text text-anchor="middle" x="174" y="-307.8" font-family="Helvetica,Arial,sans-serif" font-size="14.00">1</text>
</g>
<!-- 12&#45;&gt;16 -->
<g id="edge19" class="edge">
<title>12&#45;&gt;16</title>
<path fill="none" stroke="black" d="M248.22,-289.19C259.71,-285.96 273.62,-282.04 286.13,-278.53"/>
<polygon fill="black" stroke="black" points="287.1,-281.89 295.78,-275.81 285.21,-275.15 287.1,-281.89"/>
<text text-anchor="middle" x="272" y="-286.8" font-family="Helvetica,Arial,sans-serif" font-size="14.00">1</text>
</g>
<!-- 10&#45;&gt;16 -->
<g id="edge15" class="edge">
<title>10&#45;&gt;16</title>
<path fill="none" stroke="black" d="M248.68,-247.83C257.35,-249.97 267.14,-252.48 276,-255 279.42,-255.97 282.97,-257.02 286.52,-258.1"/>
<polygon fill="black" stroke="black" points="285.75,-261.53 296.33,-261.17 287.83,-254.85 285.75,-261.53"/>
<text text-anchor="middle" x="272" y="-258.8" font-family="Helvetica,Arial,sans-serif" font-size="14.00">1</text>
</g>
<!-- 3 -->
<g id="node6" class="node">
<title>3</title>
<ellipse fill="none" stroke="black" cx="125" cy="-233" rx="27" ry="18"/>
<text text-anchor="middle" x="125" y="-229.3" font-family="Helvetica,Arial,sans-serif" font-size="14.00">3</text>
</g>
<!-- 3&#45;&gt;10 -->
<g id="edge6" class="edge">
<title>3&#45;&gt;10</title>
<path fill="none" stroke="black" d="M151.98,-235.44C162.44,-236.42 174.68,-237.56 185.97,-238.62"/>
<polygon fill="black" stroke="black" points="185.72,-242.11 196,-239.56 186.37,-235.14 185.72,-242.11"/>
<text text-anchor="middle" x="174" y="-240.8" font-family="Helvetica,Arial,sans-serif" font-size="14.00">1</text>
</g>
<!-- 13 -->
<g id="node7" class="node">
<title>13</title>
<ellipse fill="none" stroke="black" cx="223" cy="-188" rx="27" ry="18"/>
<text text-anchor="middle" x="223" y="-184.3" font-family="Helvetica,Arial,sans-serif" font-size="14.00">13</text>
</g>
<!-- 3&#45;&gt;13 -->
<g id="edge5" class="edge">
<title>3&#45;&gt;13</title>
<path fill="none" stroke="black" d="M147.78,-222.79C160.55,-216.81 176.88,-209.15 190.98,-202.54"/>
<polygon fill="black" stroke="black" points="192.73,-205.58 200.3,-198.17 189.76,-199.25 192.73,-205.58"/>
<text text-anchor="middle" x="174" y="-214.8" font-family="Helvetica,Arial,sans-serif" font-size="14.00">1</text>
</g>
<!-- 13&#45;&gt;16 -->
<g id="edge20" class="edge">
<title>13&#45;&gt;16</title>
<path fill="none" stroke="black" d="M240.72,-202.11C255.86,-214.89 278.36,-233.87 295.53,-248.35"/>
<polygon fill="black" stroke="black" points="293.57,-251.28 303.47,-255.05 298.08,-245.93 293.57,-251.28"/>
<text text-anchor="middle" x="272" y="-233.8" font-family="Helvetica,Arial,sans-serif" font-size="14.00">1</text>
</g>
<!-- 4 -->
<g id="node8" class="node">
<title>4</title>
<ellipse fill="none" stroke="black" cx="223" cy="-512" rx="27" ry="18"/>
<text text-anchor="middle" x="223" y="-508.3" font-family="Helvetica,Arial,sans-serif" font-size="14.00">4</text>
</g>
<!-- 4&#45;&gt;16 -->
<g id="edge7" class="edge">
<title>4&#45;&gt;16</title>
<path fill="none" stroke="black" d="M239.76,-497.79C243.46,-493.9 247.15,-489.51 250,-485 288.43,-424.17 307.65,-340.27 315.51,-297.13"/>
<polygon fill="black" stroke="black" points="318.99,-297.53 317.27,-287.08 312.1,-296.32 318.99,-297.53"/>
<text text-anchor="middle" x="272" y="-449.8" font-family="Helvetica,Arial,sans-serif" font-size="14.00">1</text>
</g>
<!-- 5 -->
<g id="node9" class="node">
<title>5</title>
<ellipse fill="none" stroke="black" cx="223" cy="-458" rx="27" ry="18"/>
<text text-anchor="middle" x="223" y="-454.3" font-family="Helvetica,Arial,sans-serif" font-size="14.00">5</text>
</g>
<!-- 5&#45;&gt;16 -->
<g id="edge8" class="edge">
<title>5&#45;&gt;16</title>
<path fill="none" stroke="black" d="M239.61,-443.69C243.31,-439.81 247.04,-435.44 250,-431 279.07,-387.31 300.58,-329.57 311.63,-296.13"/>
<polygon fill="black" stroke="black" points="314.97,-297.17 314.72,-286.58 308.31,-295.01 314.97,-297.17"/>
<text text-anchor="middle" x="272" y="-400.8" font-family="Helvetica,Arial,sans-serif" font-size="14.00">1</text>
</g>
<!-- 6 -->
<g id="node10" class="node">
<title>6</title>
<ellipse fill="none" stroke="black" cx="223" cy="-404" rx="27" ry="18"/>
<text text-anchor="middle" x="223" y="-400.3" font-family="Helvetica,Arial,sans-serif" font-size="14.00">6</text>
</g>
<!-- 6&#45;&gt;16 -->
<g id="edge9" class="edge">
<title>6&#45;&gt;16</title>
<path fill="none" stroke="black" d="M239.11,-389.33C242.82,-385.45 246.68,-381.18 250,-377 271.24,-350.23 292.08,-316.91 305.43,-294.41"/>
<polygon fill="black" stroke="black" points="308.45,-296.17 310.49,-285.77 302.41,-292.62 308.45,-296.17"/>
<text text-anchor="middle" x="272" y="-354.8" font-family="Helvetica,Arial,sans-serif" font-size="14.00">1</text>
</g>
<!-- 7 -->
<g id="node11" class="node">
<title>7</title>
<ellipse fill="none" stroke="black" cx="125" cy="-452" rx="27" ry="18"/>
<text text-anchor="middle" x="125" y="-448.3" font-family="Helvetica,Arial,sans-serif" font-size="14.00">7</text>
</g>
<!-- 7&#45;&gt;4 -->
<g id="edge12" class="edge">
<title>7&#45;&gt;4</title>
<path fill="none" stroke="black" d="M145.43,-464.14C159.35,-472.84 178.32,-484.7 193.89,-494.43"/>
<polygon fill="black" stroke="black" points="192.27,-497.54 202.6,-499.88 195.98,-491.61 192.27,-497.54"/>
<text text-anchor="middle" x="174" y="-486.8" font-family="Helvetica,Arial,sans-serif" font-size="14.00">1</text>
</g>
<!-- 7&#45;&gt;5 -->
<g id="edge11" class="edge">
<title>7&#45;&gt;5</title>
<path fill="none" stroke="black" d="M151.98,-453.62C162.44,-454.28 174.68,-455.04 185.97,-455.75"/>
<polygon fill="black" stroke="black" points="185.8,-459.24 196,-456.38 186.24,-452.26 185.8,-459.24"/>
<text text-anchor="middle" x="174" y="-458.8" font-family="Helvetica,Arial,sans-serif" font-size="14.00">1</text>
</g>
<!-- 7&#45;&gt;6 -->
<g id="edge10" class="edge">
<title>7&#45;&gt;6</title>
<path fill="none" stroke="black" d="M147.31,-441.35C160.36,-434.82 177.27,-426.37 191.7,-419.15"/>
<polygon fill="black" stroke="black" points="193.38,-422.23 200.75,-414.62 190.24,-415.96 193.38,-422.23"/>
<text text-anchor="middle" x="174" y="-432.8" font-family="Helvetica,Arial,sans-serif" font-size="14.00">1</text>
</g>
<!-- 8 -->
<g id="node12" class="node">
<title>8</title>
<ellipse fill="none" stroke="black" cx="223" cy="-18" rx="27" ry="18"/>
<text text-anchor="middle" x="223" y="-14.3" font-family="Helvetica,Arial,sans-serif" font-size="14.00">8</text>
</g>
<!-- 8&#45;&gt;16 -->
<g id="edge13" class="edge">
<title>8&#45;&gt;16</title>
<path fill="none" stroke="black" d="M238.05,-33.21C242.27,-38.29 246.66,-44.16 250,-50 286.14,-113.27 306.33,-197.65 314.94,-240.87"/>
<polygon fill="black" stroke="black" points="311.55,-241.78 316.89,-250.94 318.43,-240.46 311.55,-241.78"/>
<text text-anchor="middle" x="272" y="-104.8" font-family="Helvetica,Arial,sans-serif" font-size="14.00">1</text>
</g>
<!-- 9 -->
<g id="node13" class="node">
<title>9</title>
<ellipse fill="none" stroke="black" cx="223" cy="-77" rx="27" ry="18"/>
<text text-anchor="middle" x="223" y="-73.3" font-family="Helvetica,Arial,sans-serif" font-size="14.00">9</text>
</g>
<!-- 9&#45;&gt;16 -->
<g id="edge14" class="edge">
<title>9&#45;&gt;16</title>
<path fill="none" stroke="black" d="M239.03,-91.9C242.91,-96.22 246.87,-101.1 250,-106 278.39,-150.46 300.13,-208.39 311.4,-241.87"/>
<polygon fill="black" stroke="black" points="308.1,-243.03 314.56,-251.43 314.75,-240.84 308.1,-243.03"/>
<text text-anchor="middle" x="272" y="-155.8" font-family="Helvetica,Arial,sans-serif" font-size="14.00">1</text>
</g>
<!-- 11 -->
<g id="node14" class="node">
<title>11</title>
<ellipse fill="none" stroke="black" cx="125" cy="-64" rx="27" ry="18"/>
<text text-anchor="middle" x="125" y="-60.3" font-family="Helvetica,Arial,sans-serif" font-size="14.00">11</text>
</g>
<!-- 11&#45;&gt;10 -->
<g id="edge16" class="edge">
<title>11&#45;&gt;10</title>
<path fill="none" stroke="black" d="M133.21,-81.41C147.63,-115.92 180.04,-191.69 196,-215 197.13,-216.65 198.36,-218.3 199.66,-219.91"/>
<polygon fill="black" stroke="black" points="197.23,-222.45 206.47,-227.64 202.49,-217.82 197.23,-222.45"/>
<text text-anchor="middle" x="174" y="-183.8" font-family="Helvetica,Arial,sans-serif" font-size="14.00">1</text>
</g>
<!-- 11&#45;&gt;8 -->
<g id="edge18" class="edge">
<title>11&#45;&gt;8</title>
<path fill="none" stroke="black" d="M143.25,-50.46C151.08,-44.79 160.67,-38.49 170,-34 175.51,-31.35 181.55,-29.02 187.51,-27.01"/>
<polygon fill="black" stroke="black" points="188.84,-30.26 197.35,-23.94 186.76,-23.58 188.84,-30.26"/>
<text text-anchor="middle" x="174" y="-37.8" font-family="Helvetica,Arial,sans-serif" font-size="14.00">1</text>
</g>
<!-- 11&#45;&gt;9 -->
<g id="edge17" class="edge">
<title>11&#45;&gt;9</title>
<path fill="none" stroke="black" d="M148.89,-55.33C157.99,-52.99 168.54,-51.68 178,-54 183.44,-55.34 188.96,-57.48 194.16,-59.93"/>
<polygon fill="black" stroke="black" points="192.6,-63.06 203.09,-64.56 195.83,-56.85 192.6,-63.06"/>
<text text-anchor="middle" x="174" y="-57.8" font-family="Helvetica,Arial,sans-serif" font-size="14.00">1</text>
</g>
<!-- 14 -->
<g id="node15" class="node">
<title>14</title>
<ellipse fill="none" stroke="black" cx="223" cy="-133" rx="27" ry="18"/>
<text text-anchor="middle" x="223" y="-129.3" font-family="Helvetica,Arial,sans-serif" font-size="14.00">14</text>
</g>
<!-- 14&#45;&gt;16 -->
<g id="edge21" class="edge">
<title>14&#45;&gt;16</title>
<path fill="none" stroke="black" d="M238.8,-147.98C242.6,-152.08 246.58,-156.6 250,-161 271,-187.96 291.89,-221.25 305.31,-243.69"/>
<polygon fill="black" stroke="black" points="302.3,-245.48 310.41,-252.3 308.32,-241.91 302.3,-245.48"/>
<text text-anchor="middle" x="272" y="-198.8" font-family="Helvetica,Arial,sans-serif" font-size="14.00">1</text>
</g>
<!-- 0 -->
<g id="node16" class="node">
<title>0</title>
<ellipse fill="none" stroke="black" cx="27" cy="-233" rx="27" ry="18"/>
<text text-anchor="middle" x="27" y="-229.3" font-family="Helvetica,Arial,sans-serif" font-size="14.00">0</text>
</g>
<!-- 0&#45;&gt;2 -->
<g id="edge22" class="edge">
<title>0&#45;&gt;2</title>
<path fill="none" stroke="black" d="M42.17,-248.49C58.28,-266.12 84.75,-295.07 103.21,-315.26"/>
<polygon fill="black" stroke="black" points="100.76,-317.77 110.09,-322.78 105.92,-313.04 100.76,-317.77"/>
<text text-anchor="middle" x="76" y="-291.8" font-family="Helvetica,Arial,sans-serif" font-size="14.00">1</text>
</g>
<!-- 0&#45;&gt;3 -->
<g id="edge23" class="edge">
<title>0&#45;&gt;3</title>
<path fill="none" stroke="black" d="M54.23,-233C64.5,-233 76.45,-233 87.53,-233"/>
<polygon fill="black" stroke="black" points="87.8,-236.5 97.8,-233 87.8,-229.5 87.8,-236.5"/>
<text text-anchor="middle" x="76" y="-236.8" font-family="Helvetica,Arial,sans-serif" font-size="14.00">1</text>
</g>
<!-- 0&#45;&gt;7 -->
<g id="edge24" class="edge">
<title>0&#45;&gt;7</title>
<path fill="none" stroke="black" d="M35.53,-250.18C52.25,-288.32 92.55,-380.26 112.47,-425.69"/>
<polygon fill="black" stroke="black" points="109.28,-427.14 116.5,-434.9 115.69,-424.33 109.28,-427.14"/>
<text text-anchor="middle" x="76" y="-352.8" font-family="Helvetica,Arial,sans-serif" font-size="14.00">1</text>
</g>
<!-- 0&#45;&gt;11 -->
<g id="edge25" class="edge">
<title>0&#45;&gt;11</title>
<path fill="none" stroke="black" d="M37.56,-216.18C54.38,-186.57 89.37,-124.96 109.29,-89.89"/>
<polygon fill="black" stroke="black" points="112.59,-91.18 114.48,-80.75 106.5,-87.72 112.59,-91.18"/>
<text text-anchor="middle" x="76" y="-156.8" font-family="Helvetica,Arial,sans-serif" font-size="14.00">1</text>
</g>
<!-- 15 -->
<g id="node17" class="node">
<title>15</title>
<ellipse fill="none" stroke="black" cx="125" cy="-159" rx="27" ry="18"/>
<text text-anchor="middle" x="125" y="-155.3" font-family="Helvetica,Arial,sans-serif" font-size="14.00">15</text>
</g>
<!-- 0&#45;&gt;15 -->
<g id="edge26" class="edge">
<title>0&#45;&gt;15</title>
<path fill="none" stroke="black" d="M45.61,-219.43C60.36,-208.06 81.61,-191.67 98.27,-178.83"/>
<polygon fill="black" stroke="black" points="100.72,-181.36 106.5,-172.49 96.45,-175.82 100.72,-181.36"/>
<text text-anchor="middle" x="76" y="-201.8" font-family="Helvetica,Arial,sans-serif" font-size="14.00">1</text>
</g>
<!-- 15&#45;&gt;12 -->
<g id="edge29" class="edge">
<title>15&#45;&gt;12</title>
<path fill="none" stroke="black" d="M136.05,-175.63C141.18,-184.48 147.3,-195.64 152,-206 161.75,-227.51 156.08,-236.92 170,-256 176.34,-264.69 185.09,-272.42 193.6,-278.71"/>
<polygon fill="black" stroke="black" points="191.73,-281.67 201.93,-284.5 195.72,-275.92 191.73,-281.67"/>
<text text-anchor="middle" x="174" y="-267.8" font-family="Helvetica,Arial,sans-serif" font-size="14.00">1</text>
</g>
<!-- 15&#45;&gt;13 -->
<g id="edge28" class="edge">
<title>15&#45;&gt;13</title>
<path fill="none" stroke="black" d="M139.28,-143.42C149.8,-133.04 164.87,-122.56 178,-130 191.53,-137.66 186.66,-147.57 196,-160 197.36,-161.81 198.82,-163.63 200.33,-165.44"/>
<polygon fill="black" stroke="black" points="197.85,-167.92 207.09,-173.1 203.1,-163.29 197.85,-167.92"/>
<text text-anchor="middle" x="174" y="-133.8" font-family="Helvetica,Arial,sans-serif" font-size="14.00">1</text>
</g>
<!-- 15&#45;&gt;14 -->
<g id="edge27" class="edge">
<title>15&#45;&gt;14</title>
<path fill="none" stroke="black" d="M132.03,-141.35C138.58,-125.22 150.77,-102.38 170,-92 173.13,-90.31 174.69,-90.7 178,-92 183.41,-94.13 192.44,-102.17 200.92,-110.57"/>
<polygon fill="black" stroke="black" points="198.62,-113.22 208.12,-117.91 203.61,-108.32 198.62,-113.22"/>
<text text-anchor="middle" x="174" y="-95.8" font-family="Helvetica,Arial,sans-serif" font-size="14.00">1</text>
</g>
</g>
</svg>
